<?xml version="1.0" encoding="utf-8"?>
<!-- Generator: Adobe Illustrator 27.8.0, SVG Export Plug-In . SVG Version: 6.00 Build 0)  -->
<svg version="1.1" id="Layer_1" xmlns="http://www.w3.org/2000/svg" xmlns:xlink="http://www.w3.org/1999/xlink" x="0px" y="0px"
	 viewBox="0 0 433.75 369.2" style="enable-background:new 0 0 433.75 369.2;" xml:space="preserve">
<style type="text/css">
	.st0{fill-rule:evenodd;clip-rule:evenodd;fill:#A48B5C;}
	.st1{fill:#FFFFFF;}
</style>
<path class="st0" d="M57.16,86.87v0.17l-5.33,0l-48-83.14l252.81,0.01c0.71-0.01,1.41-0.01,2.12-0.01
	c73.86,0,153.84,40.21,167.6,135.42H336.7c-12.71-36.07-39.63-52.37-77.71-52.43v-0.02H57.16z"/>
<path class="st1" d="M337.97,225.65c-9.59,37.83-40.38,57-78.74,57c-53.51-0.5-87.83-45.9-87.83-97.86
	c0-34.37,12.01-62.3,32.67-79.49H94.19c-10.17,22.7-16.05,49.2-16.17,79.49c0.5,120.06,91.36,180.59,181.21,180.09
	c75.21,0,154.46-39.35,167.58-139.23H337.97z"/>
</svg>
