<?xml version="1.0" encoding="utf-8"?>
<!-- Generator: Adobe Illustrator 27.8.0, SVG Export Plug-In . SVG Version: 6.00 Build 0)  -->
<svg version="1.1" id="Capa_1" xmlns="http://www.w3.org/2000/svg" xmlns:xlink="http://www.w3.org/1999/xlink" x="0px" y="0px"
	 viewBox="0 0 512 512" style="enable-background:new 0 0 512 512;" xml:space="preserve">
<g id="_x32_9_Garage">
	<g>
		<path d="M472.8,379.8h-14.1v-272H51.3v272H37.2c-6.2,0-11.2,5-11.2,11.2c0,6.2,5,11.2,11.2,11.2h435.6c6.2,0,11.2-5,11.2-11.2
			C484,384.8,479,379.8,472.8,379.8L472.8,379.8z M335.5,346.4c-8.8,0-15.9-7.1-15.9-15.9c0-8.8,7.1-15.9,15.9-15.9
			s15.9,7.1,15.9,15.9C351.4,339.3,344.3,346.4,335.5,346.4z M175.4,277.8l16.2-42.6c2.1-5.4,7.4-9.1,13.2-9.1h100.3
			c5.8,0,11.1,3.7,13.2,9.1l16.2,42.6H175.4z M306,330.5c0,2.6-2.1,4.7-4.7,4.7h-92.7c-2.6,0-4.7-2.1-4.7-4.7s2.1-4.7,4.7-4.7h92.7
			C303.9,325.8,306,327.9,306,330.5z M190.4,330.5c0,8.8-7.1,15.9-15.9,15.9s-15.9-7.1-15.9-15.9c0-8.8,7.1-15.9,15.9-15.9
			S190.4,321.7,190.4,330.5z M190.8,374v-13.7h128.3V374c0,2.6,1.6,4.8,3.8,5.8H187.1C189.3,378.8,190.8,376.6,190.8,374z
			 M353.6,379.8c2.2-1,3.8-3.2,3.8-5.8v-13.7h4.6c7.3,0,13.2-5.9,13.2-13.2c-0.6-3.6,3.7-27.6-16.1-48.5l-10.8-11.4l-0.2-0.6
			c1.7,0.3,3.4,0.6,5.3,0.6c9.3,0,16.8-4.5,16.8-10c0-5.5-7.5-10-16.8-10c-4.5,0-8.6,1.1-11.6,2.8l-14.5-38.2
			c-3.5-9.1-12.2-15.1-22-15.1H204.8c-9.7,0-18.5,6-22,15.1L168.3,270c-3-1.7-7.1-2.8-11.6-2.8c-9.3,0-16.8,4.5-16.8,10
			c0,5.5,7.5,10,16.8,10c1.8,0,3.6-0.2,5.2-0.5l-0.2,0.6L151,298.6c-19.7,21-15.5,44.9-16.1,48.5c0,7.3,5.9,13.2,13.2,13.2h4.6V374
			c0,2.6,1.6,4.8,3.8,5.8h-71V182.2h339.2v197.6L353.6,379.8L353.6,379.8z"/>
	</g>
</g>
</svg>
