<?xml version="1.0" encoding="utf-8"?>
<!-- Generator: Adobe Illustrator 27.8.0, SVG Export Plug-In . SVG Version: 6.00 Build 0)  -->
<svg version="1.1" id="Capa_1" xmlns="http://www.w3.org/2000/svg" xmlns:xlink="http://www.w3.org/1999/xlink" x="0px" y="0px"
	 viewBox="0 0 512 512" style="enable-background:new 0 0 512 512;" xml:space="preserve">
<g id="_x32_9_Garage">
	<g>
		<path d="M472.8,429h-14.1V60.7H51.3V429H37.2C31,429,26,434,26,440.2c0,6.2,5,11.2,11.2,11.2h435.6c6.2,0,11.2-5,11.2-11.2
			C484,434,479,429,472.8,429L472.8,429z M335.5,395.6c-8.8,0-15.9-7.1-15.9-15.9c0-8.8,7.1-15.9,15.9-15.9s15.9,7.1,15.9,15.9
			C351.4,388.5,344.3,395.6,335.5,395.6z M175.4,327l16.2-42.6c2.1-5.4,7.4-9.1,13.2-9.1h100.3c5.8,0,11.1,3.7,13.2,9.1l16.2,42.6
			H175.4z M306,379.6c0,2.6-2.1,4.7-4.7,4.7h-92.7c-2.6,0-4.7-2.1-4.7-4.7s2.1-4.7,4.7-4.7h92.7C303.9,374.9,306,377,306,379.6z
			 M190.4,379.7c0,8.8-7.1,15.9-15.9,15.9s-15.9-7.1-15.9-15.9c0-8.8,7.1-15.9,15.9-15.9S190.4,370.9,190.4,379.7z M190.8,423.2
			v-13.7h128.3v13.7c0,2.6,1.6,4.8,3.8,5.8H187.1C189.3,428,190.8,425.8,190.8,423.2z M353.6,429c2.2-1,3.8-3.2,3.8-5.8v-13.7h4.6
			c7.3,0,13.2-5.9,13.2-13.2c-0.6-3.6,3.7-27.6-16.1-48.5l-10.8-11.4l-0.2-0.6c1.7,0.3,3.4,0.6,5.3,0.6c9.3,0,16.8-4.5,16.8-10
			c0-5.5-7.5-10-16.8-10c-4.5,0-8.6,1.1-11.6,2.8L327.1,281c-3.5-9.1-12.2-15.1-22-15.1H204.8c-9.7,0-18.5,6-22,15.1l-14.5,38.1
			c-3-1.7-7.1-2.8-11.6-2.8c-9.3,0-16.8,4.5-16.8,10c0,5.5,7.5,10,16.8,10c1.8,0,3.6-0.2,5.2-0.5l-0.2,0.6L151,347.8
			c-19.7,21-15.5,44.9-16.1,48.5c0,7.3,5.9,13.2,13.2,13.2h4.6v13.7c0,2.6,1.6,4.8,3.8,5.8h-71V137.7h339.2V429L353.6,429L353.6,429
			z"/>
	</g>
</g>
</svg>
