<?xml version="1.0" encoding="utf-8"?>
<!-- Generator: Adobe Illustrator 27.8.0, SVG Export Plug-In . SVG Version: 6.00 Build 0)  -->
<svg version="1.1" id="Capa_1" xmlns="http://www.w3.org/2000/svg" xmlns:xlink="http://www.w3.org/1999/xlink" x="0px" y="0px"
	 viewBox="0 0 512 512" style="enable-background:new 0 0 512 512;" xml:space="preserve">
<g>
	<circle cx="256" cy="270.3" r="14.3"/>
	<path d="M256,11.5C121.4,11.5,11.5,121.4,11.5,256c0,134.6,109.9,244.5,244.5,244.5c134.6,0,244.5-109.9,244.5-244.5
		C500.5,121.4,390.6,11.5,256,11.5z M256,69.8c93,0,170.2,68.4,184,157.6h-49.7c-31.5,0-61.4-12.6-82.1-34.7
		c-28.3-30.1-76.2-30.1-104.5,0c-20.7,22-50.6,34.7-82.1,34.7H72C85.8,138.2,163,69.8,256,69.8L256,69.8z M256,313.3
		c-23.7,0-43-19.3-43-43s19.3-43,43-43c23.7,0,43,19.3,43,43S279.7,313.3,256,313.3z M82.6,323.9c16.4-6.4,28.2-10.6,44.5-10.6
		c52.2,0,92.9,46.5,85,98.8h0c-1.2,8-3.5,15.8-6.8,23.1C149.1,419.3,103.7,377.7,82.6,323.9z M306.8,435.2
		c-3.4-7.5-5.7-15.2-6.8-23.1h0c-9.2-60.9,47.1-111.2,105.4-96.4c6.1,1.6,13.8,4.1,24.1,8.2C408.3,377.6,362.9,419.3,306.8,435.2z"
		/>
</g>
</svg>
