<?xml version="1.0" encoding="utf-8"?>
<!-- Generator: Adobe Illustrator 27.8.0, SVG Export Plug-In . SVG Version: 6.00 Build 0)  -->
<svg version="1.1" id="Capa_1" xmlns="http://www.w3.org/2000/svg" xmlns:xlink="http://www.w3.org/1999/xlink" x="0px" y="0px"
	 viewBox="0 0 512 512" style="enable-background:new 0 0 512 512;" xml:space="preserve">
<g>
	<g>
		<path d="M252.2,433.6l86-51.1c1.8,2.2,4.4,3.7,7.5,3.7l78.7,0.4c5.4,0,9.9-4.4,9.9-9.8l0-1.4c12-2.8,22.7-9.9,29.8-20.4l21.2-31.5
			c5.4-8.1,8.3-17.5,8.4-27.2l0.3-74.5c0-9.7-2.8-19.2-8.1-27.3L465,162.7c-7-10.6-17.6-17.8-29.6-20.6l0-1.4c0-5.4-4.4-9.9-9.8-9.9
			l-78.7-0.4c-3.1,0-5.7,1.5-7.5,3.7l-85.6-51.9c-4.6-2.8-10.7-1.3-13.5,3.3c-2.8,4.6-1.3,10.7,3.3,13.5l67.7,41.1l-121.9-0.5
			l-9.8,0c0-5.4-4.4-9.9-9.8-9.9l-78.7-0.4c-5.4,0-9.9,4.4-9.9,9.8l0,1c-33.3,4.7-59.2,33-59.3,67.6l-0.4,98.4
			c-0.2,34.6,25.5,63.2,58.7,68.1l0,1c0,5.4,4.4,9.9,9.8,9.9l78.7,0.4c5.4,0,9.9-4.4,9.9-9.8l9.8,0l121.9,0.5l-68.1,40.4
			c-4.7,2.8-6.2,8.8-3.4,13.5C241.5,434.8,247.5,436.4,252.2,433.6z M386.5,188.9c5.8,3.6,9.3,9.9,9.3,16.8l-0.5,105.9
			c0,6.9-3.6,13.1-9.4,16.7c-5.9,3.6-13,3.9-19.1,0.8l-39.3-19.9c-6.7-3.4-10.8-10.1-10.8-17.6l0.3-66.5c0-7.5,4.2-14.2,11-17.5
			l39.4-19.5C373.5,184.9,380.6,185.2,386.5,188.9z M205.3,159.3l117.7,0.5l-19.8,19.6l-88.2-0.4L205.3,159.3z M122.6,333.2
			c-0.9-0.9-22.5-23.3-22.2-75.9s22-74.8,22.9-75.7c3-3,7.6-3.7,11.4-1.8l39.3,19.9c4.8,2.5,6.7,8.4,4.4,13.2
			c-0.1,0.2-8.9,18.2-9,44.8c-0.1,26.9,8.5,44.6,8.6,44.8c1.2,2.3,1.3,5,0.5,7.5c-0.8,2.5-2.6,4.5-5,5.7L134,335
			C130.2,336.9,125.6,336.2,122.6,333.2z M204.4,356.1l9.9-19.6l88.2,0.4l19.6,19.8L204.4,356.1z"/>
	</g>
</g>
</svg>
