<?xml version="1.0" encoding="utf-8"?>
<!-- Generator: Adobe Illustrator 27.8.0, SVG Export Plug-In . SVG Version: 6.00 Build 0)  -->
<svg version="1.1" id="Capa_1" xmlns="http://www.w3.org/2000/svg" xmlns:xlink="http://www.w3.org/1999/xlink" x="0px" y="0px"
	 viewBox="0 0 512 512" style="enable-background:new 0 0 512 512;" xml:space="preserve">
<g>
	<path d="M458.2,161.6c-10.8-22.3-25.8-42.3-44-58.8c-0.3-0.3-0.6-0.6-1-0.9c-13.4-12-28.4-22.2-44.8-30
		C291.2,34.7,208,37.7,140.3,80.3c-10.2,6.4-19.9,13.7-28.9,21.6c-0.3,0.2-0.6,0.5-0.9,0.8C92,119.2,76.2,138.6,64,160.2
		c-18.9,33.5-28.9,71.6-28.9,110.3c0,67.8,30.2,131.3,82.8,174.1c13.1,10.7,29.7,16.6,46.7,16.6h189.9c17,0,33.5-5.8,46.5-16.4
		c16.9-13.8,31.7-29.9,43.9-47.8c0.1-0.1,0.2-0.2,0.2-0.3c0.3-0.4,0.5-0.7,0.7-1.1c15.1-22.4,26.1-47.5,32.3-73.9
		C490.3,269.5,483.4,214.1,458.2,161.6L458.2,161.6z M147.3,91.4c34.1-21.5,72.5-32.2,112-32.2c34.3,0,69.5,8.2,103.6,24.5
		c13.8,6.6,26.6,15,38.2,24.9l-12.3,21.8c-11-9.9-23.2-18.2-36.5-24.6c-30.5-14.7-61.6-22.1-92.6-22.1c-23.6,0-46.7,4.4-68.6,13
		c-3.4,1.3-5,5.2-3.7,8.5c1.3,3.4,5.2,5,8.5,3.7c20.3-8,41.7-12.1,63.7-12.1c29,0,58.2,7,86.9,20.8c13.1,6.3,25,14.5,35.6,24.6
		c-2.7,6.2-1.7,13.4,2.9,18.5c15,17,26.1,36.5,33.2,57.8c0.3,0.9,0,1.7-0.3,2c-0.2,0.4-0.8,1-1.7,1.1l-25.9,2.4
		c-3.2,0.3-6,1.9-7.9,4.5c-0.5,0.6-0.8,1.3-1.1,2L348.5,220c-3.4-1.1-7.2,0.8-8.3,4.2c-1.1,3.5,0.8,7.2,4.2,8.3l37.7,12.2l1.7,7.5
		h-51.7c-3.6,0-6.6,2.9-6.6,6.6c0,3.6,2.9,6.6,6.6,6.6H387l2,8.7l-58.6,8.3c-3.9,0.6-7.3,2.6-9.7,5.6l-22,28.1
		c-1.6,2.1-4,3.2-6.6,3.2h-0.8c0,0,0,0,0,0h-63.4c-2.6,0-5-1.2-6.6-3.2l-22-28.1c-2.4-3.1-5.9-5.1-9.7-5.6l-58.5-8.3l2-8.7h53.8
		c3.6,0,6.6-2.9,6.6-6.6c0-3.6-2.9-6.6-6.6-6.6H136l1.7-7.5l54-17.4c41-13.2,84.6-14.2,126.1-3c3.5,0.9,7.1-1.1,8.1-4.6
		c0.9-3.5-1.1-7.1-4.6-8.1c-44-11.9-90.2-10.8-133.6,3.2l-49,15.8c-0.3-0.7-0.7-1.4-1.1-2c-1.9-2.6-4.7-4.2-7.9-4.5l-26.7-2.5
		c-1-0.1-1.5-0.7-1.7-1.1c-0.2-0.4-0.6-1.1-0.3-2c7.1-21.6,18.5-41.3,33.7-58.4c3.5-3.9,5-9.3,4.1-14.4c9.9-9.6,20.9-18,32.7-25
		c3.1-1.8,4.2-5.9,2.3-9c-1.8-3.1-5.9-4.2-9-2.3c-11.2,6.6-21.6,14.4-31.2,23.1L123.3,109C130.8,102.6,138.9,96.7,147.3,91.4
		L147.3,91.4z M368.8,397.2c-9.6,8.3-21.8,12.9-34.6,12.9h-21.4c-1.7,0-3.2-1.1-3.7-2.6l-4.5-12.6c-2-5.5-7.2-9.2-13-9.2H291
		l6.1-53.7c4.7-1.1,8.9-3.8,11.9-7.7l22-28.1c0.3-0.4,0.7-0.6,1.2-0.7l60.4-8.6c1.7,2.6,4.6,4.5,7.8,4.9l21.9,2.6
		c0.9,0.1,1.4,0.6,1.6,0.9c0.2,0.3,0.6,0.9,0.4,1.7C418.4,335.8,398.6,371.3,368.8,397.2L368.8,397.2z M266.1,385.6v-20
		c0-3.6-2.9-6.6-6.6-6.6c-3.6,0-6.6,2.9-6.6,6.6v20h-11.7l-1.5-13.3c-0.4-3.6-3.7-6.2-7.3-5.8c-3.6,0.4-6.2,3.7-5.8,7.3l1.3,11.8
		h-0.6c-5.8,0-11.1,3.7-13,9.2l-4.5,12.6c-0.6,1.6-2.1,2.6-3.7,2.6h-21.4c-12.7,0-25-4.6-34.6-12.9c-29.8-25.8-49.6-61.4-55.7-100.1
		c-0.1-0.8,0.2-1.4,0.4-1.7c0.2-0.3,0.7-0.8,1.6-0.9l22.8-2.7c3.2-0.4,6.1-2.2,7.8-4.9l60.3,8.6c0.5,0.1,0.9,0.3,1.2,0.7l22,28.1
		c2.9,3.7,6.7,6.2,11,7.5l1.6,14.1c0.4,3.4,3.2,5.8,6.5,5.8c0.2,0,0.5,0,0.8,0c3.6-0.4,6.2-3.7,5.8-7.3l-1.3-11.8h48.6l-6.1,53.1
		L266.1,385.6z M75.4,166.7c10.1-17.9,22.8-34.2,37.6-48.4l12.6,28.6c0.7,1.5,0.4,3.3-0.7,4.6c-16.4,18.5-28.6,39.6-36.3,63
		c-1.5,4.5-0.9,9.4,1.7,13.3c2.6,4,6.8,6.5,11.5,6.9l24.3,2.2l-9.5,41.1l-0.2,0.8l-21.3,2.6c-4.2,0.5-8,2.7-10.5,6
		c-2.6,3.4-3.6,7.5-2.9,11.7c3.6,23.1,11.8,45.1,23.8,64.9l-24.7,19.2c-21-33.3-32.5-72.2-32.5-112.7
		C48.2,234.1,57.6,198.2,75.4,166.7L75.4,166.7z M392.7,434.6c-10.7,8.7-24.2,13.4-38.2,13.4H164.6c-14,0-27.7-4.8-38.4-13.6
		c-14.6-11.9-27.3-25.4-38.1-40.3l24.5-19c8.3,11.7,18.1,22.5,29.1,32c12,10.4,27.3,16.1,43.2,16.1h21.4c7.2,0,13.7-4.6,16.1-11.4
		l4.5-12.6c0.1-0.3,0.4-0.5,0.6-0.5h56.2h0h0h7.9c0.3,0,0.5,0.2,0.6,0.5l4.5,12.6c2.4,6.8,8.9,11.4,16.1,11.4h21.4
		c15.9,0,31.2-5.7,43.2-16.1c11-9.5,20.8-20.3,29.1-32l24.5,19C420,409.1,407.2,422.8,392.7,434.6z M465.3,318.7
		c-5.3,22.8-14.6,44.6-27.1,64.4l-24.6-19.1c12-19.8,20.2-41.9,23.8-65.1c0.7-4.2-0.4-8.3-2.9-11.7c-2.5-3.3-6.4-5.5-10.5-6
		l-20.4-2.4l-9.6-41.9l23.4-2.2c4.7-0.4,8.9-3,11.5-6.9c2.6-4,3.2-8.8,1.8-13.3c-7.6-23.1-19.7-44.1-35.8-62.4
		c-1.2-1.4-1.4-3.4-0.5-5l16.6-29.4c14.5,14.3,26.5,31.1,35.4,49.6C470.3,217.1,476.9,269.4,465.3,318.7L465.3,318.7z"/>
	<path d="M259.5,230.4c-20.7,0-37.5,16.8-37.5,37.5s16.8,37.5,37.5,37.5s37.5-16.8,37.5-37.5S280.2,230.4,259.5,230.4L259.5,230.4z
		 M259.5,292.2c-13.4,0-24.3-10.9-24.3-24.3c0-13.4,10.9-24.3,24.3-24.3c13.4,0,24.3,10.9,24.3,24.3
		C283.9,281.3,273,292.2,259.5,292.2z"/>
</g>
</svg>
