<?xml version="1.0" encoding="utf-8"?>
<!-- Generator: Adobe Illustrator 27.8.0, SVG Export Plug-In . SVG Version: 6.00 Build 0)  -->
<svg version="1.1" id="Capa_1" xmlns="http://www.w3.org/2000/svg" xmlns:xlink="http://www.w3.org/1999/xlink" x="0px" y="0px"
	 viewBox="0 0 512 512" style="enable-background:new 0 0 512 512;" xml:space="preserve">
<g id="_x30_4_Steering_Wheel">
	<g>
		<path d="M252.6,83.5c56.8,0,107,28.1,137.8,71.1l40.8-24.7C392,73.3,326.7,36.1,252.6,36.1S113.2,73.3,74,129.9l40.8,24.7
			C145.6,111.7,195.8,83.5,252.6,83.5L252.6,83.5z"/>
		<path d="M438.5,141.4l-41.8,25.3c1.3,24.9,18.7,20,18.7,38.9c0,13.6-13.9,16.7-20.6,18.5c-3.6,0.9-6.5,4.9-6.5,8.6v40.7
			c0,3.7,2.9,7.7,6.5,8.6c7.5,2,25.1,6,18.3,25.3c-16.7,47.4-53,85.6-99.5,103.9c-8.1,3.2-19.6,4.8-24.2-14.9
			c-1.3-5.5-6-7.6-9.7-7.6h-27.1h-27.1c-3.7,0-8.5,2.1-9.8,7.6c-4.5,19.7-16.1,18-24.2,14.9c-46.5-18.2-82.7-56.5-99.5-103.9
			c-6.8-19.2,10.8-23.3,18.3-25.3c3.6-0.9,6.5-4.9,6.5-8.6v-40.7c0-3.7-2.9-7.7-6.5-8.6c-6.7-1.8-20.6-4.9-20.6-18.5
			c0-19,17.4-14.1,18.7-38.9l-41.8-25.3C47,174,35.6,212.2,35.6,253.1c0,119.9,97.2,217,217,217s217-97.2,217-217
			C469.6,212.2,458.2,174,438.5,141.4z"/>
		<circle cx="252.6" cy="253.1" r="13.6"/>
		<path d="M300,253.1c0-26.2-21.3-47.5-47.5-47.5s-47.5,21.3-47.5,47.5s21.3,47.5,47.5,47.5S300,279.3,300,253.1z M252.6,280.2
			c-15,0-27.1-12.2-27.1-27.1c0-15,12.2-27.1,27.1-27.1s27.1,12.2,27.1,27.1C279.7,268,267.5,280.2,252.6,280.2z"/>
		<path d="M225.5,307.7v67.5h54.3v-67.5c-8.2,4.1-17.4,6.4-27.1,6.4C242.8,314.1,233.6,311.8,225.5,307.7z"/>
		<path d="M374.6,278.3V226l-80.4-17.4c11.9,11.1,19.4,26.9,19.4,44.5c0,7.8-1.5,15.2-4.2,22.1L374.6,278.3z"/>
		<path d="M130.5,226v52.6l65.3-3.3c-2.7-6.9-4.2-14.4-4.2-22.2c0-17.5,7.4-33.2,19.2-44.3L130.5,226z"/>
	</g>
</g>
</svg>
