<?xml version="1.0" encoding="utf-8"?>
<!-- Generator: Adobe Illustrator 27.8.0, SVG Export Plug-In . SVG Version: 6.00 Build 0)  -->
<svg version="1.1" id="Capa_1" xmlns="http://www.w3.org/2000/svg" xmlns:xlink="http://www.w3.org/1999/xlink" x="0px" y="0px"
	 viewBox="0 0 512 512" style="enable-background:new 0 0 512 512;" xml:space="preserve">
<g id="_x30_4_Steering_Wheel">
	<g>
		<path d="M255.5,61.7c65.1,0,122.7,32.2,157.9,81.5l46.7-28.3C415.3,49.9,340.4,7.2,255.5,7.2S95.7,49.9,50.8,114.8l46.7,28.3
			C132.8,93.9,190.4,61.7,255.5,61.7L255.5,61.7z"/>
		<path d="M468.6,127.9l-47.9,29c1.4,28.5,21.4,22.9,21.4,44.6c0,15.5-16,19.2-23.6,21.2c-4.1,1.1-7.5,5.6-7.5,9.9v46.6
			c0,4.3,3.3,8.8,7.5,9.9c8.7,2.3,28.8,6.9,21,29c-19.2,54.3-60.7,98.1-114,119.1c-9.2,3.6-22.5,5.5-27.7-17
			c-1.5-6.3-6.9-8.7-11.2-8.7h-31.1h-31.1c-4.3,0-9.7,2.4-11.2,8.7c-5.2,22.6-18.5,20.6-27.7,17c-53.3-20.9-94.8-64.7-114-119.1
			c-7.8-22,12.4-26.7,21-29c4.1-1.1,7.5-5.6,7.5-9.9v-46.6c0-4.3-3.3-8.8-7.5-9.9c-7.7-2-23.6-5.6-23.6-21.2
			c0-21.8,20-16.1,21.4-44.6l-47.9-29C19.9,165.4,6.7,209.1,6.7,256c0,137.4,111.4,248.8,248.8,248.8S504.3,393.4,504.3,256
			C504.3,209.1,491.1,165.4,468.6,127.9z"/>
		<circle cx="255.5" cy="256" r="15.5"/>
		<path d="M309.9,256c0-30-24.4-54.4-54.4-54.4S201.1,226,201.1,256s24.4,54.4,54.4,54.4S309.9,286,309.9,256z M255.5,287.1
			c-17.1,0-31.1-13.9-31.1-31.1s13.9-31.1,31.1-31.1s31.1,13.9,31.1,31.1S272.6,287.1,255.5,287.1z"/>
		<path d="M224.4,318.6v77.4h62.2v-77.4c-9.4,4.7-19.9,7.4-31.1,7.4C244.3,326,233.8,323.3,224.4,318.6z"/>
		<path d="M395.4,284.9v-60L303.2,205c13.6,12.8,22.2,30.9,22.2,51c0,8.9-1.7,17.5-4.8,25.3L395.4,284.9z"/>
		<path d="M115.6,224.9v60.3l74.8-3.7c-3.1-7.9-4.9-16.4-4.9-25.4c0-20,8.5-38,22-50.8L115.6,224.9z"/>
	</g>
</g>
</svg>
