<?xml version="1.0" standalone="no"?>
<!DOCTYPE svg PUBLIC "-//W3C//DTD SVG 1.1//EN" "http://www.w3.org/Graphics/SVG/1.1/DTD/svg11.dtd" >
<svg xmlns="http://www.w3.org/2000/svg" xmlns:xlink="http://www.w3.org/1999/xlink" version="1.1">
<metadata>
Created by FontForge 20201107 at Fri Dec 10 16:52:53 2021
 By 
Copyright 2020 The League Spartan Project Authors (https://github.com/theleagueof/league-spartan)
</metadata>
<defs>
<font id="LeagueSpartan-SemiBold" horiz-adv-x="0" >
  <font-face 
    font-family="League Spartan SemiBold"
    font-weight="600"
    font-stretch="normal"
    units-per-em="2000"
    panose-1="0 0 0 0 0 0 0 0 0 0"
    ascent="1600"
    descent="-400"
    x-height="821"
    cap-height="1320"
    bbox="-281 -548 2355 2218"
    underline-thickness="50"
    underline-position="-125"
    unicode-range="U+000D-FB02"
  />
<missing-glyph horiz-adv-x="757" 
d="M71 1320l137 -1027l479 -293l-137 1027zM134 64l109 927l381 265l-109 -927zM621 1320l-414 -1027l-71 -293l414 1027z" />
    <glyph glyph-name="fi" unicode="fi" horiz-adv-x="1185" 
d="M24 821h148v223q0 122 48 200.5t124 117t157 38.5q99 0 152 -27t65 -39l-98 -188q-5 7 -27.5 22.5t-59.5 15.5q-26 0 -51 -13t-41 -48t-16 -103v-199h215v-211h-215v-610h-253v610h-148v211zM792 0v821h253v-821h-253zM922 1033q-63 0 -106.5 44t-43.5 105t44 106t106 45
q41 0 75 -20.5t55 -54.5t21 -76q0 -61 -44.5 -105t-106.5 -44z" />
    <glyph glyph-name="fl" unicode="fl" horiz-adv-x="1159" 
d="M24 821h148v223q0 122 48 200.5t124 117t157 38.5q99 0 152 -27t65 -39l-98 -188q-5 7 -27.5 22.5t-59.5 15.5q-26 0 -51 -13t-41 -48t-16 -103v-199h215v-211h-215v-610h-253v610h-148v211zM1035 0h-255v1376h255v-1376z" />
    <glyph glyph-name="f_f" unicode="ff" horiz-adv-x="1362" 
d="M24 821h148v223q0 122 48 200.5t124 117t157 38.5q99 0 152 -27t65 -39l-98 -188q-5 7 -27.5 22.5t-59.5 15.5q-26 0 -51 -13t-41 -48t-16 -103v-199h215v-211h-215v-610h-253v610h-148v211zM700 821h148v223q0 122 48 200.5t124 117t157 38.5q99 0 152 -27t65 -39
l-98 -188q-5 7 -27.5 22.5t-59.5 15.5q-26 0 -51 -13t-41 -48t-16 -103v-199h215v-211h-215v-610h-253v610h-148v211z" />
    <glyph glyph-name="f_f_i" unicode="ffi" horiz-adv-x="1861" 
d="M24 821h148v223q0 122 48 200.5t124 117t157 38.5q99 0 152 -27t65 -39l-98 -188q-5 7 -27.5 22.5t-59.5 15.5q-26 0 -51 -13t-41 -48t-16 -103v-199h215v-211h-215v-610h-253v610h-148v211zM700 821h148v223q0 122 48 200.5t124 117t157 38.5q99 0 152 -27t65 -39
l-98 -188q-5 7 -27.5 22.5t-59.5 15.5q-26 0 -51 -13t-41 -48t-16 -103v-199h215v-211h-215v-610h-253v610h-148v211zM1468 0v821h253v-821h-253zM1598 1033q-63 0 -106.5 44t-43.5 105t44 106t106 45q41 0 75 -20.5t55 -54.5t21 -76q0 -61 -44.5 -105t-106.5 -44z" />
    <glyph glyph-name="f_f_l" unicode="ffl" horiz-adv-x="1835" 
d="M24 821h148v223q0 122 48 200.5t124 117t157 38.5q99 0 152 -27t65 -39l-98 -188q-5 7 -27.5 22.5t-59.5 15.5q-26 0 -51 -13t-41 -48t-16 -103v-199h215v-211h-215v-610h-253v610h-148v211zM700 821h148v223q0 122 48 200.5t124 117t157 38.5q99 0 152 -27t65 -39
l-98 -188q-5 7 -27.5 22.5t-59.5 15.5q-26 0 -51 -13t-41 -48t-16 -103v-199h215v-211h-215v-610h-253v610h-148v211zM1711 0h-255v1376h255v-1376z" />
    <glyph glyph-name=".notdef" horiz-adv-x="757" 
d="M71 1320l137 -1027l479 -293l-137 1027zM134 64l109 927l381 265l-109 -927zM621 1320l-414 -1027l-71 -293l414 1027z" />
    <glyph glyph-name=".null" 
 />
    <glyph glyph-name="nonmarkingreturn" horiz-adv-x="666" 
 />
    <glyph glyph-name="CR" unicode="&#xd;" horiz-adv-x="1200" 
 />
    <glyph glyph-name="space" unicode=" " horiz-adv-x="518" 
 />
    <glyph glyph-name="exclam" unicode="!" horiz-adv-x="612" 
d="M205 406l-53 970h277l-53 -970h-171zM289 -24q-44 0 -81 22t-59.5 59t-22.5 82q0 69 48 117t115 48q69 0 117 -48t48 -117q0 -67 -48 -115t-117 -48z" />
    <glyph glyph-name="quotedbl" unicode="&#x22;" horiz-adv-x="796" 
d="M214 1332q50 0 86 -34.5t36 -76.5v-7q0 -18 -9.5 -64t-24 -107.5t-31 -127t-32.5 -122.5h-78q-11 57 -23 122.5t-22.5 127t-16.5 107.5t-6 64v7q0 42 35.5 76.5t85.5 34.5zM549 1332q51 0 86.5 -34.5t35.5 -76.5v-7q0 -18 -9 -64t-24 -107.5t-31.5 -127t-32.5 -122.5h-77
q-11 57 -23 122.5t-22.5 127t-16.5 107.5t-6 64v7q0 42 35.5 76.5t84.5 34.5z" />
    <glyph glyph-name="numbersign" unicode="#" horiz-adv-x="1306" 
d="M526 1320h173l-349 -1320h-172zM930 1320h172l-349 -1320h-172zM258 962h919l-51 -167h-918zM154 527h919l-51 -167h-918z" />
    <glyph glyph-name="dollar" unicode="$" horiz-adv-x="1095" 
d="M469 1534h148v-227h-148v227zM469 21h148v-227h-148v227zM548 1344q119 0 207.5 -26.5t141 -56.5t63.5 -39l-122 -203q-16 13 -54.5 36.5t-92.5 42t-117 18.5q-91 0 -145.5 -34.5t-54.5 -99.5q0 -44 29 -78.5t85.5 -64.5t138.5 -63q72 -28 137.5 -65t117 -87t82 -116
t30.5 -151q0 -95 -38.5 -166t-106 -119t-154.5 -72t-183 -24q-130 0 -233.5 30.5t-167.5 65.5t-75 45l128 211q12 -9 45.5 -29t82 -41t106 -36t117.5 -15q108 0 163 45t55 117q0 54 -35 95t-98.5 75.5t-151.5 70.5q-88 37 -163.5 86.5t-121.5 122t-46 178.5q0 105 59.5 183
t158 121t213.5 43z" />
    <glyph glyph-name="percent" unicode="%" horiz-adv-x="1552" 
d="M1091 1320h170l-814 -1320h-170zM63 1029q0 83 41.5 150t114.5 106.5t169 39.5q94 0 166.5 -39.5t114.5 -106.5t42 -150q0 -81 -41 -148t-113.5 -107.5t-168.5 -40.5q-98 0 -171 40.5t-113.5 107.5t-40.5 148zM238 1029q0 -68 41 -109t108 -41q64 0 105 40.5t41 109.5
q0 67 -41.5 109.5t-104.5 42.5q-65 0 -107 -42.5t-42 -109.5zM825 291q0 82 41.5 149t115 107t168.5 40q94 0 167 -40t115 -107t42 -149q0 -81 -41 -148.5t-114 -107.5t-169 -40q-97 0 -170.5 40t-114 107.5t-40.5 148.5zM1001 291q0 -68 41 -109t108 -41q63 0 104 40.5
t41 109.5q0 67 -41 109t-104 42q-65 0 -107 -42t-42 -109z" />
    <glyph glyph-name="ampersand" unicode="&#x26;" horiz-adv-x="1373" 
d="M44 346q0 77 29 136.5t74.5 103t95 73.5t93 47.5t67.5 24.5q-21 12 -48.5 39.5t-53 67t-42.5 88.5t-17 103q0 84 46.5 156t135.5 115.5t213 43.5q123 0 205.5 -42t125 -114t42.5 -163q0 -71 -31.5 -127.5t-78.5 -99t-93.5 -71.5t-78.5 -44l225 -242q25 21 69.5 72
t92.5 122l166 -149q-15 -24 -43 -61t-60.5 -74t-63.5 -63l274 -288h-315l-146 155q-51 -44 -117.5 -85t-150.5 -67.5t-190 -26.5q-115 0 -211.5 43t-155 126t-58.5 201zM526 581q-13 -5 -37.5 -16.5t-52.5 -29t-53 -42t-41 -55.5t-16 -70q0 -54 25 -89.5t67.5 -52.5
t94.5 -17q53 0 102 18t89.5 44t64.5 50zM636 1152q-48 0 -82 -18.5t-51 -47.5t-17 -60q0 -33 16 -68t37.5 -65t39.5 -49.5t21 -23.5q15 5 45 20.5t61.5 41.5t53.5 62t22 82q0 53 -39.5 89.5t-106.5 36.5z" />
    <glyph glyph-name="quotesingle" unicode="'" horiz-adv-x="471" 
d="M220 1332q50 0 85.5 -36.5t35.5 -102.5q0 -82 -31.5 -190.5t-64.5 -209.5h-78q-15 66 -31 138.5t-27 140.5t-11 121q0 67 36 103t86 36z" />
    <glyph glyph-name="parenleft" unicode="(" horiz-adv-x="637" 
d="M368 -413q-60 73 -124.5 204.5t-109.5 306.5t-45 377q0 156 27.5 298t72 262.5t96.5 213.5t99 149l153 -71q-49 -62 -102 -183.5t-89.5 -291.5t-36.5 -377q0 -194 33.5 -356.5t82.5 -280t94 -177.5z" />
    <glyph glyph-name="parenright" unicode=")" horiz-adv-x="637" 
d="M235 -413l-151 74q45 60 94 177.5t82.5 280t33.5 356.5q0 207 -36.5 377t-89.5 291.5t-102 183.5l153 71q48 -56 99.5 -149t96 -213.5t72 -262.5t27.5 -298q0 -202 -45 -377t-109.5 -306.5t-124.5 -204.5z" />
    <glyph glyph-name="asterisk" unicode="*" horiz-adv-x="835" 
d="M464 1178l186 60l38 -112l-195 -66l124 -156l-102 -73l-114 153l-115 -153l-103 73l128 156l-196 66l37 112l187 -60l1 195h123z" />
    <glyph glyph-name="plus" unicode="+" horiz-adv-x="1067" 
d="M623 560v-307h-208v307h-308v207h308v307h208v-307h305v-207h-305z" />
    <glyph glyph-name="comma" unicode="," horiz-adv-x="570" 
d="M269 306q70 0 119.5 -49t49.5 -139q0 -83 -34 -161t-90.5 -140t-122.5 -98l-75 81q33 17 71 46t69.5 66.5t43.5 79.5q-20 -11 -54 -11q-57 0 -100.5 44t-43.5 114q0 47 22.5 85t60.5 60t84 22z" />
    <glyph glyph-name="hyphen" unicode="-" horiz-adv-x="761" 
d="M107 347v217h515v-217h-515z" />
    <glyph glyph-name="period" unicode="." horiz-adv-x="612" 
d="M289 -24q-67 0 -115 48t-48 115q0 69 48 117t115 48q69 0 116.5 -48t47.5 -117q0 -67 -47.5 -115t-116.5 -48z" />
    <glyph glyph-name="slash" unicode="/" horiz-adv-x="977" 
d="M697 1376h205l-659 -1568h-205z" />
    <glyph glyph-name="zero" unicode="0" horiz-adv-x="1177" 
d="M52 659q0 174 43 302.5t117 213.5t167.5 127t194.5 42q102 0 195.5 -42t166.5 -127t115.5 -213.5t42.5 -302.5q0 -182 -42.5 -311.5t-115.5 -211.5t-166.5 -121t-195.5 -39q-101 0 -194.5 39t-167.5 121t-117 211.5t-43 311.5zM304 659q0 -156 34.5 -258.5t95.5 -152.5
t140 -50t139.5 50t95 153t34.5 258q0 150 -34.5 253t-95 156.5t-139.5 53.5t-140 -53.5t-95.5 -156.5t-34.5 -253z" />
    <glyph glyph-name="one" unicode="1" horiz-adv-x="638" 
d="M250 1005l-217 -118v239l343 194h124v-1320h-250v1005z" />
    <glyph glyph-name="two" unicode="2" horiz-adv-x="1120" 
d="M550 1130q-72 0 -127 -32.5t-92 -75.5t-56.5 -78t-21.5 -41l-215 98q2 11 19 48.5t53.5 87.5t95.5 97t144 78.5t200 31.5q128 0 215.5 -36t140 -96.5t76 -135t23.5 -150.5q0 -86 -36.5 -169t-95 -159.5t-125.5 -142t-128.5 -116t-105.5 -81.5t-54 -39h534v-219h-914v200
q21 16 78 58.5t133 103.5t156.5 133t150 148t113 149.5t43.5 136.5q0 110 -53 155.5t-151 45.5z" />
    <glyph glyph-name="three" unicode="3" horiz-adv-x="1060" 
d="M77 1077q9 33 39 79t82.5 88.5t130 71t181.5 28.5q126 0 220.5 -46.5t147 -128.5t52.5 -189q0 -70 -26.5 -128t-68 -96t-87.5 -48q51 -6 104 -45t89 -105t36 -157q0 -123 -60.5 -219t-167 -151t-244.5 -55q-140 0 -238.5 49t-157 120t-78.5 137l229 115q13 -44 44.5 -91
t82 -79.5t117.5 -32.5q71 0 121 28t77 76.5t27 110.5q0 65 -31.5 108t-82.5 63.5t-111 20.5h-26v182h34q52 0 96 21.5t70 62t26 95.5q0 75 -50 127t-147 52q-57 0 -98.5 -18.5t-68 -46t-41 -54t-17.5 -42.5z" />
    <glyph glyph-name="four" unicode="4" horiz-adv-x="1027" 
d="M814 1320v-822h153v-220h-153v-278h-249v278h-548v200l515 842h282zM565 498v487h-2l-292 -487h294z" />
    <glyph glyph-name="five" unicode="5" horiz-adv-x="1071" 
d="M271 341q8 -24 24.5 -50.5t43.5 -50t66 -38.5t93 -15q108 0 168.5 69.5t59.5 181.5q-1 107 -57 166t-151 59q-60 0 -104.5 -21.5t-72 -50.5t-38.5 -55l-210 75l115 709h710v-219h-498l-49 -312q5 8 32.5 26.5t75 34t111.5 15.5q98 0 186.5 -43.5t144.5 -135t57 -234.5
q0 -143 -59 -250.5t-165 -166.5t-247 -59q-105 0 -183.5 26t-132.5 67t-87 87t-48 87z" />
    <glyph glyph-name="six" unicode="6" horiz-adv-x="1116" 
d="M602 872q107 0 202.5 -54t156 -152.5t60.5 -232.5q0 -133 -65 -236t-174 -162t-241 -59q-134 0 -243 57t-173.5 162.5t-64.5 249.5q0 157 52 264.5t120 190.5l340 420h294l-418 -496q16 18 55 33t99 15zM541 182q68 0 123 33t88 88.5t33 123.5q0 67 -33 122t-88 88
t-123 33q-67 0 -122.5 -33t-88.5 -88t-33 -122q0 -68 33 -123.5t88.5 -88.5t122.5 -33z" />
    <glyph glyph-name="seven" unicode="7" horiz-adv-x="1071" 
d="M108 1320h912v-171l-654 -1149h-276l638 1101h-620v219z" />
    <glyph glyph-name="eight" unicode="8" horiz-adv-x="1112" 
d="M542 -24q-127 0 -233 50.5t-169 138.5t-63 200q0 94 31.5 161t86.5 112.5t121 73.5q-49 26 -91 63.5t-67 92.5t-25 133q0 104 55 181t147.5 119.5t205.5 42.5q114 0 205.5 -42.5t144.5 -119.5t53 -181q0 -117 -52 -183t-126 -106q66 -28 120 -73.5t86.5 -112.5t32.5 -161
q0 -112 -62.5 -200t-167.5 -138.5t-233 -50.5zM541 195q57 0 102.5 27t73.5 72.5t28 101.5t-28 102t-73.5 72.5t-102.5 26.5t-103 -27t-73.5 -72.5t-27.5 -101.5t27.5 -101.5t73.5 -72.5t103 -27zM542 792q48 0 88.5 24t64.5 65t24 90q0 48 -24.5 88t-64.5 64.5t-88 24.5
q-49 0 -89.5 -24.5t-65 -64.5t-24.5 -88q0 -49 24 -89.5t65 -65t90 -24.5z" />
    <glyph glyph-name="nine" unicode="9" horiz-adv-x="1115" 
d="M213 0l418 496q-16 -17 -55 -32.5t-99 -15.5q-106 0 -201.5 54t-156 152.5t-60.5 232.5q0 133 65 236t174 162t241 59q134 0 242.5 -57t173 -162.5t64.5 -249.5q0 -157 -51.5 -264.5t-119.5 -190.5l-341 -420h-294zM538 650q68 0 123 33t88.5 88.5t33.5 122.5t-33 122.5
t-88.5 88.5t-123.5 33q-67 0 -122.5 -33t-88 -88.5t-32.5 -122.5t32.5 -122.5t88 -88.5t122.5 -33z" />
    <glyph glyph-name="colon" unicode=":" horiz-adv-x="551" 
d="M275 -24q-67 0 -115 48t-48 115q0 69 48 117t115 48q69 0 116.5 -48t47.5 -117q0 -67 -47.5 -115t-116.5 -48zM275 578q-67 0 -115 48t-48 115q0 69 48 117t115 48q69 0 116.5 -48t47.5 -117q0 -67 -47.5 -115t-116.5 -48z" />
    <glyph glyph-name="semicolon" unicode=";" horiz-adv-x="561" 
d="M257 579q-67 0 -115 48t-48 115q0 69 48 117t115 48q69 0 116.5 -48t47.5 -117q0 -67 -47.5 -115t-116.5 -48zM256 306q70 0 119.5 -49t49.5 -139q0 -83 -34 -161t-90.5 -140t-122.5 -98l-75 81q33 17 71 46t69.5 66.5t43.5 79.5q-20 -11 -54 -11q-57 0 -100.5 44
t-43.5 114q0 47 22.5 85t60.5 60t84 22z" />
    <glyph glyph-name="less" unicode="&#x3c;" horiz-adv-x="1085" 
d="M948 194l-858 374v195l858 376v-223l-601 -251l601 -249v-222z" />
    <glyph glyph-name="equal" unicode="=" horiz-adv-x="1033" 
d="M101 744v208h800v-208h-800zM101 376v207h800v-207h-800z" />
    <glyph glyph-name="greater" unicode="&#x3e;" horiz-adv-x="1085" 
d="M95 194v222l601 249l-601 251v223l857 -376v-195z" />
    <glyph glyph-name="question" unicode="?" horiz-adv-x="950" 
d="M330 406v208q0 64 29.5 104t81.5 68q39 23 77 53t63.5 69t25.5 88q0 69 -46.5 102t-127.5 33q-59 0 -100.5 -25.5t-66.5 -61.5t-35 -67l-209 85q3 15 19.5 47.5t49.5 72.5t84.5 77t123 61t164.5 24q121 0 214.5 -38t146.5 -108t53 -166q0 -86 -40 -149t-97.5 -108.5
t-108.5 -78.5q-48 -28 -64.5 -63t-16.5 -94v-133h-220zM443 -24q-67 0 -115 48t-48 115q0 69 48 117t115 48q69 0 117 -48t48 -117q0 -67 -48 -115t-117 -48z" />
    <glyph glyph-name="at" unicode="@" horiz-adv-x="1528" 
d="M752 -24q-147 0 -274.5 49.5t-224 140.5t-151 216.5t-54.5 278.5q0 152 57.5 277.5t158 216.5t231 140t277.5 49q140 0 267 -46t225.5 -130.5t155.5 -201.5t57 -259q0 -122 -50 -200t-125 -115.5t-151 -37.5q-71 0 -114.5 32.5t-59.5 77.5q-12 -32 -43.5 -65t-86 -55
t-135.5 -22q-96 0 -170 45.5t-116.5 121.5t-42.5 167t39 162.5t109 113t162 41.5q51 0 92.5 -15t73.5 -37t52 -44v75h161v-338q0 -18 5.5 -40.5t23 -39t51.5 -16.5t63.5 20.5t48 64.5t18.5 113q0 97 -38.5 179t-107 143.5t-161.5 95.5t-203 34q-108 0 -203.5 -39
t-168.5 -108.5t-115 -161.5t-42 -198t39.5 -196t109.5 -157t162.5 -104.5t197.5 -37.5q81 0 145.5 19.5t108.5 47.5t63 53l161 -137q-28 -37 -93.5 -77t-162 -68t-222.5 -28zM752 491q73 0 116.5 48.5t43.5 115.5q0 45 -22 80t-58 55t-80 20q-71 0 -117 -45.5t-46 -112.5
q0 -68 44.5 -114.5t118.5 -46.5z" />
    <glyph glyph-name="A" unicode="A" horiz-adv-x="1296" 
d="M511 1320h251l508 -1320h-266l-103 285h-528l-105 -285h-267zM455 506h364l-181 512h-3z" />
    <glyph glyph-name="B" unicode="B" horiz-adv-x="1098" 
d="M98 1320h420q111 0 207 -30t155.5 -100t59.5 -191q0 -81 -31 -145t-79 -104.5t-101 -51.5q45 -5 92 -27t87 -61t64.5 -98t24.5 -138q0 -110 -47.5 -194.5t-140 -132t-229.5 -47.5h-482v1320zM348 202h181q76 0 121.5 25t65.5 68t20 98q0 88 -56 135t-159 47h-173v-373z
M348 773h159q62 0 102.5 24.5t61.5 66t21 90.5q0 94 -54.5 129t-147.5 35h-142v-345z" />
    <glyph glyph-name="C" unicode="C" horiz-adv-x="1279" 
d="M770 223q104 0 185 29.5t119 58.5l107 -213q-46 -40 -158.5 -81t-268.5 -41q-146 0 -273 51.5t-223 144t-150 217t-54 269.5t53.5 270.5t149.5 218.5t223.5 145t273.5 52q156 0 268.5 -41t158.5 -81l-107 -213q-38 29 -119 58.5t-185 29.5q-106 0 -188.5 -34t-140 -94.5
t-87.5 -139.5t-30 -168q0 -90 30 -169.5t87.5 -140t140 -94.5t188.5 -34z" />
    <glyph glyph-name="D" unicode="D" horiz-adv-x="1177" 
d="M94 1320h364q211 0 348.5 -84.5t205.5 -233.5t68 -341q0 -193 -68 -342t-205.5 -234t-348.5 -85h-364v1320zM342 1097v-874h94q129 0 212.5 56.5t125 155.5t41.5 224q1 126 -40 225t-125.5 156t-213.5 57h-94z" />
    <glyph glyph-name="E" unicode="E" horiz-adv-x="1062" 
d="M94 1320h819v-221h-571v-330h563v-214h-563v-334h571v-221h-819v1320z" />
    <glyph glyph-name="F" unicode="F" horiz-adv-x="941" 
d="M98 1320h734v-221h-484v-327h449v-220h-449v-552h-250v1320z" />
    <glyph glyph-name="G" unicode="G" horiz-adv-x="1458" 
d="M699 730h670v-79q0 -141 -47.5 -263.5t-135.5 -215t-208.5 -144.5t-265.5 -52q-149 0 -272 53t-212 147t-137.5 218.5t-48.5 266.5q0 141 48.5 265.5t137.5 218t212 146.5t272 53q115 0 205 -25t157.5 -67.5t117 -94t82.5 -103.5l-234 -114q-48 70 -127.5 120t-200.5 50
q-90 0 -165.5 -35.5t-130 -97.5t-84.5 -143.5t-30 -172.5q0 -92 30 -173t84.5 -143.5t130 -97.5t165.5 -35q82 0 149 24t116.5 68t78.5 103.5t33 128.5h-390v194z" />
    <glyph glyph-name="H" unicode="H" horiz-adv-x="1263" 
d="M866 552h-524v-552h-248v1320h248v-548h524v548h248v-1320h-248v552z" />
    <glyph glyph-name="I" unicode="I" horiz-adv-x="513" 
d="M106 1320h250v-1320h-250v1320z" />
    <glyph glyph-name="J" unicode="J" horiz-adv-x="804" 
d="M681 404q0 -134 -47 -230t-136 -147t-214 -51q-93 0 -159.5 24.5t-105 53.5t-47.5 43l97 216q12 -17 35 -39.5t59 -39t86 -16.5q58 0 98.5 25t62 76.5t21.5 128.5v872h250v-916z" />
    <glyph glyph-name="K" unicode="K" horiz-adv-x="1102" 
d="M552 676l516 -676h-299l-439 590v-590h-250v1320h250v-565l407 565h283z" />
    <glyph glyph-name="L" unicode="L" horiz-adv-x="956" 
d="M98 1320h250v-1099h495v-221h-745v1320z" />
    <glyph glyph-name="M" unicode="M" horiz-adv-x="1579" 
d="M1418 1320v-1320h-249v845l12 192l-45 -218l-259 -725h-246l-258 725l-44 218l11 -192v-845h-250v1320h346l302 -941l16 -90l16 90l303 941h345z" />
    <glyph glyph-name="N" unicode="N" horiz-adv-x="1411" 
d="M326 1089l17 -3v-1086h-249v1320h344l592 -1084l-17 -4v1088h249v-1320h-346z" />
    <glyph glyph-name="O" unicode="O" horiz-adv-x="1469" 
d="M302 661q0 -126 52.5 -228t144.5 -161.5t213 -59.5t213.5 59.5t144.5 161.5t52 228t-52 227.5t-144.5 161.5t-213.5 60t-213 -60t-144.5 -161.5t-52.5 -227.5zM42 661q0 144 50.5 268.5t141.5 217.5t213.5 145t264.5 52q144 0 266 -52t212.5 -145t140.5 -217.5t50 -268.5
q0 -145 -49 -269.5t-139 -218t-212 -145.5t-269 -52q-149 0 -271.5 52t-212 145.5t-138 218t-48.5 269.5z" />
    <glyph glyph-name="P" unicode="P" horiz-adv-x="1079" 
d="M99 1320h439q125 0 226.5 -43t161.5 -131.5t60 -225.5q0 -136 -60 -229t-161.5 -140.5t-226.5 -47.5h-190v-503h-249v1320zM348 704h121q70 0 126.5 20.5t90.5 66.5t34 123q0 78 -34 122.5t-90.5 64t-126.5 19.5h-121v-416z" />
    <glyph glyph-name="Q" unicode="Q" horiz-adv-x="1443" 
d="M1070 -51q57 0 101.5 13.5t71.5 28t31 19.5l89 -168q-28 -42 -102 -83t-190 -41q-72 0 -123 16.5t-94.5 38t-93.5 38t-120 16.5q-62 0 -109 -20t-74.5 -40t-29.5 -24l-108 126q63 66 156.5 108.5t214.5 42.5q81 0 142 -18t117 -35.5t121 -17.5zM302 661q0 -126 52.5 -228
t144.5 -161.5t213 -59.5t213.5 59.5t144.5 161.5t52 228t-52 227.5t-144.5 161.5t-213.5 60t-213 -60t-144.5 -161.5t-52.5 -227.5zM42 661q0 144 50.5 268.5t141.5 217.5t213.5 145t264.5 52q144 0 266 -52t212.5 -145t140.5 -217.5t50 -268.5q0 -145 -49 -269.5t-139 -218
t-212 -145.5t-269 -52q-149 0 -271.5 52t-212 145.5t-138 218t-48.5 269.5z" />
    <glyph glyph-name="R" unicode="R" horiz-adv-x="1154" 
d="M90 1320h508q112 0 201 -46.5t141.5 -135t52.5 -213.5q0 -124 -46 -203.5t-110.5 -119.5t-119.5 -46l324 -556h-282l-293 537h-127v-537h-249v1320zM339 713h170q95 0 161.5 47t66.5 158t-66 156.5t-160 45.5h-172v-407z" />
    <glyph glyph-name="S" unicode="S" horiz-adv-x="1095" 
d="M548 1344q119 0 207.5 -26.5t141 -56.5t63.5 -39l-122 -203q-16 13 -54.5 36.5t-92.5 42t-117 18.5q-91 0 -145.5 -34.5t-54.5 -99.5q0 -44 29 -78.5t85.5 -64.5t138.5 -63q72 -28 137.5 -65t117 -87t82 -116t30.5 -151q0 -95 -38.5 -166t-106 -119t-154.5 -72t-183 -24
q-130 0 -233.5 30.5t-167.5 65.5t-75 45l128 211q12 -9 45.5 -29t82 -41t106 -36t117.5 -15q108 0 163 45t55 117q0 54 -35 95t-98.5 75.5t-151.5 70.5q-88 37 -163.5 86.5t-121.5 122t-46 178.5q0 105 59.5 183t158 121t213.5 43z" />
    <glyph glyph-name="T" unicode="T" horiz-adv-x="1008" 
d="M350 1099h-331v221h911v-221h-330v-1099h-250v1099z" />
    <glyph glyph-name="U" unicode="U" horiz-adv-x="1262" 
d="M880 1320h250v-814q0 -163 -64.5 -282t-181 -183.5t-274.5 -64.5q-159 0 -276.5 64.5t-182 183.5t-64.5 282v814h249v-801q0 -100 34.5 -170.5t96.5 -107t143 -36.5q80 0 141 36.5t95 107t34 170.5v801z" />
    <glyph glyph-name="V" unicode="V" horiz-adv-x="1311" 
d="M771 0h-285l-475 1320h281l337 -1006l337 1006h281z" />
    <glyph glyph-name="W" unicode="W" horiz-adv-x="1760" 
d="M1371 0h-304l-245 998h46l-246 -998h-305l-292 1320h286l175 -992h-3l262 992h199l263 -992h-4l176 992h286z" />
    <glyph glyph-name="X" unicode="X" horiz-adv-x="1346" 
d="M804 710l490 -710h-325l-333 503l-326 -503h-301l469 710l-425 610h317l276 -417l272 417h304z" />
    <glyph glyph-name="Y" unicode="Y" horiz-adv-x="1164" 
d="M429 475l-451 845h303l272 -558l273 558h301l-448 -845v-475h-250v475z" />
    <glyph glyph-name="Z" unicode="Z" horiz-adv-x="1228" 
d="M114 1320h1035l-689 -1099h646v-221h-1085l689 1099h-596v221z" />
    <glyph glyph-name="bracketleft" unicode="[" horiz-adv-x="706" 
d="M97 -416v1792h481v-184h-279v-1424h279v-184h-481z" />
    <glyph glyph-name="backslash" unicode="\" horiz-adv-x="977" 
d="M908 0h-206l-659 1376h205z" />
    <glyph glyph-name="bracketright" unicode="]" horiz-adv-x="706" 
d="M91 -416v184h279v1424h-279v184h481v-1792h-481z" />
    <glyph glyph-name="asciicircum" unicode="^" horiz-adv-x="848" 
d="M801 968h-218l-174 209l-173 -209h-219l327 376h130z" />
    <glyph glyph-name="underscore" unicode="_" horiz-adv-x="834" 
d="M13 -181v148h801v-148h-801z" />
    <glyph glyph-name="grave" unicode="`" horiz-adv-x="675" 
d="M468 953l-365 217l127 159l318 -269z" />
    <glyph glyph-name="a" unicode="a" horiz-adv-x="1104" 
d="M738 0v143q-9 -22 -46 -62t-99.5 -72.5t-146.5 -32.5q-118 0 -209 56.5t-142.5 155t-51.5 222.5t51.5 222.5t142.5 155.5t209 57q82 0 142.5 -27.5t98 -64t48.5 -65.5v133h252v-821h-249zM292 410q0 -69 31 -121.5t82 -81.5t111 -29q63 0 112 29.5t77.5 82t28.5 120.5
t-28.5 120.5t-77.5 82.5t-112 30q-60 0 -111 -29.5t-82 -82t-31 -121.5z" />
    <glyph glyph-name="b" unicode="b" horiz-adv-x="1090" 
d="M88 0v1376h254v-688q8 29 47 66t103.5 64t146.5 27q118 0 206.5 -57t138 -155.5t49.5 -222.5t-49.5 -222.5t-138 -155t-206.5 -56.5q-73 0 -135.5 27t-105 66t-59.5 74v-143h-251zM783 410q0 69 -29 121.5t-78 82t-109 29.5q-63 0 -114 -30t-81 -82.5t-30 -120.5
t30 -120.5t81 -82t114 -29.5q60 0 109 29t78 81.5t29 121.5z" />
    <glyph glyph-name="c" unicode="c" horiz-adv-x="843" 
d="M515 178q65 0 106 22t54 33l118 -175q-14 -11 -52 -31t-96.5 -35.5t-133.5 -15.5q-130 0 -233 52.5t-162.5 150t-59.5 232.5q0 136 59.5 233t162.5 149t233 52q74 0 131.5 -16t96.5 -36.5t54 -33.5l-121 -176q-7 8 -27 22t-52.5 26t-77.5 12q-55 0 -104.5 -29t-80.5 -81
t-31 -122t31 -122.5t80.5 -81.5t104.5 -29z" />
    <glyph glyph-name="d" unicode="d" horiz-adv-x="1090" 
d="M448 -24q-117 0 -205.5 56.5t-138 155t-49.5 222.5t49.5 222.5t138 155.5t205.5 57q83 0 147.5 -27t103.5 -64t46 -66v688h255v-1376h-252v143q-16 -35 -59 -74t-105 -66t-136 -27zM520 178q64 0 115 29.5t80.5 82t29.5 120.5t-29.5 120.5t-80.5 82.5t-115 30
q-59 0 -108 -29.5t-78.5 -82t-29.5 -121.5t29.5 -121.5t78.5 -81.5t108 -29z" />
    <glyph glyph-name="e" unicode="e" horiz-adv-x="979" 
d="M281 354q3 -56 30 -100t78.5 -69t123.5 -25q65 0 114.5 16t84 39.5t51.5 45.5l105 -156q-28 -35 -74.5 -64.5t-118 -47t-178.5 -17.5q-135 0 -237 53t-159 153t-57 238q0 120 51 216.5t148.5 152.5t234.5 56q129 0 223.5 -49.5t146.5 -144.5t52 -232q0 -8 -0.5 -32.5
t-2.5 -32.5h-616zM662 511q-1 32 -19.5 69t-57.5 63t-104 26t-106.5 -25t-62.5 -61.5t-24 -71.5h374z" />
    <glyph glyph-name="f" unicode="f" horiz-adv-x="686" 
d="M24 821h148v223q0 122 48 200.5t124 117t157 38.5q99 0 152 -27t65 -39l-98 -188q-5 7 -27.5 22.5t-59.5 15.5q-26 0 -51 -13t-41 -48t-16 -103v-199h215v-211h-215v-610h-253v610h-148v211z" />
    <glyph glyph-name="g" unicode="g" horiz-adv-x="1108" 
d="M508 -439q-90 0 -172.5 17t-149.5 53t-112 94l154 156q21 -27 54.5 -54.5t85.5 -46t130 -18.5q74 0 127.5 28.5t83 80.5t29.5 121v23h249v-38q0 -136 -64 -229t-172 -140t-243 -47zM738 0v143q-9 -22 -46 -62t-99.5 -72.5t-146.5 -32.5q-118 0 -209 56.5t-142.5 155
t-51.5 222.5t51.5 222.5t142.5 155.5t209 57q82 0 142.5 -27.5t98 -64t48.5 -65.5v133h252v-821h-249zM292 410q0 -69 31 -121.5t82 -81.5t111 -29q63 0 112 29.5t77.5 82t28.5 120.5t-28.5 120.5t-77.5 82.5t-112 30q-60 0 -111 -29.5t-82 -82t-31 -121.5z" />
    <glyph glyph-name="h" unicode="h" horiz-adv-x="1079" 
d="M623 845q84 0 164 -34.5t131.5 -109.5t51.5 -196v-505h-255v461q0 101 -45.5 150t-121.5 49q-51 0 -97.5 -27.5t-76 -76t-29.5 -110.5v-446h-255v1376h255v-686q10 34 49 70t99 60.5t130 24.5z" />
    <glyph glyph-name="i" unicode="i" horiz-adv-x="499" 
d="M106 0v821h253v-821h-253zM236 1033q-63 0 -106.5 44t-43.5 105t44 106t106 45q41 0 75 -20.5t55 -54.5t21 -76q0 -61 -44.5 -105t-106.5 -44z" />
    <glyph glyph-name="j" unicode="j" horiz-adv-x="515" 
d="M84 -440q-81 0 -134.5 16.5t-79.5 33.5l83 190q15 -12 32.5 -18.5t44.5 -6.5q34 0 54.5 19.5t29.5 56.5t9 89v881h254v-927q0 -96 -29.5 -171.5t-94 -119t-169.5 -43.5zM254 1033q-62 0 -106 44t-44 105q0 41 20.5 75t54.5 55t75 21t75 -20.5t54.5 -54.5t20.5 -76
q0 -61 -44 -105t-106 -44z" />
    <glyph glyph-name="k" unicode="k" horiz-adv-x="962" 
d="M630 821h292l-401 -392l437 -429h-299l-341 343v-343h-254v1376h254v-856z" />
    <glyph glyph-name="l" unicode="l" horiz-adv-x="473" 
d="M349 0h-255v1376h255v-1376z" />
    <glyph glyph-name="m" unicode="m" horiz-adv-x="1581" 
d="M1166 845q92 0 160.5 -39t107 -119.5t38.5 -206.5v-480h-250v439q0 104 -30.5 162t-115.5 58q-48 0 -88 -25.5t-63.5 -74.5t-23.5 -120v-439h-234v439q0 104 -35 162t-111 58q-49 0 -88.5 -25t-62 -73.5t-22.5 -121.5v-439h-252v821h252v-120q11 31 50.5 64t98.5 56.5
t127 23.5q74 0 123 -25t79.5 -63.5t46.5 -80.5q14 39 55 78t103 65t135 26z" />
    <glyph glyph-name="n" unicode="n" horiz-adv-x="1068" 
d="M616 845q84 0 164 -34.5t131.5 -109.5t51.5 -196v-505h-255v461q0 101 -47.5 150t-124.5 49q-50 0 -95.5 -27.5t-74 -76t-28.5 -110.5v-446h-254v821h254v-131q11 34 50 70t99 60.5t129 24.5z" />
    <glyph glyph-name="o" unicode="o" horiz-adv-x="1021" 
d="M495 -24q-131 0 -233.5 56t-160.5 153.5t-58 222.5t58 223.5t160.5 156t233.5 57.5q132 0 233 -57.5t158 -156t57 -223.5t-57 -222.5t-158 -153.5t-233 -56zM495 187q63 0 109.5 28.5t72 79t25.5 114.5t-25.5 115t-72 80.5t-109.5 29.5t-109.5 -29.5t-72.5 -80.5
t-26 -115t26 -114.5t72.5 -79t109.5 -28.5z" />
    <glyph glyph-name="p" unicode="p" horiz-adv-x="1109" 
d="M344 -416h-252v1237h255v-133q12 29 52 66t104.5 64t147.5 27q117 0 204 -57t134.5 -155.5t47.5 -222.5t-50 -222.5t-139 -155t-207 -56.5q-89 0 -153 32t-100 72t-44 63v-559zM788 410q0 69 -29.5 121.5t-78.5 82t-109 29.5q-63 0 -114 -30t-80.5 -82.5t-29.5 -120.5
t29.5 -120.5t80.5 -82t114 -29.5q60 0 109 29t78.5 81.5t29.5 121.5z" />
    <glyph glyph-name="q" unicode="q" horiz-adv-x="1109" 
d="M766 -416v559q-7 -23 -44 -63t-100.5 -72t-153.5 -32q-117 0 -206.5 56.5t-139.5 155t-50 222.5t47.5 222.5t134.5 155.5t204 57q84 0 148 -27t104.5 -64t52.5 -66v133h254v-1237h-251zM538 178q64 0 114.5 29.5t80.5 82t30 120.5t-30 120.5t-80.5 82.5t-114.5 30
q-59 0 -108.5 -29.5t-79 -82t-29.5 -121.5t29.5 -121.5t79 -81.5t108.5 -29z" />
    <glyph glyph-name="r" unicode="r" horiz-adv-x="757" 
d="M329 0h-254v821h254v-133h-5q7 24 38.5 61t87.5 66.5t135 29.5q57 0 103.5 -16.5t66.5 -32.5l-100 -208q-13 16 -48.5 33t-88.5 17q-63 0 -105 -34.5t-63 -84t-21 -92.5v-427z" />
    <glyph glyph-name="s" unicode="s" horiz-adv-x="839" 
d="M437 845q74 0 137 -13.5t106.5 -30.5t57.5 -29l-87 -153q-20 16 -71.5 38t-114.5 22q-57 0 -96 -19.5t-39 -58.5t42 -62t117 -40q63 -13 124 -39.5t101 -76t40 -131.5q0 -81 -34.5 -134.5t-91.5 -84.5t-125 -44t-135 -13q-87 0 -153 16.5t-108.5 38t-60.5 36.5l87 170
q26 -23 85.5 -50.5t128.5 -27.5q72 0 113.5 25t41.5 67q0 31 -20 50.5t-55 32.5t-82 23q-43 9 -88 26.5t-84 46.5t-63 72.5t-24 104.5q0 78 50 130.5t130 80t171 27.5z" />
    <glyph glyph-name="t" unicode="t" horiz-adv-x="702" 
d="M22 821h148v337h252v-337h194v-211h-194v-297q0 -59 19 -91.5t60 -32.5q31 0 51 12.5t24 17.5l90 -182q-6 -6 -38.5 -21t-83 -27.5t-113.5 -12.5q-113 0 -187 65.5t-74 203.5v365h-148v211z" />
    <glyph glyph-name="u" unicode="u" horiz-adv-x="1068" 
d="M332 428q0 -110 44 -175.5t142 -65.5q99 0 143 65.5t44 175.5v393h250v-422q0 -127 -51 -222.5t-148.5 -148t-237.5 -52.5q-139 0 -236.5 52.5t-148.5 148t-51 222.5v422h250v-393z" />
    <glyph glyph-name="v" unicode="v" horiz-adv-x="1054" 
d="M15 821h272l225 -589l225 589h271l-347 -821h-298z" />
    <glyph glyph-name="w" unicode="w" horiz-adv-x="1408" 
d="M689 529l-198 -529h-241l-253 821h270l138 -548l195 532h179l193 -532l139 548h270l-252 -821h-241z" />
    <glyph glyph-name="x" unicode="x" horiz-adv-x="1057" 
d="M660 438l351 -438h-284l-221 281l-220 -281h-266l351 420l-315 401h286l179 -239l186 239h261z" />
    <glyph glyph-name="y" unicode="y" horiz-adv-x="989" 
d="M478 223l243 598h251l-561 -1237h-255l189 416l-341 821h254z" />
    <glyph glyph-name="z" unicode="z" horiz-adv-x="877" 
d="M66 821h776l-441 -640h413v-181h-810l441 641h-379v180z" />
    <glyph glyph-name="braceleft" unicode="{" horiz-adv-x="720" 
d="M98 561q59 0 88.5 30.5t29.5 85.5v443q0 67 22 125.5t74.5 94.5t140.5 36h137v-188h-76q-49 0 -73 -24t-24 -76v-437q0 -68 -27.5 -110.5t-92.5 -61.5q67 -19 93.5 -62.5t26.5 -107.5v-437q0 -46 21 -73t76 -27h76v-188h-137q-88 0 -140.5 36t-74.5 94.5t-22 125.5v443
q0 55 -29.5 86t-88.5 31v161z" />
    <glyph glyph-name="bar" unicode="|" horiz-adv-x="423" 
d="M314 -251h-227v1668h227v-1668z" />
    <glyph glyph-name="braceright" unicode="}" horiz-adv-x="768" 
d="M131 -416v188h76q55 0 76 27t21 73v437q0 64 26.5 107.5t93.5 62.5q-65 19 -92.5 61.5t-27.5 110.5v437q0 52 -24 76t-73 24h-76v188h137q89 0 140.5 -36t74 -94.5t22.5 -125.5v-443q0 -55 29.5 -85.5t87.5 -30.5v-161q-58 0 -87.5 -31t-29.5 -86v-443
q0 -67 -22.5 -125.5t-74 -94.5t-140.5 -36h-137z" />
    <glyph glyph-name="asciitilde" unicode="~" horiz-adv-x="1164" 
d="M1044 718q-26 -47 -71.5 -97.5t-103.5 -85.5t-123 -35q-61 0 -108 21.5t-85.5 49t-73.5 48.5t-73 21q-37 0 -69 -19t-57 -47t-40 -53l-151 91q26 47 71.5 97t103.5 85t123 35q63 0 110 -21t85 -48.5t73 -48.5t73 -21q37 0 69.5 19t58 46.5t39.5 53.5z" />
    <glyph glyph-name="uni00A0" unicode="&#xa0;" horiz-adv-x="518" 
 />
    <glyph glyph-name="exclamdown" unicode="&#xa1;" horiz-adv-x="612" 
d="M168 -54l53 970h171l53 -970h-277zM305 1018q-67 0 -115 48t-48 117q0 45 22.5 82t59.5 59t81 22q69 0 117 -47.5t48 -115.5q0 -69 -48 -117t-117 -48z" />
    <glyph glyph-name="cent" unicode="&#xa2;" horiz-adv-x="843" 
d="M411 1018h149v-228h-149v228zM411 21h149v-227h-149v227zM515 178q65 0 106 22t54 33l118 -175q-14 -11 -52 -31t-96.5 -35.5t-133.5 -15.5q-130 0 -233 52.5t-162.5 150t-59.5 232.5q0 136 59.5 233t162.5 149t233 52q74 0 131.5 -16t96.5 -36.5t54 -33.5l-121 -176
q-7 8 -27 22t-52.5 26t-77.5 12q-55 0 -104.5 -29t-80.5 -81t-31 -122t31 -122.5t80.5 -81.5t104.5 -29z" />
    <glyph glyph-name="sterling" unicode="&#xa3;" horiz-adv-x="1218" 
d="M270 620q-10 17 -25 50.5t-30 78t-25 95t-10 101.5q0 111 48.5 202.5t144.5 145t241 53.5q131 0 221 -47t142 -114t67 -130l-206 -104q-8 42 -34 86.5t-71 75.5t-110 31q-95 0 -146.5 -55.5t-51.5 -153.5q0 -39 10 -86t24.5 -93t28.5 -82.5t22 -53.5q32 -78 44 -133
t12 -107q0 -43 -11 -81t-15 -47q26 -3 53.5 -16t57.5 -28t64.5 -27t73.5 -12q43 0 70.5 21t42.5 47t17 42l203 -75q-13 -49 -51.5 -102t-101 -89.5t-151.5 -36.5q-74 0 -130.5 17t-105 39t-97.5 39t-108 17q-33 0 -58.5 -16.5t-41 -37t-19.5 -34.5h-183q2 72 38.5 132.5
t94.5 97t124 36.5q10 16 17 42.5t7 63.5q0 49 -23.5 113t-62.5 135zM90 639h740v-148h-740v148z" />
    <glyph glyph-name="currency" unicode="&#xa4;" horiz-adv-x="1023" 
d="M893 1052l105 -105l-161 -161l-104 106zM189 348l104 -106l-161 -160l-105 104zM132 1052l161 -160l-104 -106l-162 161zM837 348l161 -162l-105 -104l-160 160zM514 136q-132 0 -234 56t-160.5 153.5t-58.5 222.5t58.5 223.5t160.5 156t234 57.5q131 0 232 -57.5
t158 -156t57 -223.5t-57 -222.5t-158 -153.5t-232 -56zM514 347q63 0 109.5 28.5t71.5 79t25 114.5t-25 115t-71.5 80.5t-109.5 29.5t-110 -29.5t-73 -80.5t-26 -115t26 -114.5t73 -79t110 -28.5z" />
    <glyph glyph-name="yen" unicode="&#xa5;" horiz-adv-x="1164" 
d="M79 670h950v-159h-950v159zM79 384h950v-159h-950v159zM429 475l-451 845h303l272 -558l273 558h301l-448 -845v-475h-250v475z" />
    <glyph glyph-name="brokenbar" unicode="&#xa6;" horiz-adv-x="423" 
d="M297 845h-202v531h202v-531zM297 0h-202v531h202v-531z" />
    <glyph glyph-name="section" unicode="&#xa7;" horiz-adv-x="1078" 
d="M473 -440q-126 0 -212.5 45t-135.5 110t-64 126l223 62q8 -30 31 -62t62.5 -54.5t95.5 -22.5q64 0 101.5 17.5t53.5 47.5t16 69q0 45 -30 80t-91 65.5t-151 64.5q-153 55 -228 135t-75 200q0 73 41 134t96.5 101.5t100.5 53.5q-49 35 -88 77t-62 95.5t-23 120.5
q0 86 47 158t137.5 116.5t220.5 44.5q116 0 196 -43t125.5 -105.5t57.5 -120.5l-213 -56q-8 26 -29.5 54.5t-55 48t-78.5 19.5q-71 0 -112.5 -31t-41.5 -78q0 -44 25.5 -78.5t79 -64t137.5 -61.5q100 -37 177 -85t121 -113.5t44 -156.5q0 -72 -29.5 -128t-80 -96.5
t-111.5 -67.5q77 -45 116.5 -115.5t39.5 -162.5q0 -67 -26.5 -128.5t-80.5 -110t-135.5 -76.5t-191.5 -28zM446 647q-38 -11 -71.5 -32.5t-54.5 -53.5t-21 -74q0 -60 58 -101t132 -72q35 -14 65 -27.5t46 -20.5q33 9 66 29.5t55 53t22 77.5q0 39 -32 73t-82.5 63t-107.5 53
q-8 3 -25.5 10.5t-33 14t-16.5 7.5z" />
    <glyph glyph-name="dieresis" unicode="&#xa8;" horiz-adv-x="952" 
d="M659 987q-55 0 -93.5 39t-38.5 92q0 54 38.5 93t93.5 39q53 0 92 -39t39 -93t-39 -92.5t-92 -38.5zM261 987q-55 0 -93 39t-38 92q0 54 38 93t93 39q54 0 92.5 -39t38.5 -93t-38.5 -92.5t-92.5 -38.5z" />
    <glyph glyph-name="copyright" unicode="&#xa9;" horiz-adv-x="1496" 
d="M48 659q0 142 53 266t147.5 218t218 147.5t264.5 53.5q142 0 266 -53.5t218 -147.5t147.5 -218t53.5 -266q0 -141 -53.5 -264.5t-147.5 -218t-218 -147.5t-266 -53q-141 0 -264.5 53t-218 147.5t-147.5 218t-53 264.5zM198 659q0 -109 41.5 -206t115 -170.5t170 -115
t207.5 -41.5q110 0 207 41.5t170.5 115t115.5 170.5t42 206q0 110 -42 207t-115.5 171t-170.5 115.5t-207 41.5t-207 -41.5t-170.5 -115.5t-115 -171t-41.5 -207zM767 823q36 0 70 -12t41 -18l58 120q-3 3 -52.5 28t-143.5 25q-87 0 -160.5 -41.5t-117.5 -112.5t-44 -159
q0 -85 44 -154.5t117.5 -111t160.5 -41.5q51 0 92.5 11t69 23.5t34.5 16.5l-59 120q-9 -8 -39 -18.5t-70 -10.5q-70 0 -116 47.5t-46 120.5q0 72 45.5 119.5t115.5 47.5z" />
    <glyph glyph-name="ordfeminine" unicode="&#xaa;" horiz-adv-x="842" 
d="M118 1074q0 77 33.5 138t90.5 96.5t130 35.5q59 0 101.5 -21t68.5 -49v55l152 -1v-507h-150v62h-2q-14 -17 -38 -35.5t-57 -30t-75 -11.5q-73 0 -130 35t-90.5 96t-33.5 137zM279 1074q0 -61 38 -99t93 -38q58 0 96.5 39t38.5 98q0 60 -40 99t-95 39q-53 0 -92 -38
t-39 -100z" />
    <glyph glyph-name="guillemotleft" unicode="&#xab;" horiz-adv-x="992" 
d="M482 154l-123 -99l-306 390l306 389l123 -97l-229 -292zM875 154l-125 -99l-304 390l304 389l125 -97l-229 -292z" />
    <glyph glyph-name="logicalnot" unicode="&#xac;" horiz-adv-x="975" 
d="M824 564v-429h-217v212h-500v217h717z" />
    <glyph glyph-name="uni00AD" unicode="&#xad;" horiz-adv-x="761" 
d="M107 347v217h515v-217h-515z" />
    <glyph glyph-name="registered" unicode="&#xae;" horiz-adv-x="844" 
d="M48 984q0 99 48.5 180.5t129.5 130.5t179 49q100 0 181.5 -49t130 -130.5t48.5 -180.5q0 -98 -48.5 -179.5t-130 -129.5t-181.5 -48q-98 0 -179 48t-129.5 129.5t-48.5 179.5zM138 984q0 -74 36 -134.5t97 -96.5t134 -36q76 0 137 36t97.5 96.5t36.5 134.5
q0 75 -36.5 136t-97.5 97.5t-137 36.5q-73 0 -134 -36.5t-97 -97.5t-36 -136zM300 1152h113q47 0 77.5 -25t30.5 -73q0 -38 -18.5 -61.5t-48.5 -34.5l108 -137h-88l-93 131h-11v-131h-70v331zM370 1003h14q23 0 43.5 7.5t20.5 38.5q0 34 -22.5 39.5t-43.5 5.5h-12v-91z" />
    <glyph glyph-name="macron" unicode="&#xaf;" horiz-adv-x="931" 
d="M137 1028v164h627v-164h-627z" />
    <glyph glyph-name="degree" unicode="&#xb0;" horiz-adv-x="611" 
d="M116 1235q0 70 50.5 113t123.5 43q72 0 122 -43t50 -113q0 -68 -48 -112t-124 -44q-77 0 -125.5 44t-48.5 112zM217 1235q0 -31 20.5 -53.5t52.5 -22.5q31 0 52.5 22.5t21.5 53.5q0 32 -21.5 53.5t-52.5 21.5q-30 0 -51.5 -21.5t-21.5 -53.5z" />
    <glyph glyph-name="plusminus" unicode="&#xb1;" horiz-adv-x="1067" 
d="M415 389v307h-308v207h308v307h208v-307h305v-207h-305v-307h-208zM102 78v208h836v-208h-836z" />
    <glyph glyph-name="uni00B2" unicode="&#xb2;" horiz-adv-x="480" 
d="M252 1261q-29 0 -50 -12.5t-35.5 -29.5t-22 -30.5t-8.5 -15.5l-84 38q1 4 7.5 18.5t21 34t37.5 38t56 30.5t78 12q49 0 83.5 -14t54.5 -37.5t29.5 -52.5t9.5 -58q0 -34 -14.5 -66.5t-37 -62.5t-49 -55.5t-50.5 -44.5t-40.5 -31.5t-20.5 -15.5h208v-85h-356v78l30 22.5
t52 40t61 52t58 58t44 58t17 53.5q0 42 -20.5 60t-58.5 18z" />
    <glyph glyph-name="uni00B3" unicode="&#xb3;" horiz-adv-x="437" 
d="M42 1240q4 13 16 31t33 35.5t51.5 29t71.5 11.5q50 0 88 -19t59 -51.5t21 -75.5q0 -28 -10.5 -51t-27 -38t-34.5 -19q20 -3 41 -18t35.5 -41.5t14.5 -62.5q0 -49 -24.5 -87t-66.5 -60.5t-97 -22.5q-56 0 -95.5 20t-62.5 48t-31 55l92 45q5 -17 17.5 -36t32 -31.5
t46.5 -12.5q28 0 48.5 11t30.5 30t10 44q0 26 -12 43t-32.5 25t-44.5 8h-10v73h13q21 0 38.5 9t28 24.5t10.5 37.5q0 30 -20 50.5t-59 20.5q-22 0 -38.5 -7.5t-27 -18t-16.5 -21t-7 -17.5z" />
    <glyph glyph-name="acute" unicode="&#xb4;" horiz-adv-x="960" 
d="M318 953l-78 107l316 269l127 -159z" />
    <glyph glyph-name="uni00B5" unicode="&#xb5;" horiz-adv-x="1068" 
d="M82 821h250v-1213h-250v1213zM332 428q0 -110 44 -175.5t142 -65.5q99 0 143 65.5t44 175.5v393h250v-422q0 -127 -51 -222.5t-148.5 -148t-237.5 -52.5q-139 0 -236.5 52.5t-148.5 148t-51 222.5v422h250v-393z" />
    <glyph glyph-name="paragraph" unicode="&#xb6;" horiz-adv-x="1075" 
d="M957 0h-140v1176h-105v-1176h-141v524h-132q-98 0 -174.5 34.5t-129 92t-80 130.5t-27.5 150q0 104 48.5 192.5t140 142.5t222.5 54h518v-1320z" />
    <glyph glyph-name="periodcentered" unicode="&#xb7;" horiz-adv-x="551" 
d="M275 267q-67 0 -115 48t-48 115q0 69 48 117t115 48q69 0 116.5 -48t47.5 -117q0 -67 -47.5 -115t-116.5 -48z" />
    <glyph glyph-name="cedilla" unicode="&#xb8;" horiz-adv-x="768" 
d="M385 -430q-86 0 -148.5 26.5t-87.5 51.5l88 100q18 -18 53.5 -38t75.5 -20t66 19t26 49q0 36 -27.5 53t-66.5 17q-31 0 -53.5 -4.5t-31.5 -9.5l-20 14l77 214l95 -34l-40 -105q53 6 104 -8t85 -47.5t34 -87.5q0 -60 -32.5 -102.5t-84.5 -65t-112 -22.5z" />
    <glyph glyph-name="uni00B9" unicode="&#xb9;" horiz-adv-x="255" 
d="M107 1201l-82 -44v90l129 74h47v-500h-94v380z" />
    <glyph glyph-name="ordmasculine" unicode="&#xba;" horiz-adv-x="860" 
d="M119 1074q0 79 40.5 140t108.5 95.5t149 34.5q80 0 147 -34.5t107 -95.5t40 -140q0 -78 -39 -138.5t-105.5 -95t-149.5 -34.5q-88 0 -155 34.5t-105 95t-38 138.5zM281 1074q0 -59 37.5 -98.5t97.5 -39.5q56 0 95.5 39.5t39.5 98.5q0 41 -18.5 72.5t-49.5 49t-67 17.5
t-67 -17.5t-49.5 -49t-18.5 -72.5z" />
    <glyph glyph-name="guillemotright" unicode="&#xbb;" horiz-adv-x="992" 
d="M596 55l-124 99l230 291l-230 292l124 97l306 -389zM205 55l-125 99l229 291l-229 292l125 97l304 -389z" />
    <glyph glyph-name="onequarter" unicode="&#xbc;" horiz-adv-x="1387" 
d="M234 1139l-127 -69v140l201 114h73v-774h-147v589zM1211 770v-479h88v-129h-88v-162h-146v162h-320v117l300 491h166zM1065 291v283h-1l-170 -283h171zM986 1320h153l-768 -1320h-153z" />
    <glyph glyph-name="onehalf" unicode="&#xbd;" horiz-adv-x="1512" 
d="M1155 657q-42 0 -74 -19t-53.5 -44.5t-33 -46t-12.5 -23.5l-126 58q1 6 11 28t31 51t55.5 57t84.5 46t117 18q75 0 126.5 -21t82.5 -56.5t44.5 -79t13.5 -88.5q0 -50 -21 -98.5t-55.5 -93.5t-74 -83.5t-75.5 -68t-61.5 -47.5t-31.5 -22h313v-129h-536v117q13 10 46 34.5
t78 60.5t92 78t87.5 86.5t66 87.5t25.5 80q0 65 -31 91.5t-89 26.5zM225 1139l-127 -69v140l201 114h72v-774h-146v589zM980 1320h153l-768 -1320h-153z" />
    <glyph glyph-name="threequarters" unicode="&#xbe;" horiz-adv-x="1524" 
d="M94 1190q5 19 22.5 45.5t48.5 51.5t76 41.5t105 16.5q74 0 129 -27t85.5 -75t30.5 -109q0 -42 -15.5 -76t-40 -56t-50.5 -28q30 -4 61 -26t51.5 -61t20.5 -91q0 -72 -35 -128t-97 -88t-142 -32q-82 0 -139.5 28.5t-91.5 70t-45 79.5l133 67q7 -25 25.5 -52.5t47.5 -46.5
t69 -19q41 0 70.5 16.5t45 44.5t15.5 64q0 38 -18.5 63t-48 37t-64.5 12h-16v106h20q31 0 56.5 12.5t41 36t15.5 56.5q0 43 -29.5 73.5t-86.5 30.5q-33 0 -56.5 -11t-39.5 -26.5t-24.5 -31.5t-9.5 -25zM1321 770v-479h89v-129h-89v-162h-146v162h-319v117l300 491h165z
M1175 291v283h-1l-169 -283h170zM1125 1320h153l-768 -1320h-153z" />
    <glyph glyph-name="questiondown" unicode="&#xbf;" horiz-adv-x="950" 
d="M450 -25q-120 0 -213.5 38.5t-146.5 108.5t-53 165q0 86 40 149t97 109t109 78q47 29 63.5 63.5t16.5 93.5v133h221v-208q0 -63 -29.5 -103.5t-81.5 -68.5q-39 -22 -77.5 -52.5t-63.5 -69.5t-25 -88q0 -69 46 -102t128 -33q59 0 100.5 25.5t67 61.5t34.5 67l208 -85
q-2 -15 -19 -47.5t-49.5 -72.5t-84.5 -77t-123 -61t-165 -24zM470 1015q-68 0 -116.5 48t-48.5 117q0 68 48.5 115.5t116.5 47.5q67 0 115 -47.5t48 -115.5q0 -69 -48 -117t-115 -48z" />
    <glyph glyph-name="Agrave" unicode="&#xc0;" horiz-adv-x="1296" 
d="M511 1320h251l508 -1320h-266l-103 285h-528l-105 -285h-267zM455 506h364l-181 512h-3zM699 1376l-365 217l127 159l318 -269z" />
    <glyph glyph-name="Aacute" unicode="&#xc1;" horiz-adv-x="1296" 
d="M511 1320h251l508 -1320h-266l-103 285h-528l-105 -285h-267zM455 506h364l-181 512h-3zM553 1376l-79 107l318 269l126 -159z" />
    <glyph glyph-name="Acircumflex" unicode="&#xc2;" horiz-adv-x="1296" 
d="M511 1320h251l508 -1320h-266l-103 285h-528l-105 -285h-267zM455 506h364l-181 512h-3zM400 1400l-97 128l333 243l332 -244l-96 -128l-236 173z" />
    <glyph glyph-name="Atilde" unicode="&#xc3;" horiz-adv-x="1296" 
d="M511 1320h251l508 -1320h-266l-103 285h-528l-105 -285h-267zM455 506h364l-181 512h-3zM281 1410q10 54 36 111.5t69 97.5t103 40q62 0 107.5 -19t85.5 -37.5t85 -18.5q31 0 50.5 25.5t25.5 49.5h148q-10 -53 -36 -111t-69 -98t-103 -40q-62 0 -108 19t-86 37.5
t-83 18.5q-30 0 -50 -25.5t-27 -49.5h-148z" />
    <glyph glyph-name="Adieresis" unicode="&#xc4;" horiz-adv-x="1296" 
d="M511 1320h251l508 -1320h-266l-103 285h-528l-105 -285h-267zM455 506h364l-181 512h-3zM835 1404q-55 0 -93 39t-38 92q0 54 38 93t93 39q54 0 92.5 -39t38.5 -93t-38.5 -92.5t-92.5 -38.5zM438 1404q-55 0 -93 39t-38 92q0 54 38 93t93 39q53 0 92 -39t39 -93
t-39 -92.5t-92 -38.5z" />
    <glyph glyph-name="Aring" unicode="&#xc5;" horiz-adv-x="1296" 
d="M511 1320h251l508 -1320h-266l-103 285h-528l-105 -285h-267zM455 506h364l-181 512h-3zM637 1364q-96 0 -155 53t-59 137q0 82 62 135.5t152 53.5t151 -53.5t61 -135.5q0 -84 -59.5 -137t-152.5 -53zM637 1472q32 0 54 22t22 60q0 37 -22.5 57.5t-53.5 20.5
q-32 0 -55 -20.5t-23 -57.5q0 -38 22.5 -60t55.5 -22z" />
    <glyph glyph-name="AE" unicode="&#xc6;" horiz-adv-x="1695" 
d="M711 1320h263l-43 -1035h-515l-153 -285h-271zM511 478h296v514l-4 7zM791 1320h819v-221h-571v-330h563v-214h-563v-334h571v-221h-819v1320z" />
    <glyph glyph-name="Ccedilla" unicode="&#xc7;" horiz-adv-x="1279" 
d="M770 223q104 0 185 29.5t119 58.5l107 -213q-46 -40 -158.5 -81t-268.5 -41q-146 0 -273 51.5t-223 144t-150 217t-54 269.5t53.5 270.5t149.5 218.5t223.5 145t273.5 52q156 0 268.5 -41t158.5 -81l-107 -213q-38 29 -119 58.5t-185 29.5q-106 0 -188.5 -34t-140 -94.5
t-87.5 -139.5t-30 -168q0 -90 30 -169.5t87.5 -140t140 -94.5t188.5 -34zM762 -430q-86 0 -148.5 26.5t-87.5 51.5l88 100q18 -18 53.5 -38t75.5 -20t66 19t26 49q0 36 -27.5 53t-66.5 17q-31 0 -53.5 -4.5t-31.5 -9.5l-20 14l77 214l95 -34l-40 -105q53 6 104 -8t85 -47.5
t34 -87.5q0 -60 -32.5 -102.5t-84.5 -65t-112 -22.5z" />
    <glyph glyph-name="Egrave" unicode="&#xc8;" horiz-adv-x="1062" 
d="M94 1320h819v-221h-571v-330h563v-214h-563v-334h571v-221h-819v1320zM549 1376l-365 217l127 159l318 -269z" />
    <glyph glyph-name="Eacute" unicode="&#xc9;" horiz-adv-x="1062" 
d="M94 1320h819v-221h-571v-330h563v-214h-563v-334h571v-221h-819v1320zM404 1376l-79 107l318 269l126 -159z" />
    <glyph glyph-name="Ecircumflex" unicode="&#xca;" horiz-adv-x="1062" 
d="M94 1320h819v-221h-571v-330h563v-214h-563v-334h571v-221h-819v1320zM251 1400l-97 128l333 243l332 -244l-96 -128l-236 173z" />
    <glyph glyph-name="Edieresis" unicode="&#xcb;" horiz-adv-x="1062" 
d="M94 1320h819v-221h-571v-330h563v-214h-563v-334h571v-221h-819v1320zM686 1404q-55 0 -93 39t-38 92q0 54 38 93t93 39q54 0 92.5 -39t38.5 -93t-38.5 -92.5t-92.5 -38.5zM289 1404q-55 0 -93 39t-38 92q0 54 38 93t93 39q53 0 92 -39t39 -93t-39 -92.5t-92 -38.5z" />
    <glyph glyph-name="Igrave" unicode="&#xcc;" horiz-adv-x="513" 
d="M106 1320h250v-1320h-250v1320zM293 1376l-365 217l127 159l318 -269z" />
    <glyph glyph-name="Iacute" unicode="&#xcd;" horiz-adv-x="513" 
d="M106 1320h250v-1320h-250v1320zM148 1376l-79 107l318 269l126 -159z" />
    <glyph glyph-name="Icircumflex" unicode="&#xce;" horiz-adv-x="513" 
d="M106 1320h250v-1320h-250v1320zM-6 1400l-97 128l333 243l332 -244l-96 -128l-236 173z" />
    <glyph glyph-name="Idieresis" unicode="&#xcf;" horiz-adv-x="513" 
d="M106 1320h250v-1320h-250v1320zM429 1404q-55 0 -93 39t-38 92q0 54 38 93t93 39q54 0 92.5 -39t38.5 -93t-38.5 -92.5t-92.5 -38.5zM32 1404q-55 0 -93 39t-38 92q0 54 38 93t93 39q53 0 92 -39t39 -93t-39 -92.5t-92 -38.5z" />
    <glyph glyph-name="Eth" unicode="&#xd0;" horiz-adv-x="1177" 
d="M94 0v1320h364q211 0 348.5 -84.5t205.5 -233.5t68 -341q0 -193 -68 -342t-205.5 -234t-348.5 -85h-364zM-17 549v217h574v-217h-574zM342 223h94q129 0 212.5 56.5t125 155.5t41.5 224q1 126 -40 225t-125.5 156t-213.5 57h-94v-874z" />
    <glyph glyph-name="Ntilde" unicode="&#xd1;" horiz-adv-x="1411" 
d="M326 1089l17 -3v-1086h-249v1320h344l592 -1084l-17 -4v1088h249v-1320h-346zM356 1488q10 54 36 111.5t69 97.5t102 40q63 0 108.5 -19t85.5 -37.5t85 -18.5q31 0 50.5 25.5t25.5 49.5h148q-10 -54 -36.5 -111.5t-69.5 -97.5t-102 -40q-62 0 -108 19t-86 37t-83 18
q-30 0 -50 -25t-27 -49h-148z" />
    <glyph glyph-name="Ograve" unicode="&#xd2;" horiz-adv-x="1469" 
d="M302 661q0 -126 52.5 -228t144.5 -161.5t213 -59.5t213.5 59.5t144.5 161.5t52 228t-52 227.5t-144.5 161.5t-213.5 60t-213 -60t-144.5 -161.5t-52.5 -227.5zM42 661q0 144 50.5 268.5t141.5 217.5t213.5 145t264.5 52q144 0 266 -52t212.5 -145t140.5 -217.5t50 -268.5
q0 -145 -49 -269.5t-139 -218t-212 -145.5t-269 -52q-149 0 -271.5 52t-212 145.5t-138 218t-48.5 269.5zM774 1376l-365 217l127 159l318 -269z" />
    <glyph glyph-name="Oacute" unicode="&#xd3;" horiz-adv-x="1469" 
d="M302 661q0 -126 52.5 -228t144.5 -161.5t213 -59.5t213.5 59.5t144.5 161.5t52 228t-52 227.5t-144.5 161.5t-213.5 60t-213 -60t-144.5 -161.5t-52.5 -227.5zM42 661q0 144 50.5 268.5t141.5 217.5t213.5 145t264.5 52q144 0 266 -52t212.5 -145t140.5 -217.5t50 -268.5
q0 -145 -49 -269.5t-139 -218t-212 -145.5t-269 -52q-149 0 -271.5 52t-212 145.5t-138 218t-48.5 269.5zM629 1376l-79 107l318 269l126 -159z" />
    <glyph glyph-name="Ocircumflex" unicode="&#xd4;" horiz-adv-x="1469" 
d="M302 661q0 -126 52.5 -228t144.5 -161.5t213 -59.5t213.5 59.5t144.5 161.5t52 228t-52 227.5t-144.5 161.5t-213.5 60t-213 -60t-144.5 -161.5t-52.5 -227.5zM42 661q0 144 50.5 268.5t141.5 217.5t213.5 145t264.5 52q144 0 266 -52t212.5 -145t140.5 -217.5t50 -268.5
q0 -145 -49 -269.5t-139 -218t-212 -145.5t-269 -52q-149 0 -271.5 52t-212 145.5t-138 218t-48.5 269.5zM476 1400l-97 128l333 243l332 -244l-96 -128l-236 173z" />
    <glyph glyph-name="Otilde" unicode="&#xd5;" horiz-adv-x="1469" 
d="M302 661q0 -126 52.5 -228t144.5 -161.5t213 -59.5t213.5 59.5t144.5 161.5t52 228t-52 227.5t-144.5 161.5t-213.5 60t-213 -60t-144.5 -161.5t-52.5 -227.5zM42 661q0 144 50.5 268.5t141.5 217.5t213.5 145t264.5 52q144 0 266 -52t212.5 -145t140.5 -217.5t50 -268.5
q0 -145 -49 -269.5t-139 -218t-212 -145.5t-269 -52q-149 0 -271.5 52t-212 145.5t-138 218t-48.5 269.5zM373 1488q10 54 36 111.5t69 97.5t102 40q63 0 108.5 -19t85.5 -37.5t85 -18.5q31 0 50.5 25.5t25.5 49.5h148q-10 -54 -36.5 -111.5t-69.5 -97.5t-102 -40
q-62 0 -108 19t-86 37t-83 18q-30 0 -50 -25t-27 -49h-148z" />
    <glyph glyph-name="Odieresis" unicode="&#xd6;" horiz-adv-x="1469" 
d="M302 661q0 -126 52.5 -228t144.5 -161.5t213 -59.5t213.5 59.5t144.5 161.5t52 228t-52 227.5t-144.5 161.5t-213.5 60t-213 -60t-144.5 -161.5t-52.5 -227.5zM42 661q0 144 50.5 268.5t141.5 217.5t213.5 145t264.5 52q144 0 266 -52t212.5 -145t140.5 -217.5t50 -268.5
q0 -145 -49 -269.5t-139 -218t-212 -145.5t-269 -52q-149 0 -271.5 52t-212 145.5t-138 218t-48.5 269.5zM911 1404q-55 0 -93 39t-38 92q0 54 38 93t93 39q54 0 92.5 -39t38.5 -93t-38.5 -92.5t-92.5 -38.5zM514 1404q-55 0 -93 39t-38 92q0 54 38 93t93 39q53 0 92 -39
t39 -93t-39 -92.5t-92 -38.5z" />
    <glyph glyph-name="multiply" unicode="&#xd7;" horiz-adv-x="1023" 
d="M643 663l254 -253l-145 -146l-254 254l-254 -254l-147 149l252 251l-252 254l147 145l253 -252l252 252l148 -147z" />
    <glyph glyph-name="Oslash" unicode="&#xd8;" horiz-adv-x="1443" 
d="M1298 1359l92 -83l-1293 -1334l-93 84zM302 661q0 -126 52.5 -228t144.5 -161.5t213 -59.5t213.5 59.5t144.5 161.5t52 228t-52 227.5t-144.5 161.5t-213.5 60t-213 -60t-144.5 -161.5t-52.5 -227.5zM42 661q0 144 50.5 268.5t141.5 217.5t213.5 145t264.5 52
q144 0 266 -52t212.5 -145t140.5 -217.5t50 -268.5q0 -145 -49 -269.5t-139 -218t-212 -145.5t-269 -52q-149 0 -271.5 52t-212 145.5t-138 218t-48.5 269.5z" />
    <glyph glyph-name="Ugrave" unicode="&#xd9;" horiz-adv-x="1262" 
d="M880 1320h250v-814q0 -163 -64.5 -282t-181 -183.5t-274.5 -64.5q-159 0 -276.5 64.5t-182 183.5t-64.5 282v814h249v-801q0 -100 34.5 -170.5t96.5 -107t143 -36.5q80 0 141 36.5t95 107t34 170.5v801zM672 1376l-365 217l127 159l318 -269z" />
    <glyph glyph-name="Uacute" unicode="&#xda;" horiz-adv-x="1262" 
d="M880 1320h250v-814q0 -163 -64.5 -282t-181 -183.5t-274.5 -64.5q-159 0 -276.5 64.5t-182 183.5t-64.5 282v814h249v-801q0 -100 34.5 -170.5t96.5 -107t143 -36.5q80 0 141 36.5t95 107t34 170.5v801zM527 1376l-79 107l318 269l126 -159z" />
    <glyph glyph-name="Ucircumflex" unicode="&#xdb;" horiz-adv-x="1262" 
d="M880 1320h250v-814q0 -163 -64.5 -282t-181 -183.5t-274.5 -64.5q-159 0 -276.5 64.5t-182 183.5t-64.5 282v814h249v-801q0 -100 34.5 -170.5t96.5 -107t143 -36.5q80 0 141 36.5t95 107t34 170.5v801zM373 1400l-97 128l333 243l332 -244l-96 -128l-236 173z" />
    <glyph glyph-name="Udieresis" unicode="&#xdc;" horiz-adv-x="1262" 
d="M880 1320h250v-814q0 -163 -64.5 -282t-181 -183.5t-274.5 -64.5q-159 0 -276.5 64.5t-182 183.5t-64.5 282v814h249v-801q0 -100 34.5 -170.5t96.5 -107t143 -36.5q80 0 141 36.5t95 107t34 170.5v801zM808 1404q-55 0 -93 39t-38 92q0 54 38 93t93 39q54 0 92.5 -39
t38.5 -93t-38.5 -92.5t-92.5 -38.5zM411 1404q-55 0 -93 39t-38 92q0 54 38 93t93 39q53 0 92 -39t39 -93t-39 -92.5t-92 -38.5z" />
    <glyph glyph-name="Yacute" unicode="&#xdd;" horiz-adv-x="1164" 
d="M429 475l-451 845h303l272 -558l273 558h301l-448 -845v-475h-250v475zM471 1376l-79 107l318 269l126 -159z" />
    <glyph glyph-name="Thorn" unicode="&#xde;" horiz-adv-x="1073" 
d="M94 1320h248v-245h215q122 0 219 -44.5t154 -134.5t57 -227q0 -136 -57 -230.5t-154 -144t-219 -49.5h-215v-245h-248v1320zM342 445h166q94 0 150.5 57t56.5 164q0 108 -56.5 158.5t-150.5 50.5h-166v-430z" />
    <glyph glyph-name="germandbls" unicode="&#xdf;" horiz-adv-x="1085" 
d="M499 191q77 0 131 28.5t83 79.5t29 117q0 110 -66 165.5t-177 55.5v181q89 0 151 56t62 149q0 63 -22 101.5t-60.5 56.5t-90.5 18q-63 0 -107 -33t-66.5 -88.5t-22.5 -121.5v-956h-235v938q0 145 55 249t151.5 158.5t220.5 54.5q182 0 291 -94.5t109 -272.5
q0 -75 -29.5 -135.5t-75.5 -102.5t-95 -60q64 -15 123 -58.5t96 -113t37 -164.5q0 -126 -63.5 -221t-174.5 -148.5t-254 -53.5v215z" />
    <glyph glyph-name="agrave" unicode="&#xe0;" horiz-adv-x="1104" 
d="M738 0v143q-9 -22 -46 -62t-99.5 -72.5t-146.5 -32.5q-118 0 -209 56.5t-142.5 155t-51.5 222.5t51.5 222.5t142.5 155.5t209 57q82 0 142.5 -27.5t98 -64t48.5 -65.5v133h252v-821h-249zM292 410q0 -69 31 -121.5t82 -81.5t111 -29q63 0 112 29.5t77.5 82t28.5 120.5
t-28.5 120.5t-77.5 82.5t-112 30q-60 0 -111 -29.5t-82 -82t-31 -121.5zM688 953l-365 217l127 159l318 -269z" />
    <glyph glyph-name="aacute" unicode="&#xe1;" horiz-adv-x="1104" 
d="M738 0v143q-9 -22 -46 -62t-99.5 -72.5t-146.5 -32.5q-118 0 -209 56.5t-142.5 155t-51.5 222.5t51.5 222.5t142.5 155.5t209 57q82 0 142.5 -27.5t98 -64t48.5 -65.5v133h252v-821h-249zM292 410q0 -69 31 -121.5t82 -81.5t111 -29q63 0 112 29.5t77.5 82t28.5 120.5
t-28.5 120.5t-77.5 82.5t-112 30q-60 0 -111 -29.5t-82 -82t-31 -121.5zM401 921l-78 107l316 269l127 -159z" />
    <glyph glyph-name="acircumflex" unicode="&#xe2;" horiz-adv-x="1104" 
d="M738 0v143q-9 -22 -46 -62t-99.5 -72.5t-146.5 -32.5q-118 0 -209 56.5t-142.5 155t-51.5 222.5t51.5 222.5t142.5 155.5t209 57q82 0 142.5 -27.5t98 -64t48.5 -65.5v133h252v-821h-249zM292 410q0 -69 31 -121.5t82 -81.5t111 -29q63 0 112 29.5t77.5 82t28.5 120.5
t-28.5 120.5t-77.5 82.5t-112 30q-60 0 -111 -29.5t-82 -82t-31 -121.5zM766 899l-237 173l-236 -172l-96 128l332 243l333 -244z" />
    <glyph glyph-name="atilde" unicode="&#xe3;" horiz-adv-x="1104" 
d="M738 0v143q-9 -22 -46 -62t-99.5 -72.5t-146.5 -32.5q-118 0 -209 56.5t-142.5 155t-51.5 222.5t51.5 222.5t142.5 155.5t209 57q82 0 142.5 -27.5t98 -64t48.5 -65.5v133h252v-821h-249zM292 410q0 -69 31 -121.5t82 -81.5t111 -29q63 0 112 29.5t77.5 82t28.5 120.5
t-28.5 120.5t-77.5 82.5t-112 30q-60 0 -111 -29.5t-82 -82t-31 -121.5zM189 989q10 54 36 111.5t69 97.5t102 40q63 0 108.5 -19t85.5 -37.5t85 -18.5q31 0 50.5 25.5t25.5 49.5h148q-10 -54 -36.5 -111.5t-69.5 -97.5t-102 -40q-62 0 -108 19t-86 37t-83 18q-30 0 -50 -25
t-27 -49h-148z" />
    <glyph glyph-name="adieresis" unicode="&#xe4;" horiz-adv-x="1104" 
d="M738 0v143q-9 -22 -46 -62t-99.5 -72.5t-146.5 -32.5q-118 0 -209 56.5t-142.5 155t-51.5 222.5t51.5 222.5t142.5 155.5t209 57q82 0 142.5 -27.5t98 -64t48.5 -65.5v133h252v-821h-249zM292 410q0 -69 31 -121.5t82 -81.5t111 -29q63 0 112 29.5t77.5 82t28.5 120.5
t-28.5 120.5t-77.5 82.5t-112 30q-60 0 -111 -29.5t-82 -82t-31 -121.5zM742 975q-55 0 -93.5 39t-38.5 92q0 54 38.5 93t93.5 39q53 0 92 -39t39 -93t-39 -92.5t-92 -38.5zM344 975q-55 0 -93 39t-38 92q0 54 38 93t93 39q54 0 92.5 -39t38.5 -93t-38.5 -92.5t-92.5 -38.5z
" />
    <glyph glyph-name="aring" unicode="&#xe5;" horiz-adv-x="1104" 
d="M738 0v143q-9 -22 -46 -62t-99.5 -72.5t-146.5 -32.5q-118 0 -209 56.5t-142.5 155t-51.5 222.5t51.5 222.5t142.5 155.5t209 57q82 0 142.5 -27.5t98 -64t48.5 -65.5v133h252v-821h-249zM292 410q0 -69 31 -121.5t82 -81.5t111 -29q63 0 112 29.5t77.5 82t28.5 120.5
t-28.5 120.5t-77.5 82.5t-112 30q-60 0 -111 -29.5t-82 -82t-31 -121.5zM528 921q-106 0 -171.5 58.5t-65.5 151.5q0 61 32 108.5t85.5 74.5t119.5 27q67 0 120.5 -27t84.5 -74.5t31 -108.5q0 -93 -66 -151.5t-170 -58.5zM528 1044q35 0 59 23.5t24 63.5t-24.5 62.5
t-58.5 22.5t-59 -22.5t-25 -62.5q0 -41 24.5 -64t59.5 -23z" />
    <glyph glyph-name="ae" unicode="&#xe6;" horiz-adv-x="1542" 
d="M376 -24q-87 0 -157.5 32t-111.5 94.5t-41 152.5q0 74 43.5 132.5t118.5 93t170 34.5q66 0 112 -12.5t73.5 -28t37.5 -25.5v29q0 47 -16 82t-45 58t-69 35t-88 12q-80 0 -142.5 -24t-90.5 -47l-108 165q38 28 132.5 57t227.5 29q82 0 146.5 -24t108.5 -61t63 -79
q25 38 70.5 76t108 63t134.5 25q121 0 213 -47t144.5 -143t52.5 -245q0 -9 -1 -18t-1 -17h-600q0 -73 31.5 -120t79.5 -69t96 -22q51 0 96.5 18.5t80.5 44t54 47.5l141 -143q-38 -37 -93.5 -73t-128.5 -59t-165 -23q-71 0 -136 22t-115.5 59t-81.5 83q-16 -32 -61.5 -70
t-117 -66t-165.5 -28zM420 126q44 0 79 19.5t55 50.5t20 64q0 55 -42 89t-102 34q-36 0 -71 -15.5t-57 -44t-22 -68.5q0 -54 40.5 -91t99.5 -38zM869 509h366q-2 20 -10.5 50t-27 60.5t-51.5 51t-85 20.5q-81 0 -133 -51.5t-59 -130.5z" />
    <glyph glyph-name="ccedilla" unicode="&#xe7;" horiz-adv-x="816" 
d="M515 178q65 0 106 22t54 33l118 -175q-14 -11 -52 -31t-96.5 -35.5t-133.5 -15.5q-130 0 -233 52.5t-162.5 150t-59.5 232.5q0 136 59.5 233t162.5 149t233 52q74 0 131.5 -16t96.5 -36.5t54 -33.5l-121 -176q-7 8 -27 22t-52.5 26t-77.5 12q-55 0 -104.5 -29t-80.5 -81
t-31 -122t31 -122.5t80.5 -81.5t104.5 -29zM411 -430q-86 0 -148.5 26.5t-87.5 51.5l88 100q18 -18 53.5 -38t75.5 -20t66 19t26 49q0 36 -27.5 53t-66.5 17q-31 0 -53.5 -4.5t-31.5 -9.5l-20 14l77 214l95 -34l-40 -105q53 6 104 -8t85 -47.5t34 -87.5q0 -60 -32.5 -102.5
t-84.5 -65t-112 -22.5z" />
    <glyph glyph-name="egrave" unicode="&#xe8;" horiz-adv-x="981" 
d="M281 354q3 -56 30 -100t78.5 -69t123.5 -25q65 0 114.5 16t84 39.5t51.5 45.5l105 -156q-28 -35 -74.5 -64.5t-118 -47t-178.5 -17.5q-135 0 -237 53t-159 153t-57 238q0 120 51 216.5t148.5 152.5t234.5 56q129 0 223.5 -49.5t146.5 -144.5t52 -232q0 -8 -0.5 -32.5
t-2.5 -32.5h-616zM662 511q-1 32 -19.5 69t-57.5 63t-104 26t-106.5 -25t-62.5 -61.5t-24 -71.5h374zM643 953l-365 217l127 159l318 -269z" />
    <glyph glyph-name="eacute" unicode="&#xe9;" horiz-adv-x="981" 
d="M281 354q3 -56 30 -100t78.5 -69t123.5 -25q65 0 114.5 16t84 39.5t51.5 45.5l105 -156q-28 -35 -74.5 -64.5t-118 -47t-178.5 -17.5q-135 0 -237 53t-159 153t-57 238q0 120 51 216.5t148.5 152.5t234.5 56q129 0 223.5 -49.5t146.5 -144.5t52 -232q0 -8 -0.5 -32.5
t-2.5 -32.5h-616zM662 511q-1 32 -19.5 69t-57.5 63t-104 26t-106.5 -25t-62.5 -61.5t-24 -71.5h374zM357 921l-78 107l316 269l127 -159z" />
    <glyph glyph-name="ecircumflex" unicode="&#xea;" horiz-adv-x="981" 
d="M281 354q3 -56 30 -100t78.5 -69t123.5 -25q65 0 114.5 16t84 39.5t51.5 45.5l105 -156q-28 -35 -74.5 -64.5t-118 -47t-178.5 -17.5q-135 0 -237 53t-159 153t-57 238q0 120 51 216.5t148.5 152.5t234.5 56q129 0 223.5 -49.5t146.5 -144.5t52 -232q0 -8 -0.5 -32.5
t-2.5 -32.5h-616zM662 511q-1 32 -19.5 69t-57.5 63t-104 26t-106.5 -25t-62.5 -61.5t-24 -71.5h374zM721 899l-237 173l-236 -172l-96 128l332 243l333 -244z" />
    <glyph glyph-name="edieresis" unicode="&#xeb;" horiz-adv-x="981" 
d="M281 354q3 -56 30 -100t78.5 -69t123.5 -25q65 0 114.5 16t84 39.5t51.5 45.5l105 -156q-28 -35 -74.5 -64.5t-118 -47t-178.5 -17.5q-135 0 -237 53t-159 153t-57 238q0 120 51 216.5t148.5 152.5t234.5 56q129 0 223.5 -49.5t146.5 -144.5t52 -232q0 -8 -0.5 -32.5
t-2.5 -32.5h-616zM662 511q-1 32 -19.5 69t-57.5 63t-104 26t-106.5 -25t-62.5 -61.5t-24 -71.5h374zM698 975q-55 0 -93.5 39t-38.5 92q0 54 38.5 93t93.5 39q53 0 92 -39t39 -93t-39 -92.5t-92 -38.5zM300 975q-55 0 -93 39t-38 92q0 54 38 93t93 39q54 0 92.5 -39
t38.5 -93t-38.5 -92.5t-92.5 -38.5z" />
    <glyph glyph-name="igrave" unicode="&#xec;" horiz-adv-x="414" 
d="M74 0v821h236v-821h-236zM352 953l-365 217l127 159l318 -269z" />
    <glyph glyph-name="iacute" unicode="&#xed;" horiz-adv-x="414" 
d="M74 0v821h236v-821h-236zM66 921l-78 107l316 269l127 -159z" />
    <glyph glyph-name="icircumflex" unicode="&#xee;" horiz-adv-x="414" 
d="M74 0v821h236v-821h-236zM430 899l-237 173l-236 -172l-96 128l332 243l333 -244z" />
    <glyph glyph-name="idieresis" unicode="&#xef;" horiz-adv-x="414" 
d="M74 0v821h236v-821h-236zM406 975q-55 0 -93.5 39t-38.5 92q0 54 38.5 93t93.5 39q53 0 92 -39t39 -93t-39 -92.5t-92 -38.5zM8 975q-55 0 -93 39t-38 92q0 54 38 93t93 39q54 0 92.5 -39t38.5 -93t-38.5 -92.5t-92.5 -38.5z" />
    <glyph glyph-name="eth" unicode="&#xf0;" horiz-adv-x="1107" 
d="M70 410q0 108 39 189.5t103 136t141.5 82t154.5 27.5q74 0 120 -14t72 -32t38 -31q-14 44 -49.5 96.5t-83 100.5t-96.5 76l-152 -153l-109 109l109 109q-31 14 -67.5 27.5t-68 24t-49.5 14.5l58 199q32 -6 80 -21.5t102 -36.5t105 -46l120 121l111 -110l-96 -92
q105 -67 190 -169t135.5 -243t50.5 -326q0 -142 -60.5 -248t-167.5 -165t-248 -59q-146 0 -254.5 56t-168 154t-59.5 224zM320 410q0 -65 28 -117.5t79.5 -83t121.5 -30.5q76 0 126.5 31t76.5 83t26 117q0 112 -60 172t-169 60q-103 0 -166 -64t-63 -168z" />
    <glyph glyph-name="ntilde" unicode="&#xf1;" horiz-adv-x="1068" 
d="M616 845q84 0 164 -34.5t131.5 -109.5t51.5 -196v-505h-255v461q0 101 -47.5 150t-124.5 49q-50 0 -95.5 -27.5t-74 -76t-28.5 -110.5v-446h-254v821h254v-131q11 34 50 70t99 60.5t129 24.5zM168 989q10 54 36 111.5t69 97.5t102 40q63 0 108.5 -19t85.5 -37.5t85 -18.5
q31 0 50.5 25.5t25.5 49.5h148q-10 -54 -36.5 -111.5t-69.5 -97.5t-102 -40q-62 0 -108 19t-86 37t-83 18q-30 0 -50 -25t-27 -49h-148z" />
    <glyph glyph-name="ograve" unicode="&#xf2;" horiz-adv-x="1021" 
d="M495 -24q-131 0 -233.5 56t-160.5 153.5t-58 222.5t58 223.5t160.5 156t233.5 57.5q132 0 233 -57.5t158 -156t57 -223.5t-57 -222.5t-158 -153.5t-233 -56zM495 187q63 0 109.5 28.5t72 79t25.5 114.5t-25.5 115t-72 80.5t-109.5 29.5t-109.5 -29.5t-72.5 -80.5
t-26 -115t26 -114.5t72.5 -79t109.5 -28.5zM652 953l-365 217l127 159l318 -269z" />
    <glyph glyph-name="oacute" unicode="&#xf3;" horiz-adv-x="1021" 
d="M495 -24q-131 0 -233.5 56t-160.5 153.5t-58 222.5t58 223.5t160.5 156t233.5 57.5q132 0 233 -57.5t158 -156t57 -223.5t-57 -222.5t-158 -153.5t-233 -56zM495 187q63 0 109.5 28.5t72 79t25.5 114.5t-25.5 115t-72 80.5t-109.5 29.5t-109.5 -29.5t-72.5 -80.5
t-26 -115t26 -114.5t72.5 -79t109.5 -28.5zM366 921l-78 107l316 269l127 -159z" />
    <glyph glyph-name="ocircumflex" unicode="&#xf4;" horiz-adv-x="1021" 
d="M495 -24q-131 0 -233.5 56t-160.5 153.5t-58 222.5t58 223.5t160.5 156t233.5 57.5q132 0 233 -57.5t158 -156t57 -223.5t-57 -222.5t-158 -153.5t-233 -56zM495 187q63 0 109.5 28.5t72 79t25.5 114.5t-25.5 115t-72 80.5t-109.5 29.5t-109.5 -29.5t-72.5 -80.5
t-26 -115t26 -114.5t72.5 -79t109.5 -28.5zM730 899l-237 173l-236 -172l-96 128l332 243l333 -244z" />
    <glyph glyph-name="otilde" unicode="&#xf5;" horiz-adv-x="1006" 
d="M495 -24q-131 0 -233.5 56t-160.5 153.5t-58 222.5t58 223.5t160.5 156t233.5 57.5q132 0 233 -57.5t158 -156t57 -223.5t-57 -222.5t-158 -153.5t-233 -56zM495 187q63 0 109.5 28.5t72 79t25.5 114.5t-25.5 115t-72 80.5t-109.5 29.5t-109.5 -29.5t-72.5 -80.5
t-26 -115t26 -114.5t72.5 -79t109.5 -28.5zM130 998q10 53 36 110.5t69 97.5t102 40q63 0 108.5 -18.5t85.5 -37t85 -18.5q31 0 50.5 25.5t25.5 48.5h148q-10 -53 -36.5 -110.5t-69.5 -97.5t-102 -40q-62 0 -108 18.5t-86 37t-83 18.5q-30 0 -50 -25t-27 -49h-148z" />
    <glyph glyph-name="odieresis" unicode="&#xf6;" horiz-adv-x="1021" 
d="M495 -24q-131 0 -233.5 56t-160.5 153.5t-58 222.5t58 223.5t160.5 156t233.5 57.5q132 0 233 -57.5t158 -156t57 -223.5t-57 -222.5t-158 -153.5t-233 -56zM495 187q63 0 109.5 28.5t72 79t25.5 114.5t-25.5 115t-72 80.5t-109.5 29.5t-109.5 -29.5t-72.5 -80.5
t-26 -115t26 -114.5t72.5 -79t109.5 -28.5zM706 975q-55 0 -93.5 39t-38.5 92q0 54 38.5 93t93.5 39q53 0 92 -39t39 -93t-39 -92.5t-92 -38.5zM308 975q-55 0 -93 39t-38 92q0 54 38 93t93 39q54 0 92.5 -39t38.5 -93t-38.5 -92.5t-92.5 -38.5z" />
    <glyph glyph-name="divide" unicode="&#xf7;" horiz-adv-x="1033" 
d="M498 1127q51 0 85 -35t34 -84q0 -47 -34 -81t-85 -34q-47 0 -81 34t-34 81q0 50 34 84.5t81 34.5zM101 558v208h800v-208h-800zM498 434q51 0 85 -34.5t34 -84.5q0 -47 -34.5 -81t-84.5 -34q-47 0 -81 34t-34 81q0 50 34 84.5t81 34.5z" />
    <glyph glyph-name="oslash" unicode="&#xf8;" horiz-adv-x="1006" 
d="M867 866l74 -65l-827 -840l-74 65zM495 -24q-131 0 -233.5 56t-160.5 153.5t-58 222.5t58 223.5t160.5 156t233.5 57.5q132 0 233 -57.5t158 -156t57 -223.5t-57 -222.5t-158 -153.5t-233 -56zM495 187q63 0 109.5 28.5t72 79t25.5 114.5t-25.5 115t-72 80.5t-109.5 29.5
t-109.5 -29.5t-72.5 -80.5t-26 -115t26 -114.5t72.5 -79t109.5 -28.5z" />
    <glyph glyph-name="ugrave" unicode="&#xf9;" horiz-adv-x="1068" 
d="M332 428q0 -110 44 -175.5t142 -65.5q99 0 143 65.5t44 175.5v393h250v-422q0 -127 -51 -222.5t-148.5 -148t-237.5 -52.5q-139 0 -236.5 52.5t-148.5 148t-51 222.5v422h250v-393zM677 953l-365 217l127 159l318 -269z" />
    <glyph glyph-name="uacute" unicode="&#xfa;" horiz-adv-x="1068" 
d="M332 428q0 -110 44 -175.5t142 -65.5q99 0 143 65.5t44 175.5v393h250v-422q0 -127 -51 -222.5t-148.5 -148t-237.5 -52.5q-139 0 -236.5 52.5t-148.5 148t-51 222.5v422h250v-393zM391 921l-78 107l316 269l127 -159z" />
    <glyph glyph-name="ucircumflex" unicode="&#xfb;" horiz-adv-x="1068" 
d="M332 428q0 -110 44 -175.5t142 -65.5q99 0 143 65.5t44 175.5v393h250v-422q0 -127 -51 -222.5t-148.5 -148t-237.5 -52.5q-139 0 -236.5 52.5t-148.5 148t-51 222.5v422h250v-393zM755 899l-237 173l-236 -172l-96 128l332 243l333 -244z" />
    <glyph glyph-name="udieresis" unicode="&#xfc;" horiz-adv-x="1068" 
d="M332 428q0 -110 44 -175.5t142 -65.5q99 0 143 65.5t44 175.5v393h250v-422q0 -127 -51 -222.5t-148.5 -148t-237.5 -52.5q-139 0 -236.5 52.5t-148.5 148t-51 222.5v422h250v-393zM732 975q-55 0 -93.5 39t-38.5 92q0 54 38.5 93t93.5 39q53 0 92 -39t39 -93t-39 -92.5
t-92 -38.5zM334 975q-55 0 -93 39t-38 92q0 54 38 93t93 39q54 0 92.5 -39t38.5 -93t-38.5 -92.5t-92.5 -38.5z" />
    <glyph glyph-name="yacute" unicode="&#xfd;" horiz-adv-x="989" 
d="M478 223l243 598h251l-561 -1237h-255l189 416l-341 821h254zM352 921l-78 107l316 269l127 -159z" />
    <glyph glyph-name="thorn" unicode="&#xfe;" horiz-adv-x="1090" 
d="M88 0h251v-416h-251v416zM88 0v1376h254v-688q8 29 47 66t103.5 64t146.5 27q118 0 206.5 -57t138 -155.5t49.5 -222.5t-49.5 -222.5t-138 -155t-206.5 -56.5q-73 0 -135.5 27t-105 66t-59.5 74v-143h-251zM783 410q0 69 -29 121.5t-78 82t-109 29.5q-63 0 -114 -30
t-81 -82.5t-30 -120.5t30 -120.5t81 -82t114 -29.5q60 0 109 29t78 81.5t29 121.5z" />
    <glyph glyph-name="ydieresis" unicode="&#xff;" horiz-adv-x="989" 
d="M478 223l243 598h251l-561 -1237h-255l189 416l-341 821h254zM693 975q-55 0 -93.5 39t-38.5 92q0 54 38.5 93t93.5 39q53 0 92 -39t39 -93t-39 -92.5t-92 -38.5zM295 975q-55 0 -93 39t-38 92q0 54 38 93t93 39q54 0 92.5 -39t38.5 -93t-38.5 -92.5t-92.5 -38.5z" />
    <glyph glyph-name="Amacron" unicode="&#x100;" horiz-adv-x="1296" 
d="M511 1320h251l508 -1320h-266l-103 285h-528l-105 -285h-267zM455 506h364l-181 512h-3zM323 1450v164h627v-164h-627z" />
    <glyph glyph-name="amacron" unicode="&#x101;" horiz-adv-x="1102" 
d="M738 0v143q-9 -22 -46 -62t-99.5 -72.5t-146.5 -32.5q-118 0 -209 56.5t-142.5 155t-51.5 222.5t51.5 222.5t142.5 155.5t209 57q82 0 142.5 -27.5t98 -64t48.5 -65.5v133h252v-821h-249zM292 410q0 -69 31 -121.5t82 -81.5t111 -29q63 0 112 29.5t77.5 82t28.5 120.5
t-28.5 120.5t-77.5 82.5t-112 30q-60 0 -111 -29.5t-82 -82t-31 -121.5zM217 1028v164h627v-164h-627z" />
    <glyph glyph-name="Abreve" unicode="&#x102;" horiz-adv-x="1296" 
d="M511 1320h251l508 -1320h-266l-103 285h-528l-105 -285h-267zM455 506h364l-181 512h-3zM636 1391q-87 0 -153.5 32t-106 86t-47.5 122l157 39q4 -30 21.5 -63.5t49.5 -57t79 -23.5q48 0 79.5 23.5t49 57t21.5 63.5l157 -39q-7 -65 -46 -120t-105 -87.5t-156 -32.5z" />
    <glyph glyph-name="abreve" unicode="&#x103;" horiz-adv-x="1102" 
d="M738 0v143q-9 -22 -46 -62t-99.5 -72.5t-146.5 -32.5q-118 0 -209 56.5t-142.5 155t-51.5 222.5t51.5 222.5t142.5 155.5t209 57q82 0 142.5 -27.5t98 -64t48.5 -65.5v133h252v-821h-249zM292 410q0 -69 31 -121.5t82 -81.5t111 -29q63 0 112 29.5t77.5 82t28.5 120.5
t-28.5 120.5t-77.5 82.5t-112 30q-60 0 -111 -29.5t-82 -82t-31 -121.5zM528 933q-96 0 -169.5 35t-118 95t-52.5 136l176 44q5 -33 23.5 -70t53.5 -62t87 -25t87 25t54 62t23 70l176 -44q-8 -73 -51.5 -133.5t-117 -96.5t-171.5 -36z" />
    <glyph glyph-name="Aogonek" unicode="&#x104;" horiz-adv-x="1303" 
d="M511 1320h251l508 -1320h-266l-103 285h-528l-105 -285h-267zM455 506h364l-181 512h-3zM1046 -432q-42 0 -88 16.5t-78 55.5t-32 108q0 48 27.5 102.5t67.5 105t76 85.5l80 -41q-23 -25 -48.5 -63t-43 -81t-17.5 -82q0 -42 24 -59t57 -17q31 0 56 17.5t37 35.5l101 -76
q-23 -37 -83.5 -72t-135.5 -35z" />
    <glyph glyph-name="aogonek" unicode="&#x105;" horiz-adv-x="1102" 
d="M738 0v143q-9 -22 -46 -62t-99.5 -72.5t-146.5 -32.5q-118 0 -209 56.5t-142.5 155t-51.5 222.5t51.5 222.5t142.5 155.5t209 57q82 0 142.5 -27.5t98 -64t48.5 -65.5v133h252v-821h-249zM292 410q0 -69 31 -121.5t82 -81.5t111 -29q63 0 112 29.5t77.5 82t28.5 120.5
t-28.5 120.5t-77.5 82.5t-112 30q-60 0 -111 -29.5t-82 -82t-31 -121.5zM858 -432q-42 0 -88 16.5t-78 55.5t-32 108q0 48 27.5 102.5t67.5 105t76 85.5l80 -41q-23 -25 -48.5 -63t-43 -81t-17.5 -82q0 -42 24 -59t57 -17q31 0 56 17.5t37 35.5l101 -76q-23 -37 -83.5 -72
t-135.5 -35z" />
    <glyph glyph-name="Cacute" unicode="&#x106;" horiz-adv-x="1279" 
d="M770 223q104 0 185 29.5t119 58.5l107 -213q-46 -40 -158.5 -81t-268.5 -41q-146 0 -273 51.5t-223 144t-150 217t-54 269.5t53.5 270.5t149.5 218.5t223.5 145t273.5 52q156 0 268.5 -41t158.5 -81l-107 -213q-38 29 -119 58.5t-185 29.5q-106 0 -188.5 -34t-140 -94.5
t-87.5 -139.5t-30 -168q0 -90 30 -169.5t87.5 -140t140 -94.5t188.5 -34zM633 1376l-79 107l318 269l126 -159z" />
    <glyph glyph-name="cacute" unicode="&#x107;" horiz-adv-x="816" 
d="M515 178q65 0 106 22t54 33l118 -175q-14 -11 -52 -31t-96.5 -35.5t-133.5 -15.5q-130 0 -233 52.5t-162.5 150t-59.5 232.5q0 136 59.5 233t162.5 149t233 52q74 0 131.5 -16t96.5 -36.5t54 -33.5l-121 -176q-7 8 -27 22t-52.5 26t-77.5 12q-55 0 -104.5 -29t-80.5 -81
t-31 -122t31 -122.5t80.5 -81.5t104.5 -29zM390 953l-78 107l316 269l127 -159z" />
    <glyph glyph-name="Ccircumflex" unicode="&#x108;" horiz-adv-x="1279" 
d="M770 223q104 0 185 29.5t119 58.5l107 -213q-46 -40 -158.5 -81t-268.5 -41q-146 0 -273 51.5t-223 144t-150 217t-54 269.5t53.5 270.5t149.5 218.5t223.5 145t273.5 52q156 0 268.5 -41t158.5 -81l-107 -213q-38 29 -119 58.5t-185 29.5q-106 0 -188.5 -34t-140 -94.5
t-87.5 -139.5t-30 -168q0 -90 30 -169.5t87.5 -140t140 -94.5t188.5 -34zM480 1400l-97 128l333 243l332 -244l-96 -128l-236 173z" />
    <glyph glyph-name="ccircumflex" unicode="&#x109;" horiz-adv-x="843" 
d="M515 178q65 0 106 22t54 33l118 -175q-14 -11 -52 -31t-96.5 -35.5t-133.5 -15.5q-130 0 -233 52.5t-162.5 150t-59.5 232.5q0 136 59.5 233t162.5 149t233 52q74 0 131.5 -16t96.5 -36.5t54 -33.5l-121 -176q-7 8 -27 22t-52.5 26t-77.5 12q-55 0 -104.5 -29t-80.5 -81
t-31 -122t31 -122.5t80.5 -81.5t104.5 -29zM734 899l-237 173l-236 -172l-96 128l332 243l333 -244z" />
    <glyph glyph-name="Cdotaccent" unicode="&#x10a;" horiz-adv-x="1279" 
d="M770 223q104 0 185 29.5t119 58.5l107 -213q-46 -40 -158.5 -81t-268.5 -41q-146 0 -273 51.5t-223 144t-150 217t-54 269.5t53.5 270.5t149.5 218.5t223.5 145t273.5 52q156 0 268.5 -41t158.5 -81l-107 -213q-38 29 -119 58.5t-185 29.5q-106 0 -188.5 -34t-140 -94.5
t-87.5 -139.5t-30 -168q0 -90 30 -169.5t87.5 -140t140 -94.5t188.5 -34zM715 1432q-54 0 -92.5 39t-38.5 92q0 54 38.5 93t92.5 39t92.5 -39t38.5 -93t-38.5 -92.5t-92.5 -38.5z" />
    <glyph glyph-name="cdotaccent" unicode="&#x10b;" horiz-adv-x="816" 
d="M515 178q65 0 106 22t54 33l118 -175q-14 -11 -52 -31t-96.5 -35.5t-133.5 -15.5q-130 0 -233 52.5t-162.5 150t-59.5 232.5q0 136 59.5 233t162.5 149t233 52q74 0 131.5 -16t96.5 -36.5t54 -33.5l-121 -176q-7 8 -27 22t-52.5 26t-77.5 12q-55 0 -104.5 -29t-80.5 -81
t-31 -122t31 -122.5t80.5 -81.5t104.5 -29zM513 987q-54 0 -92.5 39t-38.5 92q0 54 38.5 93t92.5 39t92.5 -39t38.5 -93t-38.5 -92.5t-92.5 -38.5z" />
    <glyph glyph-name="Ccaron" unicode="&#x10c;" horiz-adv-x="1279" 
d="M770 223q104 0 185 29.5t119 58.5l107 -213q-46 -40 -158.5 -81t-268.5 -41q-146 0 -273 51.5t-223 144t-150 217t-54 269.5t53.5 270.5t149.5 218.5t223.5 145t273.5 52q156 0 268.5 -41t158.5 -81l-107 -213q-38 29 -119 58.5t-185 29.5q-106 0 -188.5 -34t-140 -94.5
t-87.5 -139.5t-30 -168q0 -90 30 -169.5t87.5 -140t140 -94.5t188.5 -34zM717 1412l-291 213l85 112l206 -150l206 150l83 -112z" />
    <glyph glyph-name="ccaron" unicode="&#x10d;" horiz-adv-x="816" 
d="M515 178q65 0 106 22t54 33l118 -175q-14 -11 -52 -31t-96.5 -35.5t-133.5 -15.5q-130 0 -233 52.5t-162.5 150t-59.5 232.5q0 136 59.5 233t162.5 149t233 52q74 0 131.5 -16t96.5 -36.5t54 -33.5l-121 -176q-7 8 -27 22t-52.5 26t-77.5 12q-55 0 -104.5 -29t-80.5 -81
t-31 -122t31 -122.5t80.5 -81.5t104.5 -29zM513 948l-332 243l96 129l236 -173l237 173l96 -129z" />
    <glyph glyph-name="Dcaron" unicode="&#x10e;" horiz-adv-x="1177" 
d="M94 1320h364q211 0 348.5 -84.5t205.5 -233.5t68 -341q0 -193 -68 -342t-205.5 -234t-348.5 -85h-364v1320zM342 1097v-874h94q129 0 212.5 56.5t125 155.5t41.5 224q1 126 -40 225t-125.5 156t-213.5 57h-94zM557 1412l-291 213l85 112l206 -150l206 150l83 -112z" />
    <glyph glyph-name="dcaron" unicode="&#x10f;" horiz-adv-x="1195" 
d="M1172 1007l-51 56q33 16 72 51t52 78q-14 -7 -37 -7q-38 0 -67.5 29.5t-29.5 77.5t33 80.5t80 32.5q48 0 81.5 -33t33.5 -95q0 -55 -23.5 -108t-61.5 -95.5t-82 -66.5zM448 -24q-117 0 -205.5 56.5t-138 155t-49.5 222.5t49.5 222.5t138 155.5t205.5 57q83 0 147.5 -27
t103.5 -64t46 -66v688h255v-1376h-252v143q-16 -35 -59 -74t-105 -66t-136 -27zM520 178q64 0 115 29.5t80.5 82t29.5 120.5t-29.5 120.5t-80.5 82.5t-115 30q-59 0 -108 -29.5t-78.5 -82t-29.5 -121.5t29.5 -121.5t78.5 -81.5t108 -29z" />
    <glyph glyph-name="Dcroat" unicode="&#x110;" horiz-adv-x="1177" 
d="M94 0v1320h364q211 0 348.5 -84.5t205.5 -233.5t68 -341q0 -193 -68 -342t-205.5 -234t-348.5 -85h-364zM-17 549v217h574v-217h-574zM342 223h94q129 0 212.5 56.5t125 155.5t41.5 224q1 126 -40 225t-125.5 156t-213.5 57h-94v-874z" />
    <glyph glyph-name="dcroat" unicode="&#x111;" horiz-adv-x="1090" 
d="M550 1013v157h544v-157h-544zM448 -24q-117 0 -205.5 56.5t-138 155t-49.5 222.5t49.5 222.5t138 155.5t205.5 57q83 0 147.5 -27t103.5 -64t46 -66v688h255v-1376h-252v143q-16 -35 -59 -74t-105 -66t-136 -27zM520 178q64 0 115 29.5t80.5 82t29.5 120.5t-29.5 120.5
t-80.5 82.5t-115 30q-59 0 -108 -29.5t-78.5 -82t-29.5 -121.5t29.5 -121.5t78.5 -81.5t108 -29z" />
    <glyph glyph-name="Emacron" unicode="&#x112;" horiz-adv-x="1062" 
d="M94 1320h819v-221h-571v-330h563v-214h-563v-334h571v-221h-819v1320zM173 1450v164h627v-164h-627z" />
    <glyph glyph-name="emacron" unicode="&#x113;" horiz-adv-x="990" 
d="M281 354q3 -56 30 -100t78.5 -69t123.5 -25q65 0 114.5 16t84 39.5t51.5 45.5l105 -156q-28 -35 -74.5 -64.5t-118 -47t-178.5 -17.5q-135 0 -237 53t-159 153t-57 238q0 120 51 216.5t148.5 152.5t234.5 56q129 0 223.5 -49.5t146.5 -144.5t52 -232q0 -8 -0.5 -32.5
t-2.5 -32.5h-616zM662 511q-1 32 -19.5 69t-57.5 63t-104 26t-106.5 -25t-62.5 -61.5t-24 -71.5h374zM155 1028v164h627v-164h-627z" />
    <glyph glyph-name="Ebreve" unicode="&#x114;" horiz-adv-x="1062" 
d="M94 1320h819v-221h-571v-330h563v-214h-563v-334h571v-221h-819v1320zM487 1391q-87 0 -153.5 32t-106 86t-47.5 122l157 39q4 -30 21.5 -63.5t49.5 -57t79 -23.5q48 0 79.5 23.5t49 57t21.5 63.5l157 -39q-7 -65 -46 -120t-105 -87.5t-156 -32.5z" />
    <glyph glyph-name="ebreve" unicode="&#x115;" horiz-adv-x="981" 
d="M281 354q3 -56 30 -100t78.5 -69t123.5 -25q65 0 114.5 16t84 39.5t51.5 45.5l105 -156q-28 -35 -74.5 -64.5t-118 -47t-178.5 -17.5q-135 0 -237 53t-159 153t-57 238q0 120 51 216.5t148.5 152.5t234.5 56q129 0 223.5 -49.5t146.5 -144.5t52 -232q0 -8 -0.5 -32.5
t-2.5 -32.5h-616zM662 511q-1 32 -19.5 69t-57.5 63t-104 26t-106.5 -25t-62.5 -61.5t-24 -71.5h374zM484 933q-96 0 -169.5 35t-118 95t-52.5 136l176 44q5 -33 23.5 -70t53.5 -62t87 -25t87 25t54 62t23 70l176 -44q-8 -73 -51.5 -133.5t-117 -96.5t-171.5 -36z" />
    <glyph glyph-name="Edotaccent" unicode="&#x116;" horiz-adv-x="1062" 
d="M94 1320h819v-221h-571v-330h563v-214h-563v-334h571v-221h-819v1320zM486 1432q-54 0 -92.5 39t-38.5 92q0 54 38.5 93t92.5 39t92.5 -39t38.5 -93t-38.5 -92.5t-92.5 -38.5z" />
    <glyph glyph-name="edotaccent" unicode="&#x117;" horiz-adv-x="981" 
d="M281 354q3 -56 30 -100t78.5 -69t123.5 -25q65 0 114.5 16t84 39.5t51.5 45.5l105 -156q-28 -35 -74.5 -64.5t-118 -47t-178.5 -17.5q-135 0 -237 53t-159 153t-57 238q0 120 51 216.5t148.5 152.5t234.5 56q129 0 223.5 -49.5t146.5 -144.5t52 -232q0 -8 -0.5 -32.5
t-2.5 -32.5h-616zM662 511q-1 32 -19.5 69t-57.5 63t-104 26t-106.5 -25t-62.5 -61.5t-24 -71.5h374zM464 987q-54 0 -92.5 39t-38.5 92q0 54 38.5 93t92.5 39t92.5 -39t38.5 -93t-38.5 -92.5t-92.5 -38.5z" />
    <glyph glyph-name="Eogonek" unicode="&#x118;" horiz-adv-x="1062" 
d="M94 1320h819v-221h-571v-330h563v-214h-563v-334h571v-221h-819v1320zM639 -431q-42 0 -88 16.5t-78 55.5t-32 108q0 48 27.5 102.5t67.5 105t76 85.5l80 -41q-23 -25 -48.5 -63.5t-43 -81.5t-17.5 -84q0 -38 25 -55.5t53 -17.5q33 0 58.5 17.5t37.5 35.5l101 -76
q-23 -37 -83.5 -72t-135.5 -35z" />
    <glyph glyph-name="eogonek" unicode="&#x119;" horiz-adv-x="990" 
d="M281 354q3 -56 30 -100t78.5 -69t123.5 -25q65 0 114.5 16t84 39.5t51.5 45.5l105 -156q-28 -35 -74.5 -64.5t-118 -47t-178.5 -17.5q-135 0 -237 53t-159 153t-57 238q0 120 51 216.5t148.5 152.5t234.5 56q129 0 223.5 -49.5t146.5 -144.5t52 -232q0 -8 -0.5 -32.5
t-2.5 -32.5h-616zM662 511q-1 32 -19.5 69t-57.5 63t-104 26t-106.5 -25t-62.5 -61.5t-24 -71.5h374zM577 -432q-42 0 -88 16.5t-78 55.5t-32 108q0 48 27.5 102.5t67.5 105t76 85.5l80 -41q-23 -25 -48.5 -63t-43 -81t-17.5 -82q0 -42 24 -59t57 -17q31 0 56 17.5t37 35.5
l101 -76q-23 -37 -83.5 -72t-135.5 -35z" />
    <glyph glyph-name="Ecaron" unicode="&#x11a;" horiz-adv-x="1062" 
d="M94 1320h819v-221h-571v-330h563v-214h-563v-334h571v-221h-819v1320zM488 1412l-291 213l85 112l206 -150l206 150l83 -112z" />
    <glyph glyph-name="ecaron" unicode="&#x11b;" horiz-adv-x="990" 
d="M281 354q3 -56 30 -100t78.5 -69t123.5 -25q65 0 114.5 16t84 39.5t51.5 45.5l105 -156q-28 -35 -74.5 -64.5t-118 -47t-178.5 -17.5q-135 0 -237 53t-159 153t-57 238q0 120 51 216.5t148.5 152.5t234.5 56q129 0 223.5 -49.5t146.5 -144.5t52 -232q0 -8 -0.5 -32.5
t-2.5 -32.5h-616zM662 511q-1 32 -19.5 69t-57.5 63t-104 26t-106.5 -25t-62.5 -61.5t-24 -71.5h374zM464 948l-332 243l96 129l236 -173l237 173l96 -129z" />
    <glyph glyph-name="Gcircumflex" unicode="&#x11c;" horiz-adv-x="1458" 
d="M699 730h670v-79q0 -141 -47.5 -263.5t-135.5 -215t-208.5 -144.5t-265.5 -52q-149 0 -272 53t-212 147t-137.5 218.5t-48.5 266.5q0 141 48.5 265.5t137.5 218t212 146.5t272 53q115 0 205 -25t157.5 -67.5t117 -94t82.5 -103.5l-234 -114q-48 70 -127.5 120t-200.5 50
q-90 0 -165.5 -35.5t-130 -97.5t-84.5 -143.5t-30 -172.5q0 -92 30 -173t84.5 -143.5t130 -97.5t165.5 -35q82 0 149 24t116.5 68t78.5 103.5t33 128.5h-390v194zM477 1400l-97 128l333 243l332 -244l-96 -128l-236 173z" />
    <glyph glyph-name="gcircumflex" unicode="&#x11d;" horiz-adv-x="1108" 
d="M508 -439q-90 0 -172.5 17t-149.5 53t-112 94l154 156q21 -27 54.5 -54.5t85.5 -46t130 -18.5q74 0 127.5 28.5t83 80.5t29.5 121v23h249v-38q0 -136 -64 -229t-172 -140t-243 -47zM738 0v143q-9 -22 -46 -62t-99.5 -72.5t-146.5 -32.5q-118 0 -209 56.5t-142.5 155
t-51.5 222.5t51.5 222.5t142.5 155.5t209 57q82 0 142.5 -27.5t98 -64t48.5 -65.5v133h252v-821h-249zM292 410q0 -69 31 -121.5t82 -81.5t111 -29q63 0 112 29.5t77.5 82t28.5 120.5t-28.5 120.5t-77.5 82.5t-112 30q-60 0 -111 -29.5t-82 -82t-31 -121.5zM762 899
l-237 173l-236 -172l-96 128l332 243l333 -244z" />
    <glyph glyph-name="Gbreve" unicode="&#x11e;" horiz-adv-x="1458" 
d="M699 730h670v-79q0 -141 -47.5 -263.5t-135.5 -215t-208.5 -144.5t-265.5 -52q-149 0 -272 53t-212 147t-137.5 218.5t-48.5 266.5q0 141 48.5 265.5t137.5 218t212 146.5t272 53q115 0 205 -25t157.5 -67.5t117 -94t82.5 -103.5l-234 -114q-48 70 -127.5 120t-200.5 50
q-90 0 -165.5 -35.5t-130 -97.5t-84.5 -143.5t-30 -172.5q0 -92 30 -173t84.5 -143.5t130 -97.5t165.5 -35q82 0 149 24t116.5 68t78.5 103.5t33 128.5h-390v194zM713 1391q-87 0 -153.5 32t-106 86t-47.5 122l157 39q4 -30 21.5 -63.5t49.5 -57t79 -23.5q48 0 79.5 23.5
t49 57t21.5 63.5l157 -39q-7 -65 -46 -120t-105 -87.5t-156 -32.5z" />
    <glyph glyph-name="gbreve" unicode="&#x11f;" horiz-adv-x="1102" 
d="M508 -439q-90 0 -172.5 17t-149.5 53t-112 94l154 156q21 -27 54.5 -54.5t85.5 -46t130 -18.5q74 0 127.5 28.5t83 80.5t29.5 121v23h249v-38q0 -136 -64 -229t-172 -140t-243 -47zM738 0v143q-9 -22 -46 -62t-99.5 -72.5t-146.5 -32.5q-118 0 -209 56.5t-142.5 155
t-51.5 222.5t51.5 222.5t142.5 155.5t209 57q82 0 142.5 -27.5t98 -64t48.5 -65.5v133h252v-821h-249zM292 410q0 -69 31 -121.5t82 -81.5t111 -29q63 0 112 29.5t77.5 82t28.5 120.5t-28.5 120.5t-77.5 82.5t-112 30q-60 0 -111 -29.5t-82 -82t-31 -121.5zM525 933
q-96 0 -169.5 35t-118 95t-52.5 136l176 44q5 -33 23.5 -70t53.5 -62t87 -25t87 25t54 62t23 70l176 -44q-8 -73 -51.5 -133.5t-117 -96.5t-171.5 -36z" />
    <glyph glyph-name="Gdotaccent" unicode="&#x120;" horiz-adv-x="1458" 
d="M699 730h670v-79q0 -141 -47.5 -263.5t-135.5 -215t-208.5 -144.5t-265.5 -52q-149 0 -272 53t-212 147t-137.5 218.5t-48.5 266.5q0 141 48.5 265.5t137.5 218t212 146.5t272 53q115 0 205 -25t157.5 -67.5t117 -94t82.5 -103.5l-234 -114q-48 70 -127.5 120t-200.5 50
q-90 0 -165.5 -35.5t-130 -97.5t-84.5 -143.5t-30 -172.5q0 -92 30 -173t84.5 -143.5t130 -97.5t165.5 -35q82 0 149 24t116.5 68t78.5 103.5t33 128.5h-390v194zM712 1432q-54 0 -92.5 39t-38.5 92q0 54 38.5 93t92.5 39t92.5 -39t38.5 -93t-38.5 -92.5t-92.5 -38.5z" />
    <glyph glyph-name="gdotaccent" unicode="&#x121;" horiz-adv-x="1091" 
d="M508 -439q-90 0 -172.5 17t-149.5 53t-112 94l154 156q21 -27 54.5 -54.5t85.5 -46t130 -18.5q74 0 127.5 28.5t83 80.5t29.5 121v23h249v-38q0 -136 -64 -229t-172 -140t-243 -47zM738 0v143q-9 -22 -46 -62t-99.5 -72.5t-146.5 -32.5q-118 0 -209 56.5t-142.5 155
t-51.5 222.5t51.5 222.5t142.5 155.5t209 57q82 0 142.5 -27.5t98 -64t48.5 -65.5v133h252v-821h-249zM292 410q0 -69 31 -121.5t82 -81.5t111 -29q63 0 112 29.5t77.5 82t28.5 120.5t-28.5 120.5t-77.5 82.5t-112 30q-60 0 -111 -29.5t-82 -82t-31 -121.5zM498 987
q-54 0 -92.5 39t-38.5 92q0 54 38.5 93t92.5 39t92.5 -39t38.5 -93t-38.5 -92.5t-92.5 -38.5z" />
    <glyph glyph-name="uni0122" unicode="&#x122;" horiz-adv-x="1458" 
d="M699 730h670v-79q0 -141 -47.5 -263.5t-135.5 -215t-208.5 -144.5t-265.5 -52q-149 0 -272 53t-212 147t-137.5 218.5t-48.5 266.5q0 141 48.5 265.5t137.5 218t212 146.5t272 53q115 0 205 -25t157.5 -67.5t117 -94t82.5 -103.5l-234 -114q-48 70 -127.5 120t-200.5 50
q-90 0 -165.5 -35.5t-130 -97.5t-84.5 -143.5t-30 -172.5q0 -92 30 -173t84.5 -143.5t130 -97.5t165.5 -35q82 0 149 24t116.5 68t78.5 103.5t33 128.5h-390v194zM676 -548l-60 66q39 19 86 60.5t61 91.5q-17 -8 -43 -8q-45 0 -80 34.5t-35 91.5t39.5 95t93.5 38
q56 0 96 -38.5t40 -111.5q0 -66 -27.5 -128.5t-72.5 -112t-98 -78.5z" />
    <glyph glyph-name="uni0123" unicode="&#x123;" horiz-adv-x="1108" 
d="M508 -439q-90 0 -172.5 17t-149.5 53t-112 94l154 156q21 -27 54.5 -54.5t85.5 -46t130 -18.5q74 0 127.5 28.5t83 80.5t29.5 121v23h249v-38q0 -136 -64 -229t-172 -140t-243 -47zM738 0v143q-9 -22 -46 -62t-99.5 -72.5t-146.5 -32.5q-118 0 -209 56.5t-142.5 155
t-51.5 222.5t51.5 222.5t142.5 155.5t209 57q82 0 142.5 -27.5t98 -64t48.5 -65.5v133h252v-821h-249zM292 410q0 -69 31 -121.5t82 -81.5t111 -29q63 0 112 29.5t77.5 82t28.5 120.5t-28.5 120.5t-77.5 82.5t-112 30q-60 0 -111 -29.5t-82 -82t-31 -121.5zM497 957
q-45 0 -77.5 32t-32.5 91q0 54 22.5 104.5t59 91t78.5 62.5l49 -52q-32 -17 -70 -50t-49 -75q13 7 35 7q36 0 65 -28.5t29 -73.5q0 -46 -32 -77.5t-77 -31.5z" />
    <glyph glyph-name="Hcircumflex" unicode="&#x124;" horiz-adv-x="1263" 
d="M866 552h-524v-552h-248v1320h248v-548h524v548h248v-1320h-248v552zM368 1400l-97 128l333 243l332 -244l-96 -128l-236 173z" />
    <glyph glyph-name="hcircumflex" unicode="&#x125;" horiz-adv-x="1079" 
d="M623 845q84 0 164 -34.5t131.5 -109.5t51.5 -196v-505h-255v461q0 101 -45.5 150t-121.5 49q-51 0 -97.5 -27.5t-76 -76t-29.5 -110.5v-446h-255v1376h255v-686q10 34 49 70t99 60.5t130 24.5zM770 1463l-237 173l-236 -172l-96 128l332 243l333 -244z" />
    <glyph glyph-name="Hbar" unicode="&#x126;" horiz-adv-x="1263" 
d="M14 1141h1176v-165h-1176v165zM866 552h-524v-552h-248v1320h248v-548h524v548h248v-1320h-248v552z" />
    <glyph glyph-name="hbar" unicode="&#x127;" horiz-adv-x="1079" 
d="M-14 1013v157h545v-157h-545zM623 845q84 0 164 -34.5t131.5 -109.5t51.5 -196v-505h-255v461q0 101 -45.5 150t-121.5 49q-51 0 -97.5 -27.5t-76 -76t-29.5 -110.5v-446h-255v1376h255v-686q10 34 49 70t99 60.5t130 24.5z" />
    <glyph glyph-name="Itilde" unicode="&#x128;" horiz-adv-x="513" 
d="M106 1320h250v-1320h-250v1320zM-125 1410q10 54 36 111.5t69 97.5t103 40q62 0 107.5 -19t85.5 -37.5t85 -18.5q31 0 50.5 25.5t25.5 49.5h148q-10 -53 -36 -111t-69 -98t-103 -40q-62 0 -108 19t-86 37.5t-83 18.5q-30 0 -50 -25.5t-27 -49.5h-148z" />
    <glyph glyph-name="itilde" unicode="&#x129;" horiz-adv-x="414" 
d="M74 0v821h236v-821h-236zM-147 989q10 54 36 111.5t69 97.5t102 40q63 0 108.5 -19t85.5 -37.5t85 -18.5q31 0 50.5 25.5t25.5 49.5h148q-10 -54 -36.5 -111.5t-69.5 -97.5t-102 -40q-62 0 -108 19t-86 37t-83 18q-30 0 -50 -25t-27 -49h-148z" />
    <glyph glyph-name="Imacron" unicode="&#x12a;" horiz-adv-x="513" 
d="M106 1320h250v-1320h-250v1320zM-83 1450v164h627v-164h-627z" />
    <glyph glyph-name="imacron" unicode="&#x12b;" horiz-adv-x="414" 
d="M74 0v821h236v-821h-236zM-121 1028v164h627v-164h-627z" />
    <glyph glyph-name="Ibreve" unicode="&#x12c;" horiz-adv-x="513" 
d="M106 1320h250v-1320h-250v1320zM230 1391q-87 0 -153.5 32t-106 86t-47.5 122l157 39q4 -30 21.5 -63.5t49.5 -57t79 -23.5q48 0 79.5 23.5t49 57t21.5 63.5l157 -39q-7 -65 -46 -120t-105 -87.5t-156 -32.5z" />
    <glyph glyph-name="ibreve" unicode="&#x12d;" horiz-adv-x="414" 
d="M74 0v821h236v-821h-236zM193 933q-96 0 -169.5 35t-118 95t-52.5 136l176 44q5 -33 23.5 -70t53.5 -62t87 -25t87 25t54 62t23 70l176 -44q-8 -73 -51.5 -133.5t-117 -96.5t-171.5 -36z" />
    <glyph glyph-name="Iogonek" unicode="&#x12e;" horiz-adv-x="513" 
d="M106 1320h250v-1320h-250v1320zM225 -432q-42 0 -88 16.5t-78 55.5t-32 108q0 48 27.5 102.5t67.5 105t76 85.5l80 -41q-23 -25 -48.5 -63t-43 -81t-17.5 -82q0 -42 24 -59t57 -17q31 0 56 17.5t37 35.5l101 -76q-23 -37 -83.5 -72t-135.5 -35z" />
    <glyph glyph-name="iogonek" unicode="&#x12f;" horiz-adv-x="499" 
d="M106 0v821h253v-821h-253zM236 1033q-63 0 -106.5 44t-43.5 105t44 106t106 45q41 0 75 -20.5t55 -54.5t21 -76q0 -61 -44.5 -105t-106.5 -44zM222 -432q-42 0 -88 16.5t-78 55.5t-32 108q0 48 27.5 102.5t67.5 105t76 85.5l80 -41q-23 -25 -48.5 -63t-43 -81t-17.5 -82
q0 -42 24 -59t57 -17q31 0 56 17.5t37 35.5l101 -76q-23 -37 -83.5 -72t-135.5 -35z" />
    <glyph glyph-name="Idotaccent" unicode="&#x130;" horiz-adv-x="513" 
d="M106 1320h250v-1320h-250v1320zM230 1432q-54 0 -92.5 39t-38.5 92q0 54 38.5 93t92.5 39t92.5 -39t38.5 -93t-38.5 -92.5t-92.5 -38.5z" />
    <glyph glyph-name="dotlessi" unicode="&#x131;" horiz-adv-x="414" 
d="M74 0v821h236v-821h-236z" />
    <glyph glyph-name="Jcircumflex" unicode="&#x134;" horiz-adv-x="804" 
d="M681 404q0 -134 -47 -230t-136 -147t-214 -51q-93 0 -159.5 24.5t-105 53.5t-47.5 43l97 216q12 -17 35 -39.5t59 -39t86 -16.5q58 0 98.5 25t62 76.5t21.5 128.5v872h250v-916zM324 1400l-97 128l333 243l332 -244l-96 -128l-236 173z" />
    <glyph glyph-name="jcircumflex" unicode="&#x135;" horiz-adv-x="515" 
d="M84 -440q-81 0 -134.5 16.5t-79.5 33.5l83 190q15 -12 32.5 -18.5t44.5 -6.5q34 0 54.5 19.5t29.5 56.5t9 89v881h254v-927q0 -96 -29.5 -171.5t-94 -119t-169.5 -43.5zM495 899l-237 173l-236 -172l-96 128l332 243l333 -244z" />
    <glyph glyph-name="uni0136" unicode="&#x136;" horiz-adv-x="1102" 
d="M552 676l516 -676h-299l-439 590v-590h-250v1320h250v-565l407 565h283zM486 -548l-60 66q39 19 86 60.5t61 91.5q-17 -8 -43 -8q-45 0 -80 34.5t-35 91.5t39.5 95t93.5 38q56 0 96 -38.5t40 -111.5q0 -66 -27.5 -128.5t-72.5 -112t-98 -78.5z" />
    <glyph glyph-name="uni0137" unicode="&#x137;" horiz-adv-x="962" 
d="M630 821h292l-401 -392l437 -429h-299l-341 343v-343h-254v1376h254v-856zM406 -536l-60 66q39 19 85.5 60.5t60.5 91.5q-16 -8 -43 -8q-45 0 -80 34.5t-35 91.5t39.5 95.5t94.5 38.5q56 0 96 -39t40 -111q0 -67 -28 -129.5t-73 -112t-97 -78.5z" />
    <glyph glyph-name="kgreenlandic" unicode="&#x138;" horiz-adv-x="978" 
d="M533 417l412 -417h-301l-314 330v-330h-250v821h250v-327l281 327h287z" />
    <glyph glyph-name="Lacute" unicode="&#x139;" horiz-adv-x="956" 
d="M98 1320h250v-1099h495v-221h-745v1320zM358 1376l-79 107l318 269l126 -159z" />
    <glyph glyph-name="lacute" unicode="&#x13a;" horiz-adv-x="473" 
d="M349 0h-255v1376h255v-1376zM157 1508l-78 107l316 269l127 -159z" />
    <glyph glyph-name="uni013B" unicode="&#x13b;" horiz-adv-x="956" 
d="M98 1320h250v-1099h495v-221h-745v1320zM407 -548l-60 66q39 19 86 60.5t61 91.5q-17 -8 -43 -8q-45 0 -80 34.5t-35 91.5t39.5 95t93.5 38q56 0 96 -38.5t40 -111.5q0 -66 -27.5 -128.5t-72.5 -112t-98 -78.5z" />
    <glyph glyph-name="uni013C" unicode="&#x13c;" horiz-adv-x="473" 
d="M349 0h-255v1376h255v-1376zM164 -536l-60 66q39 19 85.5 60.5t60.5 91.5q-16 -8 -43 -8q-45 0 -80 34.5t-35 91.5t39.5 95.5t94.5 38.5q56 0 96 -39t40 -111q0 -67 -28 -129.5t-73 -112t-97 -78.5z" />
    <glyph glyph-name="Lcaron" unicode="&#x13d;" horiz-adv-x="956" 
d="M825 935l-48 53q31 16 68 49t49 74q-13 -7 -34 -7q-36 0 -64 27.5t-28 74.5q0 45 31 75.5t76 30.5t77 -31t32 -89q0 -53 -22.5 -103.5t-58.5 -90.5t-78 -63zM98 1320h250v-1099h495v-221h-745v1320z" />
    <glyph glyph-name="lcaron" unicode="&#x13e;" horiz-adv-x="473" 
d="M546 972l-49 53q32 16 69.5 50t49.5 75q-14 -7 -35 -7q-36 0 -64.5 28t-28.5 74t31.5 77.5t76.5 31.5t78 -31.5t33 -90.5q0 -54 -22.5 -105t-59.5 -91t-79 -64zM349 0h-255v1376h255v-1376z" />
    <glyph glyph-name="Ldot" unicode="&#x13f;" horiz-adv-x="956" 
d="M98 1320h250v-1099h495v-221h-745v1320zM659 524q-67 0 -115 48t-48 115q0 69 48 117t115 48q69 0 116.5 -48t47.5 -117q0 -67 -47.5 -115t-116.5 -48z" />
    <glyph glyph-name="ldot" unicode="&#x140;" horiz-adv-x="733" 
d="M349 0h-255v1376h255v-1376zM570 530q-67 0 -115 48t-48 115q0 69 48 117t115 48q69 0 116.5 -48t47.5 -117q0 -67 -47.5 -115t-116.5 -48z" />
    <glyph glyph-name="Lslash" unicode="&#x141;" horiz-adv-x="1005" 
d="M165 0v530l-129 -99v214l129 100v575h248v-380l156 124v-215l-156 -123v-505h475v-221h-723z" />
    <glyph glyph-name="lslash" unicode="&#x142;" horiz-adv-x="557" 
d="M142 0v520l-114 -90v215l114 90v641h236v-455l121 94v-215l-121 -94v-706h-236z" />
    <glyph glyph-name="Nacute" unicode="&#x143;" horiz-adv-x="1411" 
d="M326 1089l17 -3v-1086h-249v1320h344l592 -1084l-17 -4v1088h249v-1320h-346zM612 1376l-79 107l318 269l126 -159z" />
    <glyph glyph-name="nacute" unicode="&#x144;" horiz-adv-x="1068" 
d="M616 845q84 0 164 -34.5t131.5 -109.5t51.5 -196v-505h-255v461q0 101 -47.5 150t-124.5 49q-50 0 -95.5 -27.5t-74 -76t-28.5 -110.5v-446h-254v821h254v-131q11 34 50 70t99 60.5t129 24.5zM380 921l-78 107l316 269l127 -159z" />
    <glyph glyph-name="uni0145" unicode="&#x145;" horiz-adv-x="1411" 
d="M326 1089l17 -3v-1086h-249v1320h344l592 -1084l-17 -4v1088h249v-1320h-346zM631 -548l-60 66q39 19 86 60.5t61 91.5q-17 -8 -43 -8q-45 0 -80 34.5t-35 91.5t39.5 95t93.5 38q56 0 96 -38.5t40 -111.5q0 -66 -27.5 -128.5t-72.5 -112t-98 -78.5z" />
    <glyph glyph-name="uni0146" unicode="&#x146;" horiz-adv-x="1068" 
d="M616 845q84 0 164 -34.5t131.5 -109.5t51.5 -196v-505h-255v461q0 101 -47.5 150t-124.5 49q-50 0 -95.5 -27.5t-74 -76t-28.5 -110.5v-446h-254v821h254v-131q11 34 50 70t99 60.5t129 24.5zM449 -536l-60 66q39 19 85.5 60.5t60.5 91.5q-16 -8 -43 -8q-45 0 -80 34.5
t-35 91.5t39.5 95.5t94.5 38.5q56 0 96 -39t40 -111q0 -67 -28 -129.5t-73 -112t-97 -78.5z" />
    <glyph glyph-name="Ncaron" unicode="&#x147;" horiz-adv-x="1411" 
d="M326 1089l17 -3v-1086h-249v1320h344l592 -1084l-17 -4v1088h249v-1320h-346zM696 1412l-291 213l85 112l206 -150l206 150l83 -112z" />
    <glyph glyph-name="ncaron" unicode="&#x148;" horiz-adv-x="1068" 
d="M616 845q84 0 164 -34.5t131.5 -109.5t51.5 -196v-505h-255v461q0 101 -47.5 150t-124.5 49q-50 0 -95.5 -27.5t-74 -76t-28.5 -110.5v-446h-254v821h254v-131q11 34 50 70t99 60.5t129 24.5zM501 948l-332 243l96 129l236 -173l237 173l96 -129z" />
    <glyph glyph-name="Eng" unicode="&#x14a;" horiz-adv-x="1412" 
d="M1262 0h-258v-40q0 -81 -27.5 -125t-78.5 -44q-24 0 -49 8t-39 16l-86 -196q26 -13 85.5 -32.5t149.5 -19.5q107 0 173.5 55.5t98 146.5t31.5 198v33zM326 1089l17 -3v-1086h-249v1320h344l592 -1084l-17 -4v1088h249v-1320h-346z" />
    <glyph glyph-name="eng" unicode="&#x14b;" horiz-adv-x="1068" 
d="M963 0h-255v-44q0 -50 -7 -89.5t-25 -62t-52 -22.5q-27 0 -49 8t-32 16l-86 -193q18 -11 65 -28.5t139 -17.5q79 0 136.5 32.5t94 86t54 117t17.5 126.5v71zM616 845q84 0 164 -34.5t131.5 -109.5t51.5 -196v-505h-255v461q0 101 -47.5 150t-124.5 49q-50 0 -95.5 -27.5
t-74 -76t-28.5 -110.5v-446h-254v821h254v-131q11 34 50 70t99 60.5t129 24.5z" />
    <glyph glyph-name="Omacron" unicode="&#x14c;" horiz-adv-x="1469" 
d="M302 661q0 -126 52.5 -228t144.5 -161.5t213 -59.5t213.5 59.5t144.5 161.5t52 228t-52 227.5t-144.5 161.5t-213.5 60t-213 -60t-144.5 -161.5t-52.5 -227.5zM42 661q0 144 50.5 268.5t141.5 217.5t213.5 145t264.5 52q144 0 266 -52t212.5 -145t140.5 -217.5t50 -268.5
q0 -145 -49 -269.5t-139 -218t-212 -145.5t-269 -52q-149 0 -271.5 52t-212 145.5t-138 218t-48.5 269.5zM416 1527v164h627v-164h-627z" />
    <glyph glyph-name="omacron" unicode="&#x14d;" horiz-adv-x="1006" 
d="M495 -24q-131 0 -233.5 56t-160.5 153.5t-58 222.5t58 223.5t160.5 156t233.5 57.5q132 0 233 -57.5t158 -156t57 -223.5t-57 -222.5t-158 -153.5t-233 -56zM495 187q63 0 109.5 28.5t72 79t25.5 114.5t-25.5 115t-72 80.5t-109.5 29.5t-109.5 -29.5t-72.5 -80.5
t-26 -115t26 -114.5t72.5 -79t109.5 -28.5zM175 1028v164h627v-164h-627z" />
    <glyph glyph-name="Obreve" unicode="&#x14e;" horiz-adv-x="1469" 
d="M302 661q0 -126 52.5 -228t144.5 -161.5t213 -59.5t213.5 59.5t144.5 161.5t52 228t-52 227.5t-144.5 161.5t-213.5 60t-213 -60t-144.5 -161.5t-52.5 -227.5zM42 661q0 144 50.5 268.5t141.5 217.5t213.5 145t264.5 52q144 0 266 -52t212.5 -145t140.5 -217.5t50 -268.5
q0 -145 -49 -269.5t-139 -218t-212 -145.5t-269 -52q-149 0 -271.5 52t-212 145.5t-138 218t-48.5 269.5zM712 1391q-87 0 -153.5 32t-106 86t-47.5 122l157 39q4 -30 21.5 -63.5t49.5 -57t79 -23.5q48 0 79.5 23.5t49 57t21.5 63.5l157 -39q-7 -65 -46 -120t-105 -87.5
t-156 -32.5z" />
    <glyph glyph-name="obreve" unicode="&#x14f;" horiz-adv-x="1021" 
d="M495 -24q-131 0 -233.5 56t-160.5 153.5t-58 222.5t58 223.5t160.5 156t233.5 57.5q132 0 233 -57.5t158 -156t57 -223.5t-57 -222.5t-158 -153.5t-233 -56zM495 187q63 0 109.5 28.5t72 79t25.5 114.5t-25.5 115t-72 80.5t-109.5 29.5t-109.5 -29.5t-72.5 -80.5
t-26 -115t26 -114.5t72.5 -79t109.5 -28.5zM493 933q-96 0 -169.5 35t-118 95t-52.5 136l176 44q5 -33 23.5 -70t53.5 -62t87 -25t87 25t54 62t23 70l176 -44q-8 -73 -51.5 -133.5t-117 -96.5t-171.5 -36z" />
    <glyph glyph-name="Ohungarumlaut" unicode="&#x150;" horiz-adv-x="1443" 
d="M302 661q0 -126 52.5 -228t144.5 -161.5t213 -59.5t213.5 59.5t144.5 161.5t52 228t-52 227.5t-144.5 161.5t-213.5 60t-213 -60t-144.5 -161.5t-52.5 -227.5zM42 661q0 144 50.5 268.5t141.5 217.5t213.5 145t264.5 52q144 0 266 -52t212.5 -145t140.5 -217.5t50 -268.5
q0 -145 -49 -269.5t-139 -218t-212 -145.5t-269 -52q-149 0 -271.5 52t-212 145.5t-138 218t-48.5 269.5zM850 1450l-79 105l274 305l116 -147zM511 1450l-79 105l274 305l116 -147z" />
    <glyph glyph-name="ohungarumlaut" unicode="&#x151;" horiz-adv-x="1006" 
d="M495 -24q-131 0 -233.5 56t-160.5 153.5t-58 222.5t58 223.5t160.5 156t233.5 57.5q132 0 233 -57.5t158 -156t57 -223.5t-57 -222.5t-158 -153.5t-233 -56zM495 187q63 0 109.5 28.5t72 79t25.5 114.5t-25.5 115t-72 80.5t-109.5 29.5t-109.5 -29.5t-72.5 -80.5
t-26 -115t26 -114.5t72.5 -79t109.5 -28.5zM631 951l-79 105l274 305l116 -147zM292 951l-79 105l274 305l116 -147z" />
    <glyph glyph-name="OE" unicode="&#x152;" horiz-adv-x="1635" 
d="M691 0q-139 0 -258 48.5t-208 136.5t-138.5 209t-49.5 266q0 144 50.5 265t140 209.5t208.5 137t255 48.5h809v-221h-485v-327h466v-220h-466v-331h485v-221h-809zM715 224h52v874h-52q-124 0 -216 -59t-142.5 -157.5t-50.5 -220.5t50 -221t141.5 -157.5t217.5 -58.5z
" />
    <glyph glyph-name="oe" unicode="&#x153;" horiz-adv-x="1658" 
d="M495 -24q-131 0 -233.5 56t-160.5 153.5t-58 222.5t58 223.5t160.5 156t233.5 57.5q132 0 233 -57.5t158 -156t57 -223.5t-57 -222.5t-158 -153.5t-233 -56zM495 187q63 0 109.5 28.5t72 79t25.5 114.5t-25.5 115t-72 80.5t-109.5 29.5t-109.5 -29.5t-72.5 -80.5
t-26 -115t26 -114.5t72.5 -79t109.5 -28.5zM958 354q3 -56 30 -100t78.5 -69t123.5 -25q65 0 114.5 16t84 39.5t51.5 45.5l105 -156q-28 -35 -74.5 -64.5t-118 -47t-178.5 -17.5q-135 0 -237 53t-159 153t-57 238q0 120 51 216.5t148.5 152.5t234.5 56q129 0 223.5 -49.5
t146.5 -144.5t52 -232q0 -8 -0.5 -32.5t-2.5 -32.5h-616zM1339 511q-1 32 -19.5 69t-57.5 63t-104 26t-106.5 -25t-62.5 -61.5t-24 -71.5h374z" />
    <glyph glyph-name="Racute" unicode="&#x154;" horiz-adv-x="1154" 
d="M90 1320h508q112 0 201 -46.5t141.5 -135t52.5 -213.5q0 -124 -46 -203.5t-110.5 -119.5t-119.5 -46l324 -556h-282l-293 537h-127v-537h-249v1320zM339 713h170q95 0 161.5 47t66.5 158t-66 156.5t-160 45.5h-172v-407zM455 1376l-79 107l318 269l126 -159z" />
    <glyph glyph-name="racute" unicode="&#x155;" horiz-adv-x="782" 
d="M329 0h-254v821h254v-133h-5q7 24 38.5 61t87.5 66.5t135 29.5q57 0 103.5 -16.5t66.5 -32.5l-100 -208q-13 16 -48.5 33t-88.5 17q-63 0 -105 -34.5t-63 -84t-21 -92.5v-427zM302 953l-78 107l316 269l127 -159z" />
    <glyph glyph-name="uni0156" unicode="&#x156;" horiz-adv-x="1154" 
d="M90 1320h508q112 0 201 -46.5t141.5 -135t52.5 -213.5q0 -124 -46 -203.5t-110.5 -119.5t-119.5 -46l324 -556h-282l-293 537h-127v-537h-249v1320zM339 713h170q95 0 161.5 47t66.5 158t-66 156.5t-160 45.5h-172v-407zM474 -548l-60 66q39 19 86 60.5t61 91.5
q-17 -8 -43 -8q-45 0 -80 34.5t-35 91.5t39.5 95t93.5 38q56 0 96 -38.5t40 -111.5q0 -66 -27.5 -128.5t-72.5 -112t-98 -78.5z" />
    <glyph glyph-name="uni0157" unicode="&#x157;" horiz-adv-x="757" 
d="M329 0h-254v821h254v-133h-5q7 24 38.5 61t87.5 66.5t135 29.5q57 0 103.5 -16.5t66.5 -32.5l-100 -208q-13 16 -48.5 33t-88.5 17q-63 0 -105 -34.5t-63 -84t-21 -92.5v-427zM311 -536l-60 66q39 19 85.5 60.5t60.5 91.5q-16 -8 -43 -8q-45 0 -80 34.5t-35 91.5
t39.5 95.5t94.5 38.5q56 0 96 -39t40 -111q0 -67 -28 -129.5t-73 -112t-97 -78.5z" />
    <glyph glyph-name="Rcaron" unicode="&#x158;" horiz-adv-x="1154" 
d="M90 1320h508q112 0 201 -46.5t141.5 -135t52.5 -213.5q0 -124 -46 -203.5t-110.5 -119.5t-119.5 -46l324 -556h-282l-293 537h-127v-537h-249v1320zM339 713h170q95 0 161.5 47t66.5 158t-66 156.5t-160 45.5h-172v-407zM539 1412l-291 213l85 112l206 -150l206 150
l83 -112z" />
    <glyph glyph-name="rcaron" unicode="&#x159;" horiz-adv-x="782" 
d="M329 0h-254v821h254v-133h-5q7 24 38.5 61t87.5 66.5t135 29.5q57 0 103.5 -16.5t66.5 -32.5l-100 -208q-13 16 -48.5 33t-88.5 17q-63 0 -105 -34.5t-63 -84t-21 -92.5v-427zM371 948l-332 243l96 129l236 -173l237 173l96 -129z" />
    <glyph glyph-name="Sacute" unicode="&#x15a;" horiz-adv-x="1095" 
d="M548 1344q119 0 207.5 -26.5t141 -56.5t63.5 -39l-122 -203q-16 13 -54.5 36.5t-92.5 42t-117 18.5q-91 0 -145.5 -34.5t-54.5 -99.5q0 -44 29 -78.5t85.5 -64.5t138.5 -63q72 -28 137.5 -65t117 -87t82 -116t30.5 -151q0 -95 -38.5 -166t-106 -119t-154.5 -72t-183 -24
q-130 0 -233.5 30.5t-167.5 65.5t-75 45l128 211q12 -9 45.5 -29t82 -41t106 -36t117.5 -15q108 0 163 45t55 117q0 54 -35 95t-98.5 75.5t-151.5 70.5q-88 37 -163.5 86.5t-121.5 122t-46 178.5q0 105 59.5 183t158 121t213.5 43zM436 1376l-79 107l318 269l126 -159z" />
    <glyph glyph-name="sacute" unicode="&#x15b;" horiz-adv-x="839" 
d="M437 845q74 0 137 -13.5t106.5 -30.5t57.5 -29l-87 -153q-20 16 -71.5 38t-114.5 22q-57 0 -96 -19.5t-39 -58.5t42 -62t117 -40q63 -13 124 -39.5t101 -76t40 -131.5q0 -81 -34.5 -134.5t-91.5 -84.5t-125 -44t-135 -13q-87 0 -153 16.5t-108.5 38t-60.5 36.5l87 170
q26 -23 85.5 -50.5t128.5 -27.5q72 0 113.5 25t41.5 67q0 31 -20 50.5t-55 32.5t-82 23q-43 9 -88 26.5t-84 46.5t-63 72.5t-24 104.5q0 78 50 130.5t130 80t171 27.5zM298 953l-78 107l316 269l127 -159z" />
    <glyph glyph-name="Scircumflex" unicode="&#x15c;" horiz-adv-x="1095" 
d="M548 1344q119 0 207.5 -26.5t141 -56.5t63.5 -39l-122 -203q-16 13 -54.5 36.5t-92.5 42t-117 18.5q-91 0 -145.5 -34.5t-54.5 -99.5q0 -44 29 -78.5t85.5 -64.5t138.5 -63q72 -28 137.5 -65t117 -87t82 -116t30.5 -151q0 -95 -38.5 -166t-106 -119t-154.5 -72t-183 -24
q-130 0 -233.5 30.5t-167.5 65.5t-75 45l128 211q12 -9 45.5 -29t82 -41t106 -36t117.5 -15q108 0 163 45t55 117q0 54 -35 95t-98.5 75.5t-151.5 70.5q-88 37 -163.5 86.5t-121.5 122t-46 178.5q0 105 59.5 183t158 121t213.5 43zM283 1400l-97 128l333 243l332 -244
l-96 -128l-236 173z" />
    <glyph glyph-name="scircumflex" unicode="&#x15d;" horiz-adv-x="839" 
d="M437 845q74 0 137 -13.5t106.5 -30.5t57.5 -29l-87 -153q-20 16 -71.5 38t-114.5 22q-57 0 -96 -19.5t-39 -58.5t42 -62t117 -40q63 -13 124 -39.5t101 -76t40 -131.5q0 -81 -34.5 -134.5t-91.5 -84.5t-125 -44t-135 -13q-87 0 -153 16.5t-108.5 38t-60.5 36.5l87 170
q26 -23 85.5 -50.5t128.5 -27.5q72 0 113.5 25t41.5 67q0 31 -20 50.5t-55 32.5t-82 23q-43 9 -88 26.5t-84 46.5t-63 72.5t-24 104.5q0 78 50 130.5t130 80t171 27.5zM659 899l-237 173l-236 -172l-96 128l332 243l333 -244z" />
    <glyph glyph-name="Scedilla" unicode="&#x15e;" horiz-adv-x="1095" 
d="M548 1344q119 0 207.5 -26.5t141 -56.5t63.5 -39l-122 -203q-16 13 -54.5 36.5t-92.5 42t-117 18.5q-91 0 -145.5 -34.5t-54.5 -99.5q0 -44 29 -78.5t85.5 -64.5t138.5 -63q72 -28 137.5 -65t117 -87t82 -116t30.5 -151q0 -95 -38.5 -166t-106 -119t-154.5 -72t-183 -24
q-130 0 -233.5 30.5t-167.5 65.5t-75 45l128 211q12 -9 45.5 -29t82 -41t106 -36t117.5 -15q108 0 163 45t55 117q0 54 -35 95t-98.5 75.5t-151.5 70.5q-88 37 -163.5 86.5t-121.5 122t-46 178.5q0 105 59.5 183t158 121t213.5 43zM522 -430q-86 0 -148.5 26.5t-87.5 51.5
l88 100q18 -18 53.5 -38t75.5 -20t66 19t26 49q0 36 -27.5 53t-66.5 17q-31 0 -53.5 -4.5t-31.5 -9.5l-20 14l77 214l95 -34l-40 -105q53 6 104 -8t85 -47.5t34 -87.5q0 -60 -32.5 -102.5t-84.5 -65t-112 -22.5z" />
    <glyph glyph-name="scedilla" unicode="&#x15f;" horiz-adv-x="839" 
d="M437 845q74 0 137 -13.5t106.5 -30.5t57.5 -29l-87 -153q-20 16 -71.5 38t-114.5 22q-57 0 -96 -19.5t-39 -58.5t42 -62t117 -40q63 -13 124 -39.5t101 -76t40 -131.5q0 -81 -34.5 -134.5t-91.5 -84.5t-125 -44t-135 -13q-87 0 -153 16.5t-108.5 38t-60.5 36.5l87 170
q26 -23 85.5 -50.5t128.5 -27.5q72 0 113.5 25t41.5 67q0 31 -20 50.5t-55 32.5t-82 23q-43 9 -88 26.5t-84 46.5t-63 72.5t-24 104.5q0 78 50 130.5t130 80t171 27.5zM403 -430q-86 0 -148.5 26.5t-87.5 51.5l88 100q18 -18 53.5 -38t75.5 -20t66 19t26 49q0 36 -27.5 53
t-66.5 17q-31 0 -53.5 -4.5t-31.5 -9.5l-20 14l77 214l95 -34l-40 -105q53 6 104 -8t85 -47.5t34 -87.5q0 -60 -32.5 -102.5t-84.5 -65t-112 -22.5z" />
    <glyph glyph-name="Scaron" unicode="&#x160;" horiz-adv-x="1095" 
d="M548 1344q119 0 207.5 -26.5t141 -56.5t63.5 -39l-122 -203q-16 13 -54.5 36.5t-92.5 42t-117 18.5q-91 0 -145.5 -34.5t-54.5 -99.5q0 -44 29 -78.5t85.5 -64.5t138.5 -63q72 -28 137.5 -65t117 -87t82 -116t30.5 -151q0 -95 -38.5 -166t-106 -119t-154.5 -72t-183 -24
q-130 0 -233.5 30.5t-167.5 65.5t-75 45l128 211q12 -9 45.5 -29t82 -41t106 -36t117.5 -15q108 0 163 45t55 117q0 54 -35 95t-98.5 75.5t-151.5 70.5q-88 37 -163.5 86.5t-121.5 122t-46 178.5q0 105 59.5 183t158 121t213.5 43zM520 1412l-291 213l85 112l206 -150
l206 150l83 -112z" />
    <glyph glyph-name="scaron" unicode="&#x161;" horiz-adv-x="839" 
d="M437 845q74 0 137 -13.5t106.5 -30.5t57.5 -29l-87 -153q-20 16 -71.5 38t-114.5 22q-57 0 -96 -19.5t-39 -58.5t42 -62t117 -40q63 -13 124 -39.5t101 -76t40 -131.5q0 -81 -34.5 -134.5t-91.5 -84.5t-125 -44t-135 -13q-87 0 -153 16.5t-108.5 38t-60.5 36.5l87 170
q26 -23 85.5 -50.5t128.5 -27.5q72 0 113.5 25t41.5 67q0 31 -20 50.5t-55 32.5t-82 23q-43 9 -88 26.5t-84 46.5t-63 72.5t-24 104.5q0 78 50 130.5t130 80t171 27.5zM438 948l-332 243l96 129l236 -173l237 173l96 -129z" />
    <glyph glyph-name="uni0162" unicode="&#x162;" horiz-adv-x="1008" 
d="M350 1099h-331v221h911v-221h-330v-1099h-250v1099zM503 -430q-86 0 -148.5 26.5t-87.5 51.5l88 100q18 -18 53.5 -38t75.5 -20t66 19t26 49q0 36 -27.5 53t-66.5 17q-31 0 -53.5 -4.5t-31.5 -9.5l-20 14l77 214l95 -34l-40 -105q53 6 104 -8t85 -47.5t34 -87.5
q0 -60 -32.5 -102.5t-84.5 -65t-112 -22.5z" />
    <glyph glyph-name="uni0163" unicode="&#x163;" horiz-adv-x="702" 
d="M22 821h148v337h252v-337h194v-211h-194v-297q0 -59 19 -91.5t60 -32.5q31 0 51 12.5t24 17.5l90 -182q-6 -6 -38.5 -21t-83 -27.5t-113.5 -12.5q-113 0 -187 65.5t-74 203.5v365h-148v211zM440 -438q-86 0 -148.5 26.5t-87.5 51.5l88 100q18 -18 53.5 -38t75.5 -20
t66 19t26 49q0 36 -27.5 53t-66.5 17q-31 0 -53.5 -4.5t-31.5 -9.5l-20 14l77 214l95 -34l-40 -105q53 6 104 -8t85 -47.5t34 -87.5q0 -60 -32.5 -102.5t-84.5 -65t-112 -22.5z" />
    <glyph glyph-name="Tcaron" unicode="&#x164;" horiz-adv-x="1008" 
d="M350 1099h-331v221h911v-221h-330v-1099h-250v1099zM476 1412l-291 213l85 112l206 -150l206 150l83 -112z" />
    <glyph glyph-name="tcaron" unicode="&#x165;" horiz-adv-x="691" 
d="M431 -24q-113 0 -187 65.5t-74 203.5v365h-148v211h148v337h252v-337h194v-211h-194v-297q0 -59 19 -91.5t60 -32.5q31 0 51 12.5t24 17.5l90 -182q-6 -6 -38.5 -21t-83 -27.5t-113.5 -12.5zM658 924l-45 49q30 15 65 46.5t46 69.5q-11 -6 -32 -6q-35 0 -61 26t-26 68
t29.5 71.5t70.5 29.5q42 0 72 -29.5t30 -84.5q0 -49 -20.5 -96t-54.5 -84.5t-74 -59.5z" />
    <glyph glyph-name="Tbar" unicode="&#x166;" horiz-adv-x="1008" 
d="M26 784h892v-185h-892v185zM350 1099h-331v221h911v-221h-330v-1099h-250v1099z" />
    <glyph glyph-name="tbar" unicode="&#x167;" horiz-adv-x="691" 
d="M23 505h593v-103h-593v103zM22 821h148v337h252v-337h194v-211h-194v-297q0 -59 19 -91.5t60 -32.5q31 0 51 12.5t24 17.5l90 -182q-6 -6 -38.5 -21t-83 -27.5t-113.5 -12.5q-113 0 -187 65.5t-74 203.5v365h-148v211z" />
    <glyph glyph-name="Utilde" unicode="&#x168;" horiz-adv-x="1262" 
d="M880 1320h250v-814q0 -163 -64.5 -282t-181 -183.5t-274.5 -64.5q-159 0 -276.5 64.5t-182 183.5t-64.5 282v814h249v-801q0 -100 34.5 -170.5t96.5 -107t143 -36.5q80 0 141 36.5t95 107t34 170.5v801zM254 1410q10 54 36 111.5t69 97.5t103 40q62 0 107.5 -19
t85.5 -37.5t85 -18.5q31 0 50.5 25.5t25.5 49.5h148q-10 -53 -36 -111t-69 -98t-103 -40q-62 0 -108 19t-86 37.5t-83 18.5q-30 0 -50 -25.5t-27 -49.5h-148z" />
    <glyph glyph-name="utilde" unicode="&#x169;" horiz-adv-x="1068" 
d="M332 428q0 -110 44 -175.5t142 -65.5q99 0 143 65.5t44 175.5v393h250v-422q0 -127 -51 -222.5t-148.5 -148t-237.5 -52.5q-139 0 -236.5 52.5t-148.5 148t-51 222.5v422h250v-393zM179 989q10 54 36 111.5t69 97.5t102 40q63 0 108.5 -19t85.5 -37.5t85 -18.5
q31 0 50.5 25.5t25.5 49.5h148q-10 -54 -36.5 -111.5t-69.5 -97.5t-102 -40q-62 0 -108 19t-86 37t-83 18q-30 0 -50 -25t-27 -49h-148z" />
    <glyph glyph-name="Umacron" unicode="&#x16a;" horiz-adv-x="1262" 
d="M880 1320h250v-814q0 -163 -64.5 -282t-181 -183.5t-274.5 -64.5q-159 0 -276.5 64.5t-182 183.5t-64.5 282v814h249v-801q0 -100 34.5 -170.5t96.5 -107t143 -36.5q80 0 141 36.5t95 107t34 170.5v801zM296 1450v164h627v-164h-627z" />
    <glyph glyph-name="umacron" unicode="&#x16b;" horiz-adv-x="1068" 
d="M332 428q0 -110 44 -175.5t142 -65.5q99 0 143 65.5t44 175.5v393h250v-422q0 -127 -51 -222.5t-148.5 -148t-237.5 -52.5q-139 0 -236.5 52.5t-148.5 148t-51 222.5v422h250v-393zM183 1028v164h627v-164h-627z" />
    <glyph glyph-name="Ubreve" unicode="&#x16c;" horiz-adv-x="1262" 
d="M880 1320h250v-814q0 -163 -64.5 -282t-181 -183.5t-274.5 -64.5q-159 0 -276.5 64.5t-182 183.5t-64.5 282v814h249v-801q0 -100 34.5 -170.5t96.5 -107t143 -36.5q80 0 141 36.5t95 107t34 170.5v801zM609 1391q-87 0 -153.5 32t-106 86t-47.5 122l157 39
q4 -30 21.5 -63.5t49.5 -57t79 -23.5q48 0 79.5 23.5t49 57t21.5 63.5l157 -39q-7 -65 -46 -120t-105 -87.5t-156 -32.5z" />
    <glyph glyph-name="ubreve" unicode="&#x16d;" horiz-adv-x="1068" 
d="M332 428q0 -110 44 -175.5t142 -65.5q99 0 143 65.5t44 175.5v393h250v-422q0 -127 -51 -222.5t-148.5 -148t-237.5 -52.5q-139 0 -236.5 52.5t-148.5 148t-51 222.5v422h250v-393zM518 933q-96 0 -169.5 35t-118 95t-52.5 136l176 44q5 -33 23.5 -70t53.5 -62t87 -25
t87 25t54 62t23 70l176 -44q-8 -73 -51.5 -133.5t-117 -96.5t-171.5 -36z" />
    <glyph glyph-name="Uring" unicode="&#x16e;" horiz-adv-x="1262" 
d="M880 1320h250v-814q0 -163 -64.5 -282t-181 -183.5t-274.5 -64.5q-159 0 -276.5 64.5t-182 183.5t-64.5 282v814h249v-801q0 -100 34.5 -170.5t96.5 -107t143 -36.5q80 0 141 36.5t95 107t34 170.5v801zM610 1364q-96 0 -155 53t-59 137q0 82 62 135.5t152 53.5
t151 -53.5t61 -135.5q0 -84 -59.5 -137t-152.5 -53zM610 1472q32 0 54 22t22 60q0 37 -22.5 57.5t-53.5 20.5q-32 0 -55 -20.5t-23 -57.5q0 -38 22.5 -60t55.5 -22z" />
    <glyph glyph-name="uring" unicode="&#x16f;" horiz-adv-x="1068" 
d="M332 428q0 -110 44 -175.5t142 -65.5q99 0 143 65.5t44 175.5v393h250v-422q0 -127 -51 -222.5t-148.5 -148t-237.5 -52.5q-139 0 -236.5 52.5t-148.5 148t-51 222.5v422h250v-393zM518 921q-106 0 -171.5 58.5t-65.5 151.5q0 61 32 108.5t85.5 74.5t119.5 27
q67 0 120.5 -27t84.5 -74.5t31 -108.5q0 -93 -66 -151.5t-170 -58.5zM518 1044q35 0 59 23.5t24 63.5t-24.5 62.5t-58.5 22.5t-59 -22.5t-25 -62.5q0 -41 24.5 -64t59.5 -23z" />
    <glyph glyph-name="Uhungarumlaut" unicode="&#x170;" horiz-adv-x="1262" 
d="M880 1320h250v-814q0 -163 -64.5 -282t-181 -183.5t-274.5 -64.5q-159 0 -276.5 64.5t-182 183.5t-64.5 282v814h249v-801q0 -100 34.5 -170.5t96.5 -107t143 -36.5q80 0 141 36.5t95 107t34 170.5v801zM315 1383l-79 78l274 249l116 -113zM671 1383l-78 78l273 249
l117 -113z" />
    <glyph glyph-name="uhungarumlaut" unicode="&#x171;" horiz-adv-x="1068" 
d="M332 428q0 -110 44 -175.5t142 -65.5q99 0 143 65.5t44 175.5v393h250v-422q0 -127 -51 -222.5t-148.5 -148t-237.5 -52.5q-139 0 -236.5 52.5t-148.5 148t-51 222.5v422h250v-393zM656 951l-79 105l274 305l116 -147zM317 951l-79 105l274 305l116 -147z" />
    <glyph glyph-name="Uogonek" unicode="&#x172;" horiz-adv-x="1253" 
d="M880 1320h250v-814q0 -163 -64.5 -282t-181 -183.5t-274.5 -64.5q-159 0 -276.5 64.5t-182 183.5t-64.5 282v814h249v-801q0 -100 34.5 -170.5t96.5 -107t143 -36.5q80 0 141 36.5t95 107t34 170.5v801zM640 -432q-42 0 -88 16.5t-78 55.5t-32 108q0 48 27.5 102.5
t67.5 105t76 85.5l80 -41q-23 -25 -48.5 -63t-43 -81t-17.5 -82q0 -42 24 -59t57 -17q31 0 56 17.5t37 35.5l101 -76q-23 -37 -83.5 -72t-135.5 -35z" />
    <glyph glyph-name="uogonek" unicode="&#x173;" horiz-adv-x="1068" 
d="M332 428q0 -110 44 -175.5t142 -65.5q99 0 143 65.5t44 175.5v393h250v-422q0 -127 -51 -222.5t-148.5 -148t-237.5 -52.5q-139 0 -236.5 52.5t-148.5 148t-51 222.5v422h250v-393zM531 -432q-42 0 -88 16.5t-78 55.5t-32 108q0 48 27.5 102.5t67.5 105t76 85.5l80 -41
q-23 -25 -48.5 -63t-43 -81t-17.5 -82q0 -42 24 -59t57 -17q31 0 56 17.5t37 35.5l101 -76q-23 -37 -83.5 -72t-135.5 -35z" />
    <glyph glyph-name="Wcircumflex" unicode="&#x174;" horiz-adv-x="1760" 
d="M1371 0h-304l-245 998h46l-246 -998h-305l-292 1320h286l175 -992h-3l262 992h199l263 -992h-4l176 992h286zM620 1400l-97 128l333 243l332 -244l-96 -128l-236 173z" />
    <glyph glyph-name="wcircumflex" unicode="&#x175;" horiz-adv-x="1408" 
d="M689 529l-198 -529h-241l-253 821h270l138 -548l195 532h179l193 -532l139 548h270l-252 -821h-241zM926 899l-237 173l-236 -172l-96 128l332 243l333 -244z" />
    <glyph glyph-name="Ycircumflex" unicode="&#x176;" horiz-adv-x="1164" 
d="M429 475l-451 845h303l272 -558l273 558h301l-448 -845v-475h-250v475zM317 1400l-97 128l333 243l332 -244l-96 -128l-236 173z" />
    <glyph glyph-name="ycircumflex" unicode="&#x177;" horiz-adv-x="989" 
d="M478 223l243 598h251l-561 -1237h-255l189 416l-341 821h254zM716 899l-237 173l-236 -172l-96 128l332 243l333 -244z" />
    <glyph glyph-name="Ydieresis" unicode="&#x178;" horiz-adv-x="1164" 
d="M429 475l-451 845h303l272 -558l273 558h301l-448 -845v-475h-250v475zM752 1404q-55 0 -93 39t-38 92q0 54 38 93t93 39q54 0 92.5 -39t38.5 -93t-38.5 -92.5t-92.5 -38.5zM355 1404q-55 0 -93 39t-38 92q0 54 38 93t93 39q53 0 92 -39t39 -93t-39 -92.5t-92 -38.5z" />
    <glyph glyph-name="Zacute" unicode="&#x179;" horiz-adv-x="1228" 
d="M114 1320h1035l-689 -1099h646v-221h-1085l689 1099h-596v221zM503 1376l-79 107l318 269l126 -159z" />
    <glyph glyph-name="zacute" unicode="&#x17a;" horiz-adv-x="877" 
d="M66 821h776l-441 -640h413v-181h-810l441 641h-379v180zM364 953l-78 107l316 269l127 -159z" />
    <glyph glyph-name="Zdotaccent" unicode="&#x17b;" horiz-adv-x="1228" 
d="M114 1320h1035l-689 -1099h646v-221h-1085l689 1099h-596v221zM585 1432q-54 0 -92.5 39t-38.5 92q0 54 38.5 93t92.5 39t92.5 -39t38.5 -93t-38.5 -92.5t-92.5 -38.5z" />
    <glyph glyph-name="zdotaccent" unicode="&#x17c;" horiz-adv-x="877" 
d="M66 821h776l-441 -640h413v-181h-810l441 641h-379v180zM425 987q-54 0 -92.5 39t-38.5 92q0 54 38.5 93t92.5 39t92.5 -39t38.5 -93t-38.5 -92.5t-92.5 -38.5z" />
    <glyph glyph-name="Zcaron" unicode="&#x17d;" horiz-adv-x="1228" 
d="M114 1320h1035l-689 -1099h646v-221h-1085l689 1099h-596v221zM587 1412l-291 213l85 112l206 -150l206 150l83 -112z" />
    <glyph glyph-name="zcaron" unicode="&#x17e;" horiz-adv-x="877" 
d="M66 821h776l-441 -640h413v-181h-810l441 641h-379v180zM436 948l-332 243l96 129l236 -173l237 173l96 -129z" />
    <glyph glyph-name="uni018F" unicode="&#x18f;" horiz-adv-x="1370" 
d="M650 -20q-140 0 -252.5 51.5t-191.5 144t-121.5 217.5t-42.5 271q0 6 0.5 23l1 34t1.5 21h983q0 113 -46.5 197.5t-131 131.5t-200.5 47q-79 0 -140.5 -20.5t-105.5 -51t-73 -62t-43 -52.5l-191 163q29 44 104.5 102.5t189.5 102.5t259 44q179 0 321.5 -77t226.5 -226.5
t84 -368.5q0 -208 -77.5 -364t-219 -242t-335.5 -86zM653 189q92 0 161.5 32.5t115.5 87t69 121.5t23 137h-727q0 -67 22.5 -134t67 -122.5t111.5 -88.5t157 -33z" />
    <glyph glyph-name="florin" unicode="&#x192;" horiz-adv-x="686" 
d="M-53 -432q-92 0 -145 21.5t-58 26.5l116 197q5 -4 25 -16t57 -12q26 0 53.5 12.5t49 48t31.5 102.5l92 662h-147l29 211h148l31 223q17 122 76 200.5t140 117t162 38.5q93 0 146 -21t58 -27l-118 -197q-3 4 -23 16.5t-58 12.5q-25 0 -52.5 -13t-49 -48t-31.5 -103
l-27 -199h196l-30 -211h-196l-97 -686q-16 -122 -75.5 -200.5t-140.5 -117t-162 -38.5z" />
    <glyph glyph-name="Ohorn" unicode="&#x1a0;" horiz-adv-x="1469" 
d="M302 661q0 -126 52.5 -228t144.5 -161.5t213 -59.5t213.5 59.5t144.5 161.5t52 228t-52 227.5t-144.5 161.5t-213.5 60t-213 -60t-144.5 -161.5t-52.5 -227.5zM42 661q0 144 50.5 268.5t141.5 217.5t213.5 145t264.5 52q144 0 266 -52t212.5 -145t140.5 -217.5t50 -268.5
q0 -145 -49 -269.5t-139 -218t-212 -145.5t-269 -52q-149 0 -271.5 52t-212 145.5t-138 218t-48.5 269.5zM1218 1042q-33 0 -58.5 8t-48.5 21v128q15 -13 37 -21.5t52 -8.5q53 0 81 39.5t28 88.5q0 43 -6 69t-18 54h165q8 -14 19.5 -48t11.5 -93q0 -67 -36.5 -121t-96.5 -85
t-130 -31z" />
    <glyph glyph-name="ohorn" unicode="&#x1a1;" horiz-adv-x="1021" 
d="M495 -24q-131 0 -233.5 56t-160.5 153.5t-58 222.5t58 223.5t160.5 156t233.5 57.5q132 0 233 -57.5t158 -156t57 -223.5t-57 -222.5t-158 -153.5t-233 -56zM495 187q63 0 109.5 28.5t72 79t25.5 114.5t-25.5 115t-72 80.5t-109.5 29.5t-109.5 -29.5t-72.5 -80.5
t-26 -115t26 -114.5t72.5 -79t109.5 -28.5zM825 629q-33 0 -58.5 8t-48.5 21v128q15 -13 37 -21.5t52 -8.5q53 0 81 39.5t28 88.5q0 43 -6 69t-18 54h165q8 -13 19.5 -47.5t11.5 -92.5q0 -68 -36.5 -122t-96.5 -85t-130 -31z" />
    <glyph glyph-name="Uhorn" unicode="&#x1af;" horiz-adv-x="1496" 
d="M880 1320h250v-814q0 -163 -64.5 -282t-181 -183.5t-274.5 -64.5q-159 0 -276.5 64.5t-182 183.5t-64.5 282v814h249v-801q0 -100 34.5 -170.5t96.5 -107t143 -36.5q80 0 141 36.5t95 107t34 170.5v801zM1237 1163q-33 0 -58.5 8t-48.5 21v128q15 -13 37 -21.5t52 -8.5
q53 0 81 39.5t28 88.5q0 43 -6 69t-18 54h165q8 -13 19.5 -47.5t11.5 -92.5q0 -68 -36.5 -122t-96.5 -85t-130 -31z" />
    <glyph glyph-name="uhorn" unicode="&#x1b0;" horiz-adv-x="1321" 
d="M332 428q0 -110 44 -175.5t142 -65.5q99 0 143 65.5t44 175.5v393h250v-422q0 -127 -51 -222.5t-148.5 -148t-237.5 -52.5q-139 0 -236.5 52.5t-148.5 148t-51 222.5v422h250v-393zM1062 664q-33 0 -58.5 8t-48.5 21v128q15 -13 37 -21.5t52 -8.5q53 0 81 39.5t28 88.5
q0 43 -6 69t-18 54h165q8 -13 19.5 -47.5t11.5 -92.5q0 -68 -36.5 -122t-96.5 -85t-130 -31z" />
    <glyph glyph-name="uni01C4" unicode="&#x1c4;" horiz-adv-x="2406" 
d="M94 1320h364q211 0 348.5 -84.5t205.5 -233.5t68 -341q0 -193 -68 -342t-205.5 -234t-348.5 -85h-364v1320zM342 1097v-874h94q129 0 212.5 56.5t125 155.5t41.5 224q1 126 -40 225t-125.5 156t-213.5 57h-94zM1291 1320h1035l-689 -1099h646v-221h-1085l689 1099h-596
v221zM1779 1447l-332 243l96 129l236 -173l237 173l96 -129z" />
    <glyph glyph-name="uni01C5" unicode="&#x1c5;" horiz-adv-x="2054" 
d="M94 1320h364q211 0 348.5 -84.5t205.5 -233.5t68 -341q0 -193 -68 -342t-205.5 -234t-348.5 -85h-364v1320zM342 1097v-874h94q129 0 212.5 56.5t125 155.5t41.5 224q1 126 -40 225t-125.5 156t-213.5 57h-94zM1243 821h776l-441 -640h413v-181h-810l441 641h-379v180z
M1618 948l-332 243l96 129l236 -173l237 173l96 -129z" />
    <glyph glyph-name="uni01C6" unicode="&#x1c6;" horiz-adv-x="1967" 
d="M448 -24q-117 0 -205.5 56.5t-138 155t-49.5 222.5t49.5 222.5t138 155.5t205.5 57q83 0 147.5 -27t103.5 -64t46 -66v688h255v-1376h-252v143q-16 -35 -59 -74t-105 -66t-136 -27zM520 178q64 0 115 29.5t80.5 82t29.5 120.5t-29.5 120.5t-80.5 82.5t-115 30
q-59 0 -108 -29.5t-78.5 -82t-29.5 -121.5t29.5 -121.5t78.5 -81.5t108 -29zM1156 821h776l-441 -640h413v-181h-810l441 641h-379v180zM1531 948l-332 243l96 129l236 -173l237 173l96 -129z" />
    <glyph glyph-name="uni01C7" unicode="&#x1c7;" horiz-adv-x="1760" 
d="M98 1320h250v-1099h495v-221h-745v1320zM1637 404q0 -134 -47 -230t-136 -147t-214 -51q-93 0 -159.5 24.5t-105 53.5t-47.5 43l97 216q12 -17 35 -39.5t59 -39t86 -16.5q58 0 98.5 25t62 76.5t21.5 128.5v872h250v-916z" />
    <glyph glyph-name="uni01C8" unicode="&#x1c8;" horiz-adv-x="1471" 
d="M98 1320h250v-1099h495v-221h-745v1320zM1040 -440q-81 0 -134.5 16.5t-79.5 33.5l83 190q15 -12 32.5 -18.5t44.5 -6.5q34 0 54.5 19.5t29.5 56.5t9 89v881h254v-927q0 -96 -29.5 -171.5t-94 -119t-169.5 -43.5zM1210 1033q-62 0 -106 44t-44 105q0 41 20.5 75t54.5 55
t75 21t75 -20.5t54.5 -54.5t20.5 -76q0 -61 -44 -105t-106 -44z" />
    <glyph glyph-name="uni01C9" unicode="&#x1c9;" horiz-adv-x="988" 
d="M349 0h-255v1376h255v-1376zM557 -440q-81 0 -134.5 16.5t-79.5 33.5l83 190q15 -12 32.5 -18.5t44.5 -6.5q34 0 54.5 19.5t29.5 56.5t9 89v881h254v-927q0 -96 -29.5 -171.5t-94 -119t-169.5 -43.5zM727 1033q-62 0 -106 44t-44 105q0 41 20.5 75t54.5 55t75 21
t75 -20.5t54.5 -54.5t20.5 -76q0 -61 -44 -105t-106 -44z" />
    <glyph glyph-name="uni01CA" unicode="&#x1ca;" horiz-adv-x="2215" 
d="M326 1089l17 -3v-1086h-249v1320h344l592 -1084l-17 -4v1088h249v-1320h-346zM2092 404q0 -134 -47 -230t-136 -147t-214 -51q-93 0 -159.5 24.5t-105 53.5t-47.5 43l97 216q12 -17 35 -39.5t59 -39t86 -16.5q58 0 98.5 25t62 76.5t21.5 128.5v872h250v-916z" />
    <glyph glyph-name="uni01CB" unicode="&#x1cb;" horiz-adv-x="1926" 
d="M326 1089l17 -3v-1086h-249v1320h344l592 -1084l-17 -4v1088h249v-1320h-346zM1495 -440q-81 0 -134.5 16.5t-79.5 33.5l83 190q15 -12 32.5 -18.5t44.5 -6.5q34 0 54.5 19.5t29.5 56.5t9 89v881h254v-927q0 -96 -29.5 -171.5t-94 -119t-169.5 -43.5zM1665 1033
q-62 0 -106 44t-44 105q0 41 20.5 75t54.5 55t75 21t75 -20.5t54.5 -54.5t20.5 -76q0 -61 -44 -105t-106 -44z" />
    <glyph glyph-name="uni01CC" unicode="&#x1cc;" horiz-adv-x="1583" 
d="M616 845q84 0 164 -34.5t131.5 -109.5t51.5 -196v-505h-255v461q0 101 -47.5 150t-124.5 49q-50 0 -95.5 -27.5t-74 -76t-28.5 -110.5v-446h-254v821h254v-131q11 34 50 70t99 60.5t129 24.5zM1152 -440q-81 0 -134.5 16.5t-79.5 33.5l83 190q15 -12 32.5 -18.5
t44.5 -6.5q34 0 54.5 19.5t29.5 56.5t9 89v881h254v-927q0 -96 -29.5 -171.5t-94 -119t-169.5 -43.5zM1322 1033q-62 0 -106 44t-44 105q0 41 20.5 75t54.5 55t75 21t75 -20.5t54.5 -54.5t20.5 -76q0 -61 -44 -105t-106 -44z" />
    <glyph glyph-name="uni01CE" unicode="&#x1ce;" horiz-adv-x="1104" 
d="M738 0v143q-9 -22 -46 -62t-99.5 -72.5t-146.5 -32.5q-118 0 -209 56.5t-142.5 155t-51.5 222.5t51.5 222.5t142.5 155.5t209 57q82 0 142.5 -27.5t98 -64t48.5 -65.5v133h252v-821h-249zM292 410q0 -69 31 -121.5t82 -81.5t111 -29q63 0 112 29.5t77.5 82t28.5 120.5
t-28.5 120.5t-77.5 82.5t-112 30q-60 0 -111 -29.5t-82 -82t-31 -121.5zM545 948l-332 243l96 129l236 -173l237 173l96 -129z" />
    <glyph glyph-name="uni01D0" unicode="&#x1d0;" horiz-adv-x="414" 
d="M74 0v821h236v-821h-236zM209 948l-332 243l96 129l236 -173l237 173l96 -129z" />
    <glyph glyph-name="uni01D2" unicode="&#x1d2;" horiz-adv-x="1021" 
d="M495 -24q-131 0 -233.5 56t-160.5 153.5t-58 222.5t58 223.5t160.5 156t233.5 57.5q132 0 233 -57.5t158 -156t57 -223.5t-57 -222.5t-158 -153.5t-233 -56zM495 187q63 0 109.5 28.5t72 79t25.5 114.5t-25.5 115t-72 80.5t-109.5 29.5t-109.5 -29.5t-72.5 -80.5
t-26 -115t26 -114.5t72.5 -79t109.5 -28.5zM509 948l-332 243l96 129l236 -173l237 173l96 -129z" />
    <glyph glyph-name="uni01D4" unicode="&#x1d4;" horiz-adv-x="1068" 
d="M332 428q0 -110 44 -175.5t142 -65.5q99 0 143 65.5t44 175.5v393h250v-422q0 -127 -51 -222.5t-148.5 -148t-237.5 -52.5q-139 0 -236.5 52.5t-148.5 148t-51 222.5v422h250v-393zM534 948l-332 243l96 129l236 -173l237 173l96 -129z" />
    <glyph glyph-name="uni01D6" unicode="&#x1d6;" horiz-adv-x="1068" 
d="M332 428q0 -110 44 -175.5t142 -65.5q99 0 143 65.5t44 175.5v393h250v-422q0 -127 -51 -222.5t-148.5 -148t-237.5 -52.5q-139 0 -236.5 52.5t-148.5 148t-51 222.5v422h250v-393zM732 975q-55 0 -93.5 39t-38.5 92q0 54 38.5 93t93.5 39q53 0 92 -39t39 -93t-39 -92.5
t-92 -38.5zM334 975q-55 0 -93 39t-38 92q0 54 38 93t93 39q54 0 92.5 -39t38.5 -93t-38.5 -92.5t-92.5 -38.5zM224 1347v164h627v-164h-627z" />
    <glyph glyph-name="uni01D8" unicode="&#x1d8;" horiz-adv-x="1068" 
d="M332 428q0 -110 44 -175.5t142 -65.5q99 0 143 65.5t44 175.5v393h250v-422q0 -127 -51 -222.5t-148.5 -148t-237.5 -52.5q-139 0 -236.5 52.5t-148.5 148t-51 222.5v422h250v-393zM732 975q-55 0 -93.5 39t-38.5 92q0 54 38.5 93t93.5 39q53 0 92 -39t39 -93t-39 -92.5
t-92 -38.5zM334 975q-55 0 -93 39t-38 92q0 54 38 93t93 39q54 0 92.5 -39t38.5 -93t-38.5 -92.5t-92.5 -38.5zM391 1260l-78 107l316 269l127 -159z" />
    <glyph glyph-name="uni01DA" unicode="&#x1da;" horiz-adv-x="1068" 
d="M332 428q0 -110 44 -175.5t142 -65.5q99 0 143 65.5t44 175.5v393h250v-422q0 -127 -51 -222.5t-148.5 -148t-237.5 -52.5q-139 0 -236.5 52.5t-148.5 148t-51 222.5v422h250v-393zM732 975q-55 0 -93.5 39t-38.5 92q0 54 38.5 93t93.5 39q53 0 92 -39t39 -93t-39 -92.5
t-92 -38.5zM334 975q-55 0 -93 39t-38 92q0 54 38 93t93 39q54 0 92.5 -39t38.5 -93t-38.5 -92.5t-92.5 -38.5zM534 1288l-332 243l96 129l236 -173l237 173l96 -129z" />
    <glyph glyph-name="uni01DC" unicode="&#x1dc;" horiz-adv-x="1068" 
d="M332 428q0 -110 44 -175.5t142 -65.5q99 0 143 65.5t44 175.5v393h250v-422q0 -127 -51 -222.5t-148.5 -148t-237.5 -52.5q-139 0 -236.5 52.5t-148.5 148t-51 222.5v422h250v-393zM732 975q-55 0 -93.5 39t-38.5 92q0 54 38.5 93t93.5 39q53 0 92 -39t39 -93t-39 -92.5
t-92 -38.5zM334 975q-55 0 -93 39t-38 92q0 54 38 93t93 39q54 0 92.5 -39t38.5 -93t-38.5 -92.5t-92.5 -38.5zM677 1293l-365 217l127 159l318 -269z" />
    <glyph glyph-name="Gcaron" unicode="&#x1e6;" horiz-adv-x="1458" 
d="M699 730h670v-79q0 -141 -47.5 -263.5t-135.5 -215t-208.5 -144.5t-265.5 -52q-149 0 -272 53t-212 147t-137.5 218.5t-48.5 266.5q0 141 48.5 265.5t137.5 218t212 146.5t272 53q115 0 205 -25t157.5 -67.5t117 -94t82.5 -103.5l-234 -114q-48 70 -127.5 120t-200.5 50
q-90 0 -165.5 -35.5t-130 -97.5t-84.5 -143.5t-30 -172.5q0 -92 30 -173t84.5 -143.5t130 -97.5t165.5 -35q82 0 149 24t116.5 68t78.5 103.5t33 128.5h-390v194zM714 1412l-291 213l85 112l206 -150l206 150l83 -112z" />
    <glyph glyph-name="gcaron" unicode="&#x1e7;" horiz-adv-x="1108" 
d="M508 -439q-90 0 -172.5 17t-149.5 53t-112 94l154 156q21 -27 54.5 -54.5t85.5 -46t130 -18.5q74 0 127.5 28.5t83 80.5t29.5 121v23h249v-38q0 -136 -64 -229t-172 -140t-243 -47zM738 0v143q-9 -22 -46 -62t-99.5 -72.5t-146.5 -32.5q-118 0 -209 56.5t-142.5 155
t-51.5 222.5t51.5 222.5t142.5 155.5t209 57q82 0 142.5 -27.5t98 -64t48.5 -65.5v133h252v-821h-249zM292 410q0 -69 31 -121.5t82 -81.5t111 -29q63 0 112 29.5t77.5 82t28.5 120.5t-28.5 120.5t-77.5 82.5t-112 30q-60 0 -111 -29.5t-82 -82t-31 -121.5zM541 948
l-332 243l96 129l236 -173l237 173l96 -129z" />
    <glyph glyph-name="uni01EA" unicode="&#x1ea;" horiz-adv-x="1469" 
d="M302 661q0 -126 52.5 -228t144.5 -161.5t213 -59.5t213.5 59.5t144.5 161.5t52 228t-52 227.5t-144.5 161.5t-213.5 60t-213 -60t-144.5 -161.5t-52.5 -227.5zM42 661q0 144 50.5 268.5t141.5 217.5t213.5 145t264.5 52q144 0 266 -52t212.5 -145t140.5 -217.5t50 -268.5
q0 -145 -49 -269.5t-139 -218t-212 -145.5t-269 -52q-149 0 -271.5 52t-212 145.5t-138 218t-48.5 269.5zM818 -432q-42 0 -88 16.5t-78 55.5t-32 108q0 48 27.5 102.5t67.5 105t76 85.5l80 -41q-23 -25 -48.5 -63.5t-43 -81.5t-17.5 -84q0 -38 25 -55.5t53 -17.5
q33 0 58.5 17.5t37.5 35.5l101 -76q-23 -37 -83.5 -72t-135.5 -35z" />
    <glyph glyph-name="uni01EB" unicode="&#x1eb;" horiz-adv-x="1021" 
d="M495 -24q-131 0 -233.5 56t-160.5 153.5t-58 222.5t58 223.5t160.5 156t233.5 57.5q132 0 233 -57.5t158 -156t57 -223.5t-57 -222.5t-158 -153.5t-233 -56zM495 187q63 0 109.5 28.5t72 79t25.5 114.5t-25.5 115t-72 80.5t-109.5 29.5t-109.5 -29.5t-72.5 -80.5
t-26 -115t26 -114.5t72.5 -79t109.5 -28.5zM599 -432q-42 0 -88 16.5t-78 55.5t-32 108q0 48 27.5 102.5t67.5 105t76 85.5l80 -41q-23 -25 -48.5 -63.5t-43 -81.5t-17.5 -84q0 -38 25 -55.5t53 -17.5q33 0 58.5 17.5t37.5 35.5l101 -76q-23 -37 -83.5 -72t-135.5 -35z" />
    <glyph glyph-name="Aringacute" unicode="&#x1fa;" horiz-adv-x="1296" 
d="M511 1320h251l508 -1320h-266l-103 285h-528l-105 -285h-267zM455 506h364l-181 512h-3zM637 1364q-96 0 -155 53t-59 137q0 82 62 135.5t152 53.5t151 -53.5t61 -135.5q0 -84 -59.5 -137t-152.5 -53zM637 1472q32 0 54 22t22 60q0 37 -22.5 57.5t-53.5 20.5
q-32 0 -55 -20.5t-23 -57.5q0 -38 22.5 -60t55.5 -22zM553 1799l-79 107l318 269l126 -159z" />
    <glyph glyph-name="aringacute" unicode="&#x1fb;" horiz-adv-x="1104" 
d="M738 0v143q-9 -22 -46 -62t-99.5 -72.5t-146.5 -32.5q-118 0 -209 56.5t-142.5 155t-51.5 222.5t51.5 222.5t142.5 155.5t209 57q82 0 142.5 -27.5t98 -64t48.5 -65.5v133h252v-821h-249zM292 410q0 -69 31 -121.5t82 -81.5t111 -29q63 0 112 29.5t77.5 82t28.5 120.5
t-28.5 120.5t-77.5 82.5t-112 30q-60 0 -111 -29.5t-82 -82t-31 -121.5zM528 921q-106 0 -171.5 58.5t-65.5 151.5q0 61 32 108.5t85.5 74.5t119.5 27q67 0 120.5 -27t84.5 -74.5t31 -108.5q0 -93 -66 -151.5t-170 -58.5zM528 1044q35 0 59 23.5t24 63.5t-24.5 62.5
t-58.5 22.5t-59 -22.5t-25 -62.5q0 -41 24.5 -64t59.5 -23zM401 1348l-78 107l316 269l127 -159z" />
    <glyph glyph-name="AEacute" unicode="&#x1fc;" horiz-adv-x="1695" 
d="M711 1320h263l-43 -1035h-515l-153 -285h-271zM511 478h296v514l-4 7zM791 1320h819v-221h-571v-330h563v-214h-563v-334h571v-221h-819v1320zM1057 1420l-78 107l316 269l127 -159z" />
    <glyph glyph-name="aeacute" unicode="&#x1fd;" horiz-adv-x="1542" 
d="M376 -24q-87 0 -157.5 32t-111.5 94.5t-41 152.5q0 74 43.5 132.5t118.5 93t170 34.5q66 0 112 -12.5t73.5 -28t37.5 -25.5v29q0 47 -16 82t-45 58t-69 35t-88 12q-80 0 -142.5 -24t-90.5 -47l-108 165q38 28 132.5 57t227.5 29q82 0 146.5 -24t108.5 -61t63 -79
q25 38 70.5 76t108 63t134.5 25q121 0 213 -47t144.5 -143t52.5 -245q0 -9 -1 -18t-1 -17h-600q0 -73 31.5 -120t79.5 -69t96 -22q51 0 96.5 18.5t80.5 44t54 47.5l141 -143q-38 -37 -93.5 -73t-128.5 -59t-165 -23q-71 0 -136 22t-115.5 59t-81.5 83q-16 -32 -61.5 -70
t-117 -66t-165.5 -28zM420 126q44 0 79 19.5t55 50.5t20 64q0 55 -42 89t-102 34q-36 0 -71 -15.5t-57 -44t-22 -68.5q0 -54 40.5 -91t99.5 -38zM869 509h366q-2 20 -10.5 50t-27 60.5t-51.5 51t-85 20.5q-81 0 -133 -51.5t-59 -130.5zM646 921l-78 107l316 269l127 -159z
" />
    <glyph glyph-name="Oslashacute" unicode="&#x1fe;" horiz-adv-x="1443" 
d="M1298 1359l92 -83l-1293 -1334l-93 84zM302 661q0 -126 52.5 -228t144.5 -161.5t213 -59.5t213.5 59.5t144.5 161.5t52 228t-52 227.5t-144.5 161.5t-213.5 60t-213 -60t-144.5 -161.5t-52.5 -227.5zM42 661q0 144 50.5 268.5t141.5 217.5t213.5 145t264.5 52
q144 0 266 -52t212.5 -145t140.5 -217.5t50 -268.5q0 -145 -49 -269.5t-139 -218t-212 -145.5t-269 -52q-149 0 -271.5 52t-212 145.5t-138 218t-48.5 269.5zM585 1420l-78 107l316 269l127 -159z" />
    <glyph glyph-name="oslashacute" unicode="&#x1ff;" horiz-adv-x="1006" 
d="M867 866l74 -65l-827 -840l-74 65zM495 -24q-131 0 -233.5 56t-160.5 153.5t-58 222.5t58 223.5t160.5 156t233.5 57.5q132 0 233 -57.5t158 -156t57 -223.5t-57 -222.5t-158 -153.5t-233 -56zM495 187q63 0 109.5 28.5t72 79t25.5 114.5t-25.5 115t-72 80.5t-109.5 29.5
t-109.5 -29.5t-72.5 -80.5t-26 -115t26 -114.5t72.5 -79t109.5 -28.5zM366 921l-78 107l316 269l127 -159z" />
    <glyph glyph-name="uni0200" unicode="&#x200;" horiz-adv-x="1296" 
d="M511 1320h251l508 -1320h-266l-103 285h-528l-105 -285h-267zM455 506h364l-181 512h-3zM934 1375l-365 217l126 159l318 -269zM530 1375l-365 217l126 159l318 -269z" />
    <glyph glyph-name="uni0201" unicode="&#x201;" horiz-adv-x="1104" 
d="M738 0v143q-9 -22 -46 -62t-99.5 -72.5t-146.5 -32.5q-118 0 -209 56.5t-142.5 155t-51.5 222.5t51.5 222.5t142.5 155.5t209 57q82 0 142.5 -27.5t98 -64t48.5 -65.5v133h252v-821h-249zM292 410q0 -69 31 -121.5t82 -81.5t111 -29q63 0 112 29.5t77.5 82t28.5 120.5
t-28.5 120.5t-77.5 82.5t-112 30q-60 0 -111 -29.5t-82 -82t-31 -121.5zM823 953l-365 217l127 159l318 -269zM420 953l-365 217l126 159l318 -269z" />
    <glyph glyph-name="uni0202" unicode="&#x202;" horiz-adv-x="1296" 
d="M511 1320h251l508 -1320h-266l-103 285h-528l-105 -285h-267zM455 506h364l-181 512h-3zM487 1393l-156 39q7 65 46 119t105 87t154 33q87 0 153 -32t105.5 -86t47.5 -121l-156 -39q-4 31 -21.5 64t-49.5 55.5t-79 22.5t-79 -22.5t-49 -55.5t-21 -64z" />
    <glyph glyph-name="uni0203" unicode="&#x203;" horiz-adv-x="1104" 
d="M738 0v143q-9 -22 -46 -62t-99.5 -72.5t-146.5 -32.5q-118 0 -209 56.5t-142.5 155t-51.5 222.5t51.5 222.5t142.5 155.5t209 57q82 0 142.5 -27.5t98 -64t48.5 -65.5v133h252v-821h-249zM292 410q0 -69 31 -121.5t82 -81.5t111 -29q63 0 112 29.5t77.5 82t28.5 120.5
t-28.5 120.5t-77.5 82.5t-112 30q-60 0 -111 -29.5t-82 -82t-31 -121.5zM364 923l-176 44q9 73 52 133.5t116.5 96.5t171.5 36q96 0 169 -35t117.5 -95t53.5 -136l-176 -44q-4 35 -23 71.5t-54 61.5t-87 25t-87 -25t-53.5 -61.5t-23.5 -71.5z" />
    <glyph glyph-name="uni0204" unicode="&#x204;" horiz-adv-x="1062" 
d="M94 1320h819v-221h-571v-330h563v-214h-563v-334h571v-221h-819v1320zM785 1375l-365 217l126 159l318 -269zM381 1375l-365 217l126 159l318 -269z" />
    <glyph glyph-name="uni0205" unicode="&#x205;" horiz-adv-x="981" 
d="M281 354q3 -56 30 -100t78.5 -69t123.5 -25q65 0 114.5 16t84 39.5t51.5 45.5l105 -156q-28 -35 -74.5 -64.5t-118 -47t-178.5 -17.5q-135 0 -237 53t-159 153t-57 238q0 120 51 216.5t148.5 152.5t234.5 56q129 0 223.5 -49.5t146.5 -144.5t52 -232q0 -8 -0.5 -32.5
t-2.5 -32.5h-616zM662 511q-1 32 -19.5 69t-57.5 63t-104 26t-106.5 -25t-62.5 -61.5t-24 -71.5h374zM778 953l-365 217l127 159l318 -269zM375 953l-365 217l126 159l318 -269z" />
    <glyph glyph-name="uni0206" unicode="&#x206;" horiz-adv-x="1062" 
d="M94 1320h819v-221h-571v-330h563v-214h-563v-334h571v-221h-819v1320zM337 1393l-156 39q7 65 46 119t105 87t154 33q87 0 153 -32t105.5 -86t47.5 -121l-156 -39q-4 31 -21.5 64t-49.5 55.5t-79 22.5t-79 -22.5t-49 -55.5t-21 -64z" />
    <glyph glyph-name="uni0207" unicode="&#x207;" horiz-adv-x="981" 
d="M281 354q3 -56 30 -100t78.5 -69t123.5 -25q65 0 114.5 16t84 39.5t51.5 45.5l105 -156q-28 -35 -74.5 -64.5t-118 -47t-178.5 -17.5q-135 0 -237 53t-159 153t-57 238q0 120 51 216.5t148.5 152.5t234.5 56q129 0 223.5 -49.5t146.5 -144.5t52 -232q0 -8 -0.5 -32.5
t-2.5 -32.5h-616zM662 511q-1 32 -19.5 69t-57.5 63t-104 26t-106.5 -25t-62.5 -61.5t-24 -71.5h374zM319 923l-176 44q9 73 52 133.5t116.5 96.5t171.5 36q96 0 169 -35t117.5 -95t53.5 -136l-176 -44q-4 35 -23 71.5t-54 61.5t-87 25t-87 -25t-53.5 -61.5t-23.5 -71.5z
" />
    <glyph glyph-name="uni0208" unicode="&#x208;" horiz-adv-x="513" 
d="M106 1320h250v-1320h-250v1320zM529 1375l-365 217l126 159l318 -269zM125 1375l-365 217l126 159l318 -269z" />
    <glyph glyph-name="uni0209" unicode="&#x209;" horiz-adv-x="414" 
d="M74 0v821h236v-821h-236zM487 953l-365 217l127 159l318 -269zM84 953l-365 217l126 159l318 -269z" />
    <glyph glyph-name="uni020A" unicode="&#x20a;" horiz-adv-x="513" 
d="M106 1320h250v-1320h-250v1320zM81 1393l-156 39q7 65 46 119t105 87t154 33q87 0 153 -32t105.5 -86t47.5 -121l-156 -39q-4 31 -21.5 64t-49.5 55.5t-79 22.5t-79 -22.5t-49 -55.5t-21 -64z" />
    <glyph glyph-name="uni020B" unicode="&#x20b;" horiz-adv-x="414" 
d="M74 0v821h236v-821h-236zM28 923l-176 44q9 73 52 133.5t116.5 96.5t171.5 36q96 0 169 -35t117.5 -95t53.5 -136l-176 -44q-4 35 -23 71.5t-54 61.5t-87 25t-87 -25t-53.5 -61.5t-23.5 -71.5z" />
    <glyph glyph-name="uni020C" unicode="&#x20c;" horiz-adv-x="1469" 
d="M302 661q0 -126 52.5 -228t144.5 -161.5t213 -59.5t213.5 59.5t144.5 161.5t52 228t-52 227.5t-144.5 161.5t-213.5 60t-213 -60t-144.5 -161.5t-52.5 -227.5zM42 661q0 144 50.5 268.5t141.5 217.5t213.5 145t264.5 52q144 0 266 -52t212.5 -145t140.5 -217.5t50 -268.5
q0 -145 -49 -269.5t-139 -218t-212 -145.5t-269 -52q-149 0 -271.5 52t-212 145.5t-138 218t-48.5 269.5zM1010 1375l-365 217l126 159l318 -269zM606 1375l-365 217l126 159l318 -269z" />
    <glyph glyph-name="uni020D" unicode="&#x20d;" horiz-adv-x="1021" 
d="M495 -24q-131 0 -233.5 56t-160.5 153.5t-58 222.5t58 223.5t160.5 156t233.5 57.5q132 0 233 -57.5t158 -156t57 -223.5t-57 -222.5t-158 -153.5t-233 -56zM495 187q63 0 109.5 28.5t72 79t25.5 114.5t-25.5 115t-72 80.5t-109.5 29.5t-109.5 -29.5t-72.5 -80.5
t-26 -115t26 -114.5t72.5 -79t109.5 -28.5zM787 953l-365 217l127 159l318 -269zM384 953l-365 217l126 159l318 -269z" />
    <glyph glyph-name="uni020E" unicode="&#x20e;" horiz-adv-x="1469" 
d="M302 661q0 -126 52.5 -228t144.5 -161.5t213 -59.5t213.5 59.5t144.5 161.5t52 228t-52 227.5t-144.5 161.5t-213.5 60t-213 -60t-144.5 -161.5t-52.5 -227.5zM42 661q0 144 50.5 268.5t141.5 217.5t213.5 145t264.5 52q144 0 266 -52t212.5 -145t140.5 -217.5t50 -268.5
q0 -145 -49 -269.5t-139 -218t-212 -145.5t-269 -52q-149 0 -271.5 52t-212 145.5t-138 218t-48.5 269.5zM547 1422l-176 44q9 73 52 133.5t116.5 96.5t171.5 36q96 0 169 -35t117.5 -95t53.5 -136l-176 -44q-4 35 -23 71.5t-54 61.5t-87 25t-87 -25t-53.5 -61.5
t-23.5 -71.5z" />
    <glyph glyph-name="uni020F" unicode="&#x20f;" horiz-adv-x="1021" 
d="M495 -24q-131 0 -233.5 56t-160.5 153.5t-58 222.5t58 223.5t160.5 156t233.5 57.5q132 0 233 -57.5t158 -156t57 -223.5t-57 -222.5t-158 -153.5t-233 -56zM495 187q63 0 109.5 28.5t72 79t25.5 114.5t-25.5 115t-72 80.5t-109.5 29.5t-109.5 -29.5t-72.5 -80.5
t-26 -115t26 -114.5t72.5 -79t109.5 -28.5zM328 923l-176 44q9 73 52 133.5t116.5 96.5t171.5 36q96 0 169 -35t117.5 -95t53.5 -136l-176 -44q-4 35 -23 71.5t-54 61.5t-87 25t-87 -25t-53.5 -61.5t-23.5 -71.5z" />
    <glyph glyph-name="uni0210" unicode="&#x210;" horiz-adv-x="1154" 
d="M90 1320h508q112 0 201 -46.5t141.5 -135t52.5 -213.5q0 -124 -46 -203.5t-110.5 -119.5t-119.5 -46l324 -556h-282l-293 537h-127v-537h-249v1320zM339 713h170q95 0 161.5 47t66.5 158t-66 156.5t-160 45.5h-172v-407zM836 1375l-365 217l126 159l318 -269zM432 1375
l-365 217l126 159l318 -269z" />
    <glyph glyph-name="uni0211" unicode="&#x211;" horiz-adv-x="757" 
d="M329 0h-254v821h254v-133h-5q7 24 38.5 61t87.5 66.5t135 29.5q57 0 103.5 -16.5t66.5 -32.5l-100 -208q-13 16 -48.5 33t-88.5 17q-63 0 -105 -34.5t-63 -84t-21 -92.5v-427zM662 953l-365 217l127 159l318 -269zM259 953l-365 217l126 159l318 -269z" />
    <glyph glyph-name="uni0212" unicode="&#x212;" horiz-adv-x="1154" 
d="M90 1320h508q112 0 201 -46.5t141.5 -135t52.5 -213.5q0 -124 -46 -203.5t-110.5 -119.5t-119.5 -46l324 -556h-282l-293 537h-127v-537h-249v1320zM339 713h170q95 0 161.5 47t66.5 158t-66 156.5t-160 45.5h-172v-407zM389 1393l-156 39q7 65 46 119t105 87t154 33
q87 0 153 -32t105.5 -86t47.5 -121l-156 -39q-4 31 -21.5 64t-49.5 55.5t-79 22.5t-79 -22.5t-49 -55.5t-21 -64z" />
    <glyph glyph-name="uni0213" unicode="&#x213;" horiz-adv-x="757" 
d="M329 0h-254v821h254v-133h-5q7 24 38.5 61t87.5 66.5t135 29.5q57 0 103.5 -16.5t66.5 -32.5l-100 -208q-13 16 -48.5 33t-88.5 17q-63 0 -105 -34.5t-63 -84t-21 -92.5v-427zM204 923l-176 44q9 73 52 133.5t116.5 96.5t171.5 36q96 0 169 -35t117.5 -95t53.5 -136
l-176 -44q-4 35 -23 71.5t-54 61.5t-87 25t-87 -25t-53.5 -61.5t-23.5 -71.5z" />
    <glyph glyph-name="uni0214" unicode="&#x214;" horiz-adv-x="1262" 
d="M880 1320h250v-814q0 -163 -64.5 -282t-181 -183.5t-274.5 -64.5q-159 0 -276.5 64.5t-182 183.5t-64.5 282v814h249v-801q0 -100 34.5 -170.5t96.5 -107t143 -36.5q80 0 141 36.5t95 107t34 170.5v801zM908 1375l-365 217l126 159l318 -269zM504 1375l-365 217l126 159
l318 -269z" />
    <glyph glyph-name="uni0215" unicode="&#x215;" horiz-adv-x="1068" 
d="M332 428q0 -110 44 -175.5t142 -65.5q99 0 143 65.5t44 175.5v393h250v-422q0 -127 -51 -222.5t-148.5 -148t-237.5 -52.5q-139 0 -236.5 52.5t-148.5 148t-51 222.5v422h250v-393zM812 953l-365 217l127 159l318 -269zM409 953l-365 217l126 159l318 -269z" />
    <glyph glyph-name="uni0216" unicode="&#x216;" horiz-adv-x="1262" 
d="M880 1320h250v-814q0 -163 -64.5 -282t-181 -183.5t-274.5 -64.5q-159 0 -276.5 64.5t-182 183.5t-64.5 282v814h249v-801q0 -100 34.5 -170.5t96.5 -107t143 -36.5q80 0 141 36.5t95 107t34 170.5v801zM460 1393l-156 39q7 65 46 119t105 87t154 33q87 0 153 -32
t105.5 -86t47.5 -121l-156 -39q-4 31 -21.5 64t-49.5 55.5t-79 22.5t-79 -22.5t-49 -55.5t-21 -64z" />
    <glyph glyph-name="uni0217" unicode="&#x217;" horiz-adv-x="1068" 
d="M332 428q0 -110 44 -175.5t142 -65.5q99 0 143 65.5t44 175.5v393h250v-422q0 -127 -51 -222.5t-148.5 -148t-237.5 -52.5q-139 0 -236.5 52.5t-148.5 148t-51 222.5v422h250v-393zM353 923l-176 44q9 73 52 133.5t116.5 96.5t171.5 36q96 0 169 -35t117.5 -95t53.5 -136
l-176 -44q-4 35 -23 71.5t-54 61.5t-87 25t-87 -25t-53.5 -61.5t-23.5 -71.5z" />
    <glyph glyph-name="uni0218" unicode="&#x218;" horiz-adv-x="1095" 
d="M548 1344q119 0 207.5 -26.5t141 -56.5t63.5 -39l-122 -203q-16 13 -54.5 36.5t-92.5 42t-117 18.5q-91 0 -145.5 -34.5t-54.5 -99.5q0 -44 29 -78.5t85.5 -64.5t138.5 -63q72 -28 137.5 -65t117 -87t82 -116t30.5 -151q0 -95 -38.5 -166t-106 -119t-154.5 -72t-183 -24
q-130 0 -233.5 30.5t-167.5 65.5t-75 45l128 211q12 -9 45.5 -29t82 -41t106 -36t117.5 -15q108 0 163 45t55 117q0 54 -35 95t-98.5 75.5t-151.5 70.5q-88 37 -163.5 86.5t-121.5 122t-46 178.5q0 105 59.5 183t158 121t213.5 43zM455 -548l-60 66q39 19 86 60.5t61 91.5
q-17 -8 -43 -8q-45 0 -80 34.5t-35 91.5t39.5 95t93.5 38q56 0 96 -38.5t40 -111.5q0 -66 -27.5 -128.5t-72.5 -112t-98 -78.5z" />
    <glyph glyph-name="uni0219" unicode="&#x219;" horiz-adv-x="839" 
d="M437 845q74 0 137 -13.5t106.5 -30.5t57.5 -29l-87 -153q-20 16 -71.5 38t-114.5 22q-57 0 -96 -19.5t-39 -58.5t42 -62t117 -40q63 -13 124 -39.5t101 -76t40 -131.5q0 -81 -34.5 -134.5t-91.5 -84.5t-125 -44t-135 -13q-87 0 -153 16.5t-108.5 38t-60.5 36.5l87 170
q26 -23 85.5 -50.5t128.5 -27.5q72 0 113.5 25t41.5 67q0 31 -20 50.5t-55 32.5t-82 23q-43 9 -88 26.5t-84 46.5t-63 72.5t-24 104.5q0 78 50 130.5t130 80t171 27.5zM347 -536l-60 66q39 19 85.5 60.5t60.5 91.5q-16 -8 -43 -8q-45 0 -80 34.5t-35 91.5t39.5 95.5
t94.5 38.5q56 0 96 -39t40 -111q0 -67 -28 -129.5t-73 -112t-97 -78.5z" />
    <glyph glyph-name="uni021A" unicode="&#x21a;" horiz-adv-x="1008" 
d="M350 1099h-331v221h911v-221h-330v-1099h-250v1099zM411 -548l-60 66q39 19 86 60.5t61 91.5q-17 -8 -43 -8q-45 0 -80 34.5t-35 91.5t39.5 95t93.5 38q56 0 96 -38.5t40 -111.5q0 -66 -27.5 -128.5t-72.5 -112t-98 -78.5z" />
    <glyph glyph-name="uni021B" unicode="&#x21b;" horiz-adv-x="702" 
d="M22 821h148v337h252v-337h194v-211h-194v-297q0 -59 19 -91.5t60 -32.5q31 0 51 12.5t24 17.5l90 -182q-6 -6 -38.5 -21t-83 -27.5t-113.5 -12.5q-113 0 -187 65.5t-74 203.5v365h-148v211zM355 -544l-60 66q39 19 85.5 60.5t60.5 91.5q-16 -8 -43 -8q-45 0 -80 34.5
t-35 91.5t39.5 95.5t94.5 38.5q56 0 96 -39t40 -111q0 -67 -28 -129.5t-73 -112t-97 -78.5z" />
    <glyph glyph-name="uni022A" unicode="&#x22a;" horiz-adv-x="1469" 
d="M302 661q0 -126 52.5 -228t144.5 -161.5t213 -59.5t213.5 59.5t144.5 161.5t52 228t-52 227.5t-144.5 161.5t-213.5 60t-213 -60t-144.5 -161.5t-52.5 -227.5zM42 661q0 144 50.5 268.5t141.5 217.5t213.5 145t264.5 52q144 0 266 -52t212.5 -145t140.5 -217.5t50 -268.5
q0 -145 -49 -269.5t-139 -218t-212 -145.5t-269 -52q-149 0 -271.5 52t-212 145.5t-138 218t-48.5 269.5zM911 1404q-55 0 -93 39t-38 92q0 54 38 93t93 39q54 0 92.5 -39t38.5 -93t-38.5 -92.5t-92.5 -38.5zM514 1404q-55 0 -93 39t-38 92q0 54 38 93t93 39q53 0 92 -39
t39 -93t-39 -92.5t-92 -38.5zM398 1797v164h627v-164h-627z" />
    <glyph glyph-name="uni022B" unicode="&#x22b;" horiz-adv-x="1021" 
d="M495 -24q-131 0 -233.5 56t-160.5 153.5t-58 222.5t58 223.5t160.5 156t233.5 57.5q132 0 233 -57.5t158 -156t57 -223.5t-57 -222.5t-158 -153.5t-233 -56zM495 187q63 0 109.5 28.5t72 79t25.5 114.5t-25.5 115t-72 80.5t-109.5 29.5t-109.5 -29.5t-72.5 -80.5
t-26 -115t26 -114.5t72.5 -79t109.5 -28.5zM706 975q-55 0 -93.5 39t-38.5 92q0 54 38.5 93t93.5 39q53 0 92 -39t39 -93t-39 -92.5t-92 -38.5zM308 975q-55 0 -93 39t-38 92q0 54 38 93t93 39q54 0 92.5 -39t38.5 -93t-38.5 -92.5t-92.5 -38.5zM196 1344v164h627v-164h-627
z" />
    <glyph glyph-name="uni022C" unicode="&#x22c;" horiz-adv-x="1469" 
d="M302 661q0 -126 52.5 -228t144.5 -161.5t213 -59.5t213.5 59.5t144.5 161.5t52 228t-52 227.5t-144.5 161.5t-213.5 60t-213 -60t-144.5 -161.5t-52.5 -227.5zM42 661q0 144 50.5 268.5t141.5 217.5t213.5 145t264.5 52q144 0 266 -52t212.5 -145t140.5 -217.5t50 -268.5
q0 -145 -49 -269.5t-139 -218t-212 -145.5t-269 -52q-149 0 -271.5 52t-212 145.5t-138 218t-48.5 269.5zM373 1488q10 54 36 111.5t69 97.5t102 40q63 0 108.5 -19t85.5 -37.5t85 -18.5q31 0 50.5 25.5t25.5 49.5h148q-10 -54 -36.5 -111.5t-69.5 -97.5t-102 -40
q-62 0 -108 19t-86 37t-83 18q-30 0 -50 -25t-27 -49h-148zM417 1843v164h627v-164h-627z" />
    <glyph glyph-name="uni022D" unicode="&#x22d;" horiz-adv-x="1021" 
d="M495 -24q-131 0 -233.5 56t-160.5 153.5t-58 222.5t58 223.5t160.5 156t233.5 57.5q132 0 233 -57.5t158 -156t57 -223.5t-57 -222.5t-158 -153.5t-233 -56zM495 187q63 0 109.5 28.5t72 79t25.5 114.5t-25.5 115t-72 80.5t-109.5 29.5t-109.5 -29.5t-72.5 -80.5
t-26 -115t26 -114.5t72.5 -79t109.5 -28.5zM153 989q10 54 36 111.5t69 97.5t102 40q63 0 108.5 -19t85.5 -37.5t85 -18.5q31 0 50.5 25.5t25.5 49.5h148q-10 -54 -36.5 -111.5t-69.5 -97.5t-102 -40q-62 0 -108 19t-86 37t-83 18q-30 0 -50 -25t-27 -49h-148zM197 1344v164
h627v-164h-627z" />
    <glyph glyph-name="uni0230" unicode="&#x230;" horiz-adv-x="1469" 
d="M302 661q0 -126 52.5 -228t144.5 -161.5t213 -59.5t213.5 59.5t144.5 161.5t52 228t-52 227.5t-144.5 161.5t-213.5 60t-213 -60t-144.5 -161.5t-52.5 -227.5zM42 661q0 144 50.5 268.5t141.5 217.5t213.5 145t264.5 52q144 0 266 -52t212.5 -145t140.5 -217.5t50 -268.5
q0 -145 -49 -269.5t-139 -218t-212 -145.5t-269 -52q-149 0 -271.5 52t-212 145.5t-138 218t-48.5 269.5zM711 1432q-54 0 -92.5 39t-38.5 92q0 54 38.5 93t92.5 39t92.5 -39t38.5 -93t-38.5 -92.5t-92.5 -38.5zM398 1786v164h627v-164h-627z" />
    <glyph glyph-name="uni0231" unicode="&#x231;" horiz-adv-x="1021" 
d="M495 -24q-131 0 -233.5 56t-160.5 153.5t-58 222.5t58 223.5t160.5 156t233.5 57.5q132 0 233 -57.5t158 -156t57 -223.5t-57 -222.5t-158 -153.5t-233 -56zM495 187q63 0 109.5 28.5t72 79t25.5 114.5t-25.5 115t-72 80.5t-109.5 29.5t-109.5 -29.5t-72.5 -80.5
t-26 -115t26 -114.5t72.5 -79t109.5 -28.5zM508 987q-54 0 -92.5 39t-38.5 92q0 54 38.5 93t92.5 39t92.5 -39t38.5 -93t-38.5 -92.5t-92.5 -38.5zM212 1347v164h627v-164h-627z" />
    <glyph glyph-name="uni0232" unicode="&#x232;" horiz-adv-x="1164" 
d="M429 475l-451 845h303l272 -558l273 558h301l-448 -845v-475h-250v475zM240 1450v164h627v-164h-627z" />
    <glyph glyph-name="uni0233" unicode="&#x233;" horiz-adv-x="989" 
d="M478 223l243 598h251l-561 -1237h-255l189 416l-341 821h254zM183 1028v164h627v-164h-627z" />
    <glyph glyph-name="uni0237" unicode="&#x237;" horiz-adv-x="515" 
d="M84 -440q-81 0 -134.5 16.5t-79.5 33.5l83 190q15 -12 32.5 -18.5t44.5 -6.5q34 0 54.5 19.5t29.5 56.5t9 89v881h254v-927q0 -96 -29.5 -171.5t-94 -119t-169.5 -43.5z" />
    <glyph glyph-name="uni0259" unicode="&#x259;" horiz-adv-x="981" 
d="M502 -24q-129 0 -224 49.5t-147.5 145t-52.5 232.5q0 8 1 25.5t2 24.5h614q-3 55 -30 101t-77 74t-122 28q-64 0 -113 -15.5t-83 -38t-53 -43.5l-106 159q29 35 74.5 64t117.5 46t180 17q135 0 237.5 -52.5t160 -152t57.5 -239.5q0 -119 -51.5 -215.5t-148.5 -153
t-236 -56.5zM499 148q64 0 104.5 25.5t61.5 67.5t23 92h-366q2 -47 20 -89t56.5 -69t100.5 -27z" />
    <glyph glyph-name="uni02BC" unicode="&#x2bc;" horiz-adv-x="825" 
d="M167 793q-15 66 -31 138.5t-27 140.5t-11 121q0 67 36 103t86 36t85.5 -36.5t35.5 -102.5q0 -82 -31.5 -190.5t-64.5 -209.5h-78z" />
    <glyph glyph-name="circumflex" unicode="&#x2c6;" horiz-adv-x="985" 
d="M242 966l-96 128l332 243l333 -244l-96 -128l-237 173z" />
    <glyph glyph-name="caron" unicode="&#x2c7;" horiz-adv-x="985" 
d="M478 948l-332 243l96 129l236 -173l237 173l96 -129z" />
    <glyph glyph-name="uni02C9" unicode="&#x2c9;" horiz-adv-x="934" 
d="M137 1028v164h627v-164h-627z" />
    <glyph glyph-name="breve" unicode="&#x2d8;" horiz-adv-x="803" 
d="M402 1013q-96 0 -169.5 35t-118 95.5t-52.5 135.5l176 44q5 -33 23.5 -70t53.5 -62t87 -25t86.5 25t54 62t22.5 70l176 -44q-8 -73 -51 -133.5t-116.5 -96.5t-171.5 -36z" />
    <glyph glyph-name="dotaccent" unicode="&#x2d9;" horiz-adv-x="572" 
d="M270 987q-54 0 -92.5 39t-38.5 92q0 54 38.5 93t92.5 39t92.5 -39t38.5 -93t-38.5 -92.5t-92.5 -38.5z" />
    <glyph glyph-name="ring" unicode="&#x2da;" horiz-adv-x="793" 
d="M381 962q-106 0 -171.5 58.5t-65.5 151.5q0 61 32 108.5t85.5 74.5t119.5 27q67 0 120.5 -27t84.5 -74.5t31 -108.5q0 -93 -66 -151.5t-170 -58.5zM381 1085q35 0 59 23.5t24 63.5t-24.5 62.5t-58.5 22.5t-59 -22.5t-25 -62.5q0 -41 24.5 -64t59.5 -23z" />
    <glyph glyph-name="ogonek" unicode="&#x2db;" horiz-adv-x="699" 
d="M325 -432q-42 0 -88 16.5t-78 55.5t-32 108q0 48 27.5 102.5t67.5 105t76 85.5l80 -41q-23 -25 -48.5 -63t-43 -81t-17.5 -82q0 -42 24 -59t57 -17q31 0 56 17.5t37 35.5l101 -76q-23 -37 -83.5 -72t-135.5 -35z" />
    <glyph glyph-name="tilde" unicode="&#x2dc;" horiz-adv-x="1017" 
d="M138 998q10 53 36 110.5t69 97.5t102 40q63 0 108.5 -18.5t85.5 -37t85 -18.5q31 0 50.5 25.5t25.5 48.5h148q-10 -53 -36.5 -110.5t-69.5 -97.5t-102 -40q-62 0 -108 18.5t-86 37t-83 18.5q-30 0 -50 -25t-27 -49h-148z" />
    <glyph glyph-name="hungarumlaut" unicode="&#x2dd;" horiz-adv-x="1024" 
d="M251 951l-79 105l274 305l116 -147zM590 951l-79 105l274 305l116 -147z" />
    <glyph glyph-name="gravecomb" unicode="&#x300;" 
d="M484 953l-365 217l127 159l318 -269z" />
    <glyph glyph-name="acutecomb" unicode="&#x301;" 
d="M334 929l-78 107l316 269l127 -159z" />
    <glyph glyph-name="uni0302" unicode="&#x302;" 
d="M731 965l-237 173l-236 -172l-96 128l332 243l333 -244z" />
    <glyph glyph-name="tildecomb" unicode="&#x303;" 
d="M154 989q10 54 36 111.5t69 97.5t102 40q63 0 108.5 -19t85.5 -37.5t85 -18.5q31 0 50.5 25.5t25.5 49.5h148q-10 -54 -36.5 -111.5t-69.5 -97.5t-102 -40q-62 0 -108 19t-86 37t-83 18q-30 0 -50 -25t-27 -49h-148z" />
    <glyph glyph-name="uni0304" unicode="&#x304;" 
d="M153 1028v164h627v-164h-627z" />
    <glyph glyph-name="uni0306" unicode="&#x306;" 
d="M411 1066q-96 0 -169.5 35t-118 95t-52.5 136l176 44q5 -33 23.5 -70t53.5 -62t87 -25t87 25t54 62t23 70l176 -44q-8 -73 -51.5 -133.5t-117 -96.5t-171.5 -36z" />
    <glyph glyph-name="uni0307" unicode="&#x307;" 
d="M286 987q-54 0 -92.5 39t-38.5 92q0 54 38.5 93t92.5 39t92.5 -39t38.5 -93t-38.5 -92.5t-92.5 -38.5z" />
    <glyph glyph-name="uni0308" unicode="&#x308;" 
d="M675 987q-55 0 -93.5 39t-38.5 92q0 54 38.5 93t93.5 39q53 0 92 -39t39 -93t-39 -92.5t-92 -38.5zM277 987q-55 0 -93 39t-38 92q0 54 38 93t93 39q54 0 92.5 -39t38.5 -93t-38.5 -92.5t-92.5 -38.5z" />
    <glyph glyph-name="hookabovecomb" unicode="&#x309;" 
d="M535 867l-65 100q23 7 60 26.5t66.5 50.5t29.5 73q0 41 -17 59.5t-44 24t-58 5.5q-43 0 -89 -15.5t-76 -31.5v136q18 12 65.5 30t134.5 18q61 0 117 -19.5t91 -64t35 -122.5q0 -61 -27 -107t-67.5 -78.5t-82.5 -53t-73 -31.5z" />
    <glyph glyph-name="uni030A" unicode="&#x30a;" 
d="M397 962q-106 0 -171.5 58.5t-65.5 151.5q0 61 32 108.5t85.5 74.5t119.5 27q67 0 120.5 -27t84.5 -74.5t31 -108.5q0 -93 -66 -151.5t-170 -58.5zM397 1085q35 0 59 23.5t24 63.5t-24.5 62.5t-58.5 22.5t-59 -22.5t-25 -62.5q0 -41 24.5 -64t59.5 -23z" />
    <glyph glyph-name="uni030B" unicode="&#x30b;" 
d="M606 951l-79 105l274 305l116 -147zM267 951l-79 105l274 305l116 -147z" />
    <glyph glyph-name="uni030C" unicode="&#x30c;" 
d="M494 948l-332 243l96 129l236 -173l237 173l96 -129z" />
    <glyph glyph-name="uni030F" unicode="&#x30f;" 
d="M892 953l-365 217l127 159l318 -269zM489 953l-365 217l126 159l318 -269z" />
    <glyph glyph-name="uni0311" unicode="&#x311;" 
d="M322 923l-176 44q9 73 52 133.5t116.5 96.5t171.5 36q96 0 169 -35t117.5 -95t53.5 -136l-176 -44q-4 35 -23 71.5t-54 61.5t-87 25t-87 -25t-53.5 -61.5t-23.5 -71.5z" />
    <glyph glyph-name="uni0312" unicode="&#x312;" 
d="M231 957q-45 0 -77.5 32t-32.5 91q0 54 22.5 104.5t59 91t78.5 62.5l49 -52q-32 -17 -70 -50t-49 -75q13 7 35 7q36 0 65 -28.5t29 -73.5q0 -46 -32 -77.5t-77 -31.5z" />
    <glyph glyph-name="uni031B" unicode="&#x31b;" 
d="M501 907q-33 0 -58.5 8t-48.5 21v128q15 -13 37 -21.5t52 -8.5q53 0 81 39.5t28 88.5q0 43 -6 69t-18 54h165q8 -13 19.5 -47.5t11.5 -92.5q0 -68 -36.5 -122t-96.5 -85t-130 -31z" />
    <glyph glyph-name="dotbelowcomb" unicode="&#x323;" 
d="M312 -305q-45 0 -76 31.5t-31 74.5t31 75t76 32q43 0 74.5 -31.5t31.5 -75.5t-31.5 -75t-74.5 -31z" />
    <glyph glyph-name="uni0324" unicode="&#x324;" 
d="M666 -315q-51 0 -86.5 36.5t-35.5 85.5q0 50 35.5 86t86.5 36q50 0 85.5 -36t35.5 -86t-35.5 -86t-85.5 -36zM292 -315q-51 0 -86.5 36.5t-35.5 85.5q0 50 35.5 86t86.5 36q49 0 85 -36t36 -86t-36 -86t-85 -36z" />
    <glyph glyph-name="uni0326" unicode="&#x326;" 
d="M213 -536l-60 66q39 19 85.5 60.5t60.5 91.5q-16 -8 -43 -8q-45 0 -80 34.5t-35 91.5t39.5 95.5t94.5 38.5q56 0 96 -39t40 -111q0 -67 -28 -129.5t-73 -112t-97 -78.5z" />
    <glyph glyph-name="uni0327" unicode="&#x327;" 
d="M401 -430q-86 0 -148.5 26.5t-87.5 51.5l88 100q18 -18 53.5 -38t75.5 -20t66 19t26 49q0 36 -27.5 53t-66.5 17q-31 0 -53.5 -4.5t-31.5 -9.5l-20 14l77 214l95 -34l-40 -105q53 6 104 -8t85 -47.5t34 -87.5q0 -60 -32.5 -102.5t-84.5 -65t-112 -22.5z" />
    <glyph glyph-name="uni0328" unicode="&#x328;" 
d="M341 -432q-42 0 -88 16.5t-78 55.5t-32 108q0 48 27.5 102.5t67.5 105t76 85.5l80 -41q-23 -25 -48.5 -63.5t-43 -81.5t-17.5 -84q0 -38 25 -55.5t53 -17.5q33 0 58.5 17.5t37.5 35.5l101 -76q-23 -37 -83.5 -72t-135.5 -35z" />
    <glyph glyph-name="uni032E" unicode="&#x32e;" 
d="M487 -378q-96 0 -169.5 35t-118 95.5t-53.5 135.5l177 44q4 -33 23 -70t54 -62t87 -25t86.5 25t53.5 62t23 70l176 -44q-8 -73 -51 -133t-116.5 -96.5t-171.5 -36.5z" />
    <glyph glyph-name="uni0331" unicode="&#x331;" 
d="M174 -255v164h627v-164h-627z" />
    <glyph glyph-name="Wgrave" unicode="&#x1e80;" horiz-adv-x="1760" 
d="M1371 0h-304l-245 998h46l-246 -998h-305l-292 1320h286l175 -992h-3l262 992h199l263 -992h-4l176 992h286zM919 1376l-365 217l127 159l318 -269z" />
    <glyph glyph-name="wgrave" unicode="&#x1e81;" horiz-adv-x="1408" 
d="M689 529l-198 -529h-241l-253 821h270l138 -548l195 532h179l193 -532l139 548h270l-252 -821h-241zM848 953l-365 217l127 159l318 -269z" />
    <glyph glyph-name="Wacute" unicode="&#x1e82;" horiz-adv-x="1760" 
d="M1371 0h-304l-245 998h46l-246 -998h-305l-292 1320h286l175 -992h-3l262 992h199l263 -992h-4l176 992h286zM773 1376l-79 107l318 269l126 -159z" />
    <glyph glyph-name="wacute" unicode="&#x1e83;" horiz-adv-x="1408" 
d="M689 529l-198 -529h-241l-253 821h270l138 -548l195 532h179l193 -532l139 548h270l-252 -821h-241zM562 921l-78 107l316 269l127 -159z" />
    <glyph glyph-name="Wdieresis" unicode="&#x1e84;" horiz-adv-x="1760" 
d="M1371 0h-304l-245 998h46l-246 -998h-305l-292 1320h286l175 -992h-3l262 992h199l263 -992h-4l176 992h286zM1055 1404q-55 0 -93 39t-38 92q0 54 38 93t93 39q54 0 92.5 -39t38.5 -93t-38.5 -92.5t-92.5 -38.5zM658 1404q-55 0 -93 39t-38 92q0 54 38 93t93 39
q53 0 92 -39t39 -93t-39 -92.5t-92 -38.5z" />
    <glyph glyph-name="wdieresis" unicode="&#x1e85;" horiz-adv-x="1408" 
d="M689 529l-198 -529h-241l-253 821h270l138 -548l195 532h179l193 -532l139 548h270l-252 -821h-241zM903 975q-55 0 -93.5 39t-38.5 92q0 54 38.5 93t93.5 39q53 0 92 -39t39 -93t-39 -92.5t-92 -38.5zM505 975q-55 0 -93 39t-38 92q0 54 38 93t93 39q54 0 92.5 -39
t38.5 -93t-38.5 -92.5t-92.5 -38.5z" />
    <glyph glyph-name="uni1E9E" unicode="&#x1e9e;" horiz-adv-x="1267" 
d="M479 217q48 -16 100 -24.5t105 -8.5q106 0 168 57t62 149q0 106 -94 161t-283 30v220l252 326q-41 9 -90 13t-81 4q-105 0 -165 -40t-84.5 -115.5t-24.5 -182.5v-806h-246v914q0 154 66 250t187 141.5t287 45.5q57 0 124.5 -7t138 -20t135.5 -30l-2 -202l-270 -342
q71 2 142.5 -12.5t130.5 -54.5t94.5 -113.5t35.5 -190.5q0 -136 -62.5 -226t-165.5 -134t-226 -44q-125 0 -234 30v212z" />
    <glyph glyph-name="uni1EA0" unicode="&#x1ea0;" horiz-adv-x="1296" 
d="M511 1320h251l508 -1320h-266l-103 285h-528l-105 -285h-267zM455 506h364l-181 512h-3zM636 -303q-45 0 -76 31.5t-31 74.5t31 75t76 32q43 0 74.5 -32t31.5 -75q0 -44 -31.5 -75t-74.5 -31z" />
    <glyph glyph-name="uni1EA1" unicode="&#x1ea1;" horiz-adv-x="1104" 
d="M738 0v143q-9 -22 -46 -62t-99.5 -72.5t-146.5 -32.5q-118 0 -209 56.5t-142.5 155t-51.5 222.5t51.5 222.5t142.5 155.5t209 57q82 0 142.5 -27.5t98 -64t48.5 -65.5v133h252v-821h-249zM292 410q0 -69 31 -121.5t82 -81.5t111 -29q63 0 112 29.5t77.5 82t28.5 120.5
t-28.5 120.5t-77.5 82.5t-112 30q-60 0 -111 -29.5t-82 -82t-31 -121.5zM537 -305q-45 0 -76 31.5t-31 74.5t31 75t76 32q43 0 74.5 -31.5t31.5 -75.5t-31.5 -75t-74.5 -31z" />
    <glyph glyph-name="uni1EA2" unicode="&#x1ea2;" horiz-adv-x="1296" 
d="M511 1320h251l508 -1320h-266l-103 285h-528l-105 -285h-267zM455 506h364l-181 512h-3zM607 1392l-65 88q23 6 60 22t66.5 42.5t29.5 60.5q0 37 -17 54t-44 21.5t-58 4.5q-43 0 -89 -14.5t-76 -28.5v118q18 11 65.5 27.5t134.5 16.5q61 0 117 -17t91 -56.5t35 -107.5
q0 -52 -27 -91t-67.5 -66.5t-82.5 -45.5t-73 -28z" />
    <glyph glyph-name="uni1EA3" unicode="&#x1ea3;" horiz-adv-x="1104" 
d="M738 0v143q-9 -22 -46 -62t-99.5 -72.5t-146.5 -32.5q-118 0 -209 56.5t-142.5 155t-51.5 222.5t51.5 222.5t142.5 155.5t209 57q82 0 142.5 -27.5t98 -64t48.5 -65.5v133h252v-821h-249zM292 410q0 -69 31 -121.5t82 -81.5t111 -29q63 0 112 29.5t77.5 82t28.5 120.5
t-28.5 120.5t-77.5 82.5t-112 30q-60 0 -111 -29.5t-82 -82t-31 -121.5zM499 867l-65 100q23 7 60 26.5t66.5 50.5t29.5 73q0 41 -17 59.5t-44 24t-58 5.5q-43 0 -89 -15.5t-76 -31.5v136q18 12 65.5 30t134.5 18q61 0 117 -19.5t91 -64t35 -122.5q0 -61 -27 -107
t-67.5 -78.5t-82.5 -53t-73 -31.5z" />
    <glyph glyph-name="uni1EA4" unicode="&#x1ea4;" horiz-adv-x="1296" 
d="M511 1320h251l508 -1320h-266l-103 285h-528l-105 -285h-267zM455 506h364l-181 512h-3zM874 1394l-237 173l-236 -172l-96 128l332 243l333 -244zM877 1677l-79 107l317 269l127 -159z" />
    <glyph glyph-name="uni1EA5" unicode="&#x1ea5;" horiz-adv-x="1104" 
d="M738 0v143q-9 -22 -46 -62t-99.5 -72.5t-146.5 -32.5q-118 0 -209 56.5t-142.5 155t-51.5 222.5t51.5 222.5t142.5 155.5t209 57q82 0 142.5 -27.5t98 -64t48.5 -65.5v133h252v-821h-249zM292 410q0 -69 31 -121.5t82 -81.5t111 -29q63 0 112 29.5t77.5 82t28.5 120.5
t-28.5 120.5t-77.5 82.5t-112 30q-60 0 -111 -29.5t-82 -82t-31 -121.5zM766 895l-237 173l-236 -172l-96 128l332 243l333 -244zM769 1178l-79 107l317 269l127 -159z" />
    <glyph glyph-name="uni1EA6" unicode="&#x1ea6;" horiz-adv-x="1296" 
d="M511 1320h251l508 -1320h-266l-103 285h-528l-105 -285h-267zM455 506h364l-181 512h-3zM876 1397l-237 173l-236 -172l-96 128l332 243l333 -244zM1035 1657l-365 216l126 160l318 -269z" />
    <glyph glyph-name="uni1EA7" unicode="&#x1ea7;" horiz-adv-x="1104" 
d="M738 0v143q-9 -22 -46 -62t-99.5 -72.5t-146.5 -32.5q-118 0 -209 56.5t-142.5 155t-51.5 222.5t51.5 222.5t142.5 155.5t209 57q82 0 142.5 -27.5t98 -64t48.5 -65.5v133h252v-821h-249zM292 410q0 -69 31 -121.5t82 -81.5t111 -29q63 0 112 29.5t77.5 82t28.5 120.5
t-28.5 120.5t-77.5 82.5t-112 30q-60 0 -111 -29.5t-82 -82t-31 -121.5zM768 898l-237 173l-236 -172l-96 128l332 243l333 -244zM927 1158l-365 216l126 160l318 -269z" />
    <glyph glyph-name="uni1EA8" unicode="&#x1ea8;" horiz-adv-x="1296" 
d="M511 1320h251l508 -1320h-266l-103 285h-528l-105 -285h-267zM455 506h364l-181 512h-3zM833 1688l-65 101q23 6 60 25.5t66.5 50.5t29.5 73q0 41 -17 60t-44 24t-58 5q-43 0 -89 -15.5t-76 -30.5v135q18 12 65.5 30t134.5 18q61 0 117 -19.5t91 -64t35 -122.5
q0 -61 -27 -107t-67.5 -78.5t-82.5 -53t-73 -31.5zM876 1394l-237 173l-236 -172l-96 128l332 243l333 -244z" />
    <glyph glyph-name="uni1EA9" unicode="&#x1ea9;" horiz-adv-x="1104" 
d="M738 0v143q-9 -22 -46 -62t-99.5 -72.5t-146.5 -32.5q-118 0 -209 56.5t-142.5 155t-51.5 222.5t51.5 222.5t142.5 155.5t209 57q82 0 142.5 -27.5t98 -64t48.5 -65.5v133h252v-821h-249zM292 410q0 -69 31 -121.5t82 -81.5t111 -29q63 0 112 29.5t77.5 82t28.5 120.5
t-28.5 120.5t-77.5 82.5t-112 30q-60 0 -111 -29.5t-82 -82t-31 -121.5zM725 1189l-65 101q23 6 60 25.5t66.5 50.5t29.5 73q0 41 -17 60t-44 24t-58 5q-43 0 -89 -15.5t-76 -30.5v135q18 12 65.5 30t134.5 18q61 0 117 -19.5t91 -64t35 -122.5q0 -61 -27 -107t-67.5 -78.5
t-82.5 -53t-73 -31.5zM768 895l-237 173l-236 -172l-96 128l332 243l333 -244z" />
    <glyph glyph-name="uni1EAA" unicode="&#x1eaa;" horiz-adv-x="1296" 
d="M511 1320h251l508 -1320h-266l-103 285h-528l-105 -285h-267zM455 506h364l-181 512h-3zM290 1799q10 54 36 111.5t69 97.5t103 40q62 0 107.5 -19t85.5 -37.5t85 -18.5q31 0 50.5 25.5t25.5 49.5h148q-10 -54 -36 -111.5t-69 -97.5t-103 -40q-62 0 -108 19t-86 37
t-83 18q-30 0 -50 -25t-27 -49h-148zM871 1394l-237 173l-236 -172l-96 128l332 243l333 -244z" />
    <glyph glyph-name="uni1EAB" unicode="&#x1eab;" horiz-adv-x="1104" 
d="M738 0v143q-9 -22 -46 -62t-99.5 -72.5t-146.5 -32.5q-118 0 -209 56.5t-142.5 155t-51.5 222.5t51.5 222.5t142.5 155.5t209 57q82 0 142.5 -27.5t98 -64t48.5 -65.5v133h252v-821h-249zM292 410q0 -69 31 -121.5t82 -81.5t111 -29q63 0 112 29.5t77.5 82t28.5 120.5
t-28.5 120.5t-77.5 82.5t-112 30q-60 0 -111 -29.5t-82 -82t-31 -121.5zM182 1300q10 54 36 111.5t69 97.5t103 40q62 0 107.5 -19t85.5 -37.5t85 -18.5q31 0 50.5 25.5t25.5 49.5h148q-10 -54 -36 -111.5t-69 -97.5t-103 -40q-62 0 -108 19t-86 37t-83 18q-30 0 -50 -25
t-27 -49h-148zM763 895l-237 173l-236 -172l-96 128l332 243l333 -244z" />
    <glyph glyph-name="uni1EAC" unicode="&#x1eac;" horiz-adv-x="1296" 
d="M511 1320h251l508 -1320h-266l-103 285h-528l-105 -285h-267zM455 506h364l-181 512h-3zM636 -303q-45 0 -76 31.5t-31 74.5t31 75t76 32q43 0 74.5 -32t31.5 -75q0 -44 -31.5 -75t-74.5 -31zM400 1400l-97 128l333 243l332 -244l-96 -128l-236 173z" />
    <glyph glyph-name="uni1EAD" unicode="&#x1ead;" horiz-adv-x="1104" 
d="M738 0v143q-9 -22 -46 -62t-99.5 -72.5t-146.5 -32.5q-118 0 -209 56.5t-142.5 155t-51.5 222.5t51.5 222.5t142.5 155.5t209 57q82 0 142.5 -27.5t98 -64t48.5 -65.5v133h252v-821h-249zM292 410q0 -69 31 -121.5t82 -81.5t111 -29q63 0 112 29.5t77.5 82t28.5 120.5
t-28.5 120.5t-77.5 82.5t-112 30q-60 0 -111 -29.5t-82 -82t-31 -121.5zM537 -305q-45 0 -76 31.5t-31 74.5t31 75t76 32q43 0 74.5 -31.5t31.5 -75.5t-31.5 -75t-74.5 -31zM766 899l-237 173l-236 -172l-96 128l332 243l333 -244z" />
    <glyph glyph-name="uni1EAE" unicode="&#x1eae;" horiz-adv-x="1296" 
d="M511 1320h251l508 -1320h-266l-103 285h-528l-105 -285h-267zM455 506h364l-181 512h-3zM636 1432q-95 0 -168.5 35t-118 95t-53.5 136l176 44q5 -34 23.5 -70.5t53.5 -62t87 -25.5t87 25.5t54 62t23 70.5l176 -44q-8 -73 -51.5 -133.5t-116.5 -96.5t-172 -36zM551 1767
l-79 107l318 270l126 -160z" />
    <glyph glyph-name="uni1EAF" unicode="&#x1eaf;" horiz-adv-x="1104" 
d="M738 0v143q-9 -22 -46 -62t-99.5 -72.5t-146.5 -32.5q-118 0 -209 56.5t-142.5 155t-51.5 222.5t51.5 222.5t142.5 155.5t209 57q82 0 142.5 -27.5t98 -64t48.5 -65.5v133h252v-821h-249zM292 410q0 -69 31 -121.5t82 -81.5t111 -29q63 0 112 29.5t77.5 82t28.5 120.5
t-28.5 120.5t-77.5 82.5t-112 30q-60 0 -111 -29.5t-82 -82t-31 -121.5zM528 933q-95 0 -168.5 35t-118 95t-53.5 136l176 44q5 -34 23.5 -70.5t53.5 -62t87 -25.5t87 25.5t54 62t23 70.5l176 -44q-8 -73 -51.5 -133.5t-116.5 -96.5t-172 -36zM443 1268l-79 107l318 270
l126 -160z" />
    <glyph glyph-name="uni1EB0" unicode="&#x1eb0;" horiz-adv-x="1296" 
d="M511 1320h251l508 -1320h-266l-103 285h-528l-105 -285h-267zM455 506h364l-181 512h-3zM722 1775l-365 217l126 160l318 -269zM636 1432q-98 0 -171.5 36t-116.5 96t-52 134l175 44q5 -34 24 -70.5t54 -62t87 -25.5t86.5 25.5t53.5 62t23 70.5l177 -44
q-9 -75 -53 -135.5t-117 -95.5t-170 -35z" />
    <glyph glyph-name="uni1EB1" unicode="&#x1eb1;" horiz-adv-x="1104" 
d="M738 0v143q-9 -22 -46 -62t-99.5 -72.5t-146.5 -32.5q-118 0 -209 56.5t-142.5 155t-51.5 222.5t51.5 222.5t142.5 155.5t209 57q82 0 142.5 -27.5t98 -64t48.5 -65.5v133h252v-821h-249zM292 410q0 -69 31 -121.5t82 -81.5t111 -29q63 0 112 29.5t77.5 82t28.5 120.5
t-28.5 120.5t-77.5 82.5t-112 30q-60 0 -111 -29.5t-82 -82t-31 -121.5zM614 1276l-365 217l126 160l318 -269zM528 933q-98 0 -171.5 36t-116.5 96t-52 134l175 44q5 -34 24 -70.5t54 -62t87 -25.5t86.5 25.5t53.5 62t23 70.5l177 -44q-9 -75 -53 -135.5t-117 -95.5
t-170 -35z" />
    <glyph glyph-name="uni1EB2" unicode="&#x1eb2;" horiz-adv-x="1296" 
d="M511 1320h251l508 -1320h-266l-103 285h-528l-105 -285h-267zM455 506h364l-181 512h-3zM608 1742l-66 101q23 6 60.5 25.5t66.5 51t29 72.5q0 42 -17 60.5t-43.5 24t-57.5 5.5q-43 0 -89.5 -16t-76.5 -31v135q18 12 65.5 30t134.5 18q62 0 117.5 -19t90.5 -64t35 -122
q0 -62 -26.5 -107.5t-67.5 -78.5t-83 -53t-72 -32zM636 1432q-95 0 -168.5 35t-118 95t-53.5 136l176 44q5 -34 23.5 -70.5t53.5 -62t87 -25.5t87 25.5t54 62t23 70.5l176 -44q-8 -73 -51.5 -133.5t-116.5 -96.5t-172 -36z" />
    <glyph glyph-name="uni1EB3" unicode="&#x1eb3;" horiz-adv-x="1104" 
d="M738 0v143q-9 -22 -46 -62t-99.5 -72.5t-146.5 -32.5q-118 0 -209 56.5t-142.5 155t-51.5 222.5t51.5 222.5t142.5 155.5t209 57q82 0 142.5 -27.5t98 -64t48.5 -65.5v133h252v-821h-249zM292 410q0 -69 31 -121.5t82 -81.5t111 -29q63 0 112 29.5t77.5 82t28.5 120.5
t-28.5 120.5t-77.5 82.5t-112 30q-60 0 -111 -29.5t-82 -82t-31 -121.5zM500 1243l-66 101q23 6 60.5 25.5t66.5 51t29 72.5q0 42 -17 60.5t-43.5 24t-57.5 5.5q-43 0 -89.5 -16t-76.5 -31v135q18 12 65.5 30t134.5 18q62 0 117.5 -19t90.5 -64t35 -122q0 -62 -26.5 -107.5
t-67.5 -78.5t-83 -53t-72 -32zM528 933q-95 0 -168.5 35t-118 95t-53.5 136l176 44q5 -34 23.5 -70.5t53.5 -62t87 -25.5t87 25.5t54 62t23 70.5l176 -44q-8 -73 -51.5 -133.5t-116.5 -96.5t-172 -36z" />
    <glyph glyph-name="uni1EB4" unicode="&#x1eb4;" horiz-adv-x="1296" 
d="M511 1320h251l508 -1320h-266l-103 285h-528l-105 -285h-267zM455 506h364l-181 512h-3zM297 1847q10 54 36 111.5t69 97.5t102 40q63 0 108.5 -19t85.5 -37.5t85 -18.5q31 0 49 23t27 52h148q-8 -49 -35 -107t-70.5 -100t-102.5 -42q-62 0 -108 19t-86 37.5t-83 18.5
q-30 0 -50 -25.5t-27 -49.5h-148zM636 1432q-95 0 -168.5 35t-118 95t-53.5 136l176 44q5 -34 23.5 -70.5t53.5 -62t87 -25.5t87 25.5t54 62t23 70.5l176 -44q-8 -73 -51.5 -133.5t-116.5 -96.5t-172 -36z" />
    <glyph glyph-name="uni1EB5" unicode="&#x1eb5;" horiz-adv-x="1104" 
d="M738 0v143q-9 -22 -46 -62t-99.5 -72.5t-146.5 -32.5q-118 0 -209 56.5t-142.5 155t-51.5 222.5t51.5 222.5t142.5 155.5t209 57q82 0 142.5 -27.5t98 -64t48.5 -65.5v133h252v-821h-249zM292 410q0 -69 31 -121.5t82 -81.5t111 -29q63 0 112 29.5t77.5 82t28.5 120.5
t-28.5 120.5t-77.5 82.5t-112 30q-60 0 -111 -29.5t-82 -82t-31 -121.5zM189 1348q10 54 36 111.5t69 97.5t102 40q63 0 108.5 -19t85.5 -37.5t85 -18.5q31 0 49 23t27 52h148q-8 -49 -35 -107t-70.5 -100t-102.5 -42q-62 0 -108 19t-86 37.5t-83 18.5q-30 0 -50 -25.5
t-27 -49.5h-148zM528 933q-95 0 -168.5 35t-118 95t-53.5 136l176 44q5 -34 23.5 -70.5t53.5 -62t87 -25.5t87 25.5t54 62t23 70.5l176 -44q-8 -73 -51.5 -133.5t-116.5 -96.5t-172 -36z" />
    <glyph glyph-name="uni1EB6" unicode="&#x1eb6;" horiz-adv-x="1296" 
d="M511 1320h251l508 -1320h-266l-103 285h-528l-105 -285h-267zM455 506h364l-181 512h-3zM636 -303q-45 0 -76 31.5t-31 74.5t31 75t76 32q43 0 74.5 -32t31.5 -75q0 -44 -31.5 -75t-74.5 -31zM636 1391q-87 0 -153.5 32t-106 86t-47.5 122l157 39q4 -30 21.5 -63.5
t49.5 -57t79 -23.5q48 0 79.5 23.5t49 57t21.5 63.5l157 -39q-7 -65 -46 -120t-105 -87.5t-156 -32.5z" />
    <glyph glyph-name="uni1EB7" unicode="&#x1eb7;" horiz-adv-x="1104" 
d="M738 0v143q-9 -22 -46 -62t-99.5 -72.5t-146.5 -32.5q-118 0 -209 56.5t-142.5 155t-51.5 222.5t51.5 222.5t142.5 155.5t209 57q82 0 142.5 -27.5t98 -64t48.5 -65.5v133h252v-821h-249zM292 410q0 -69 31 -121.5t82 -81.5t111 -29q63 0 112 29.5t77.5 82t28.5 120.5
t-28.5 120.5t-77.5 82.5t-112 30q-60 0 -111 -29.5t-82 -82t-31 -121.5zM537 -305q-45 0 -76 31.5t-31 74.5t31 75t76 32q43 0 74.5 -31.5t31.5 -75.5t-31.5 -75t-74.5 -31zM528 933q-96 0 -169.5 35t-118 95t-52.5 136l176 44q5 -33 23.5 -70t53.5 -62t87 -25t87 25t54 62
t23 70l176 -44q-8 -73 -51.5 -133.5t-117 -96.5t-171.5 -36z" />
    <glyph glyph-name="uni1EB8" unicode="&#x1eb8;" horiz-adv-x="1062" 
d="M94 1320h819v-221h-571v-330h563v-214h-563v-334h571v-221h-819v1320zM484 -303q-45 0 -76 31.5t-31 74.5t31 75t76 32q43 0 74.5 -32t31.5 -75q0 -44 -31.5 -75t-74.5 -31z" />
    <glyph glyph-name="uni1EB9" unicode="&#x1eb9;" horiz-adv-x="981" 
d="M281 354q3 -56 30 -100t78.5 -69t123.5 -25q65 0 114.5 16t84 39.5t51.5 45.5l105 -156q-28 -35 -74.5 -64.5t-118 -47t-178.5 -17.5q-135 0 -237 53t-159 153t-57 238q0 120 51 216.5t148.5 152.5t234.5 56q129 0 223.5 -49.5t146.5 -144.5t52 -232q0 -8 -0.5 -32.5
t-2.5 -32.5h-616zM662 511q-1 32 -19.5 69t-57.5 63t-104 26t-106.5 -25t-62.5 -61.5t-24 -71.5h374zM480 -305q-45 0 -76 31.5t-31 74.5t31 75t76 32q43 0 74.5 -31.5t31.5 -75.5t-31.5 -75t-74.5 -31z" />
    <glyph glyph-name="uni1EBA" unicode="&#x1eba;" horiz-adv-x="1062" 
d="M94 1320h819v-221h-571v-330h563v-214h-563v-334h571v-221h-819v1320zM458 1392l-65 88q23 6 60 22t66.5 42.5t29.5 60.5q0 37 -17 54t-44 21.5t-58 4.5q-43 0 -89 -14.5t-76 -28.5v118q18 11 65.5 27.5t134.5 16.5q61 0 117 -17t91 -56.5t35 -107.5q0 -52 -27 -91
t-67.5 -66.5t-82.5 -45.5t-73 -28z" />
    <glyph glyph-name="uni1EBB" unicode="&#x1ebb;" horiz-adv-x="981" 
d="M281 354q3 -56 30 -100t78.5 -69t123.5 -25q65 0 114.5 16t84 39.5t51.5 45.5l105 -156q-28 -35 -74.5 -64.5t-118 -47t-178.5 -17.5q-135 0 -237 53t-159 153t-57 238q0 120 51 216.5t148.5 152.5t234.5 56q129 0 223.5 -49.5t146.5 -144.5t52 -232q0 -8 -0.5 -32.5
t-2.5 -32.5h-616zM662 511q-1 32 -19.5 69t-57.5 63t-104 26t-106.5 -25t-62.5 -61.5t-24 -71.5h374zM455 867l-65 100q23 7 60 26.5t66.5 50.5t29.5 73q0 41 -17 59.5t-44 24t-58 5.5q-43 0 -89 -15.5t-76 -31.5v136q18 12 65.5 30t134.5 18q61 0 117 -19.5t91 -64
t35 -122.5q0 -61 -27 -107t-67.5 -78.5t-82.5 -53t-73 -31.5z" />
    <glyph glyph-name="uni1EBC" unicode="&#x1ebc;" horiz-adv-x="1062" 
d="M94 1320h819v-221h-571v-330h563v-214h-563v-334h571v-221h-819v1320zM131 1410q10 54 36 111.5t69 97.5t103 40q62 0 107.5 -19t85.5 -37.5t85 -18.5q31 0 50.5 25.5t25.5 49.5h148q-10 -53 -36 -111t-69 -98t-103 -40q-62 0 -108 19t-86 37.5t-83 18.5q-30 0 -50 -25.5
t-27 -49.5h-148z" />
    <glyph glyph-name="uni1EBD" unicode="&#x1ebd;" horiz-adv-x="981" 
d="M281 354q3 -56 30 -100t78.5 -69t123.5 -25q65 0 114.5 16t84 39.5t51.5 45.5l105 -156q-28 -35 -74.5 -64.5t-118 -47t-178.5 -17.5q-135 0 -237 53t-159 153t-57 238q0 120 51 216.5t148.5 152.5t234.5 56q129 0 223.5 -49.5t146.5 -144.5t52 -232q0 -8 -0.5 -32.5
t-2.5 -32.5h-616zM662 511q-1 32 -19.5 69t-57.5 63t-104 26t-106.5 -25t-62.5 -61.5t-24 -71.5h374zM145 989q10 54 36 111.5t69 97.5t102 40q63 0 108.5 -19t85.5 -37.5t85 -18.5q31 0 50.5 25.5t25.5 49.5h148q-10 -54 -36.5 -111.5t-69.5 -97.5t-102 -40q-62 0 -108 19
t-86 37t-83 18q-30 0 -50 -25t-27 -49h-148z" />
    <glyph glyph-name="uni1EBE" unicode="&#x1ebe;" horiz-adv-x="1062" 
d="M94 1320h819v-221h-571v-330h563v-214h-563v-334h571v-221h-819v1320zM725 1394l-237 173l-236 -172l-96 128l332 243l333 -244zM728 1677l-79 107l317 269l127 -159z" />
    <glyph glyph-name="uni1EBF" unicode="&#x1ebf;" horiz-adv-x="981" 
d="M281 354q3 -56 30 -100t78.5 -69t123.5 -25q65 0 114.5 16t84 39.5t51.5 45.5l105 -156q-28 -35 -74.5 -64.5t-118 -47t-178.5 -17.5q-135 0 -237 53t-159 153t-57 238q0 120 51 216.5t148.5 152.5t234.5 56q129 0 223.5 -49.5t146.5 -144.5t52 -232q0 -8 -0.5 -32.5
t-2.5 -32.5h-616zM662 511q-1 32 -19.5 69t-57.5 63t-104 26t-106.5 -25t-62.5 -61.5t-24 -71.5h374zM722 895l-237 173l-236 -172l-96 128l332 243l333 -244zM725 1178l-79 107l317 269l127 -159z" />
    <glyph glyph-name="uni1EC0" unicode="&#x1ec0;" horiz-adv-x="1062" 
d="M94 1320h819v-221h-571v-330h563v-214h-563v-334h571v-221h-819v1320zM727 1397l-237 173l-236 -172l-96 128l332 243l333 -244zM886 1657l-365 216l126 160l318 -269z" />
    <glyph glyph-name="uni1EC1" unicode="&#x1ec1;" horiz-adv-x="981" 
d="M281 354q3 -56 30 -100t78.5 -69t123.5 -25q65 0 114.5 16t84 39.5t51.5 45.5l105 -156q-28 -35 -74.5 -64.5t-118 -47t-178.5 -17.5q-135 0 -237 53t-159 153t-57 238q0 120 51 216.5t148.5 152.5t234.5 56q129 0 223.5 -49.5t146.5 -144.5t52 -232q0 -8 -0.5 -32.5
t-2.5 -32.5h-616zM662 511q-1 32 -19.5 69t-57.5 63t-104 26t-106.5 -25t-62.5 -61.5t-24 -71.5h374zM724 898l-237 173l-236 -172l-96 128l332 243l333 -244zM883 1158l-365 216l126 160l318 -269z" />
    <glyph glyph-name="uni1EC2" unicode="&#x1ec2;" horiz-adv-x="1062" 
d="M94 1320h819v-221h-571v-330h563v-214h-563v-334h571v-221h-819v1320zM683 1688l-65 101q23 6 60 25.5t66.5 50.5t29.5 73q0 41 -17 60t-44 24t-58 5q-43 0 -89 -15.5t-76 -30.5v135q18 12 65.5 30t134.5 18q61 0 117 -19.5t91 -64t35 -122.5q0 -61 -27 -107t-67.5 -78.5
t-82.5 -53t-73 -31.5zM726 1394l-237 173l-236 -172l-96 128l332 243l333 -244z" />
    <glyph glyph-name="uni1EC3" unicode="&#x1ec3;" horiz-adv-x="981" 
d="M281 354q3 -56 30 -100t78.5 -69t123.5 -25q65 0 114.5 16t84 39.5t51.5 45.5l105 -156q-28 -35 -74.5 -64.5t-118 -47t-178.5 -17.5q-135 0 -237 53t-159 153t-57 238q0 120 51 216.5t148.5 152.5t234.5 56q129 0 223.5 -49.5t146.5 -144.5t52 -232q0 -8 -0.5 -32.5
t-2.5 -32.5h-616zM662 511q-1 32 -19.5 69t-57.5 63t-104 26t-106.5 -25t-62.5 -61.5t-24 -71.5h374zM680 1189l-65 101q23 6 60 25.5t66.5 50.5t29.5 73q0 41 -17 60t-44 24t-58 5q-43 0 -89 -15.5t-76 -30.5v135q18 12 65.5 30t134.5 18q61 0 117 -19.5t91 -64t35 -122.5
q0 -61 -27 -107t-67.5 -78.5t-82.5 -53t-73 -31.5zM723 895l-237 173l-236 -172l-96 128l332 243l333 -244z" />
    <glyph glyph-name="uni1EC4" unicode="&#x1ec4;" horiz-adv-x="1062" 
d="M94 1320h819v-221h-571v-330h563v-214h-563v-334h571v-221h-819v1320zM141 1799q10 54 36 111.5t69 97.5t103 40q62 0 107.5 -19t85.5 -37.5t85 -18.5q31 0 50.5 25.5t25.5 49.5h148q-10 -54 -36 -111.5t-69 -97.5t-103 -40q-62 0 -108 19t-86 37t-83 18q-30 0 -50 -25
t-27 -49h-148zM722 1394l-237 173l-236 -172l-96 128l332 243l333 -244z" />
    <glyph glyph-name="uni1EC5" unicode="&#x1ec5;" horiz-adv-x="981" 
d="M281 354q3 -56 30 -100t78.5 -69t123.5 -25q65 0 114.5 16t84 39.5t51.5 45.5l105 -156q-28 -35 -74.5 -64.5t-118 -47t-178.5 -17.5q-135 0 -237 53t-159 153t-57 238q0 120 51 216.5t148.5 152.5t234.5 56q129 0 223.5 -49.5t146.5 -144.5t52 -232q0 -8 -0.5 -32.5
t-2.5 -32.5h-616zM662 511q-1 32 -19.5 69t-57.5 63t-104 26t-106.5 -25t-62.5 -61.5t-24 -71.5h374zM138 1300q10 54 36 111.5t69 97.5t103 40q62 0 107.5 -19t85.5 -37.5t85 -18.5q31 0 50.5 25.5t25.5 49.5h148q-10 -54 -36 -111.5t-69 -97.5t-103 -40q-62 0 -108 19
t-86 37t-83 18q-30 0 -50 -25t-27 -49h-148zM719 895l-237 173l-236 -172l-96 128l332 243l333 -244z" />
    <glyph glyph-name="uni1EC6" unicode="&#x1ec6;" horiz-adv-x="1062" 
d="M94 1320h819v-221h-571v-330h563v-214h-563v-334h571v-221h-819v1320zM484 -303q-45 0 -76 31.5t-31 74.5t31 75t76 32q43 0 74.5 -32t31.5 -75q0 -44 -31.5 -75t-74.5 -31zM251 1400l-97 128l333 243l332 -244l-96 -128l-236 173z" />
    <glyph glyph-name="uni1EC7" unicode="&#x1ec7;" horiz-adv-x="981" 
d="M281 354q3 -56 30 -100t78.5 -69t123.5 -25q65 0 114.5 16t84 39.5t51.5 45.5l105 -156q-28 -35 -74.5 -64.5t-118 -47t-178.5 -17.5q-135 0 -237 53t-159 153t-57 238q0 120 51 216.5t148.5 152.5t234.5 56q129 0 223.5 -49.5t146.5 -144.5t52 -232q0 -8 -0.5 -32.5
t-2.5 -32.5h-616zM662 511q-1 32 -19.5 69t-57.5 63t-104 26t-106.5 -25t-62.5 -61.5t-24 -71.5h374zM480 -305q-45 0 -76 31.5t-31 74.5t31 75t76 32q43 0 74.5 -31.5t31.5 -75.5t-31.5 -75t-74.5 -31zM721 899l-237 173l-236 -172l-96 128l332 243l333 -244z" />
    <glyph glyph-name="uni1EC8" unicode="&#x1ec8;" horiz-adv-x="513" 
d="M106 1320h250v-1320h-250v1320zM201 1392l-65 88q23 6 60 22t66.5 42.5t29.5 60.5q0 37 -17 54t-44 21.5t-58 4.5q-43 0 -89 -14.5t-76 -28.5v118q18 11 65.5 27.5t134.5 16.5q61 0 117 -17t91 -56.5t35 -107.5q0 -52 -27 -91t-67.5 -66.5t-82.5 -45.5t-73 -28z" />
    <glyph glyph-name="uni1EC9" unicode="&#x1ec9;" horiz-adv-x="414" 
d="M74 0v821h236v-821h-236zM164 867l-65 100q23 7 60 26.5t66.5 50.5t29.5 73q0 41 -17 59.5t-44 24t-58 5.5q-43 0 -89 -15.5t-76 -31.5v136q18 12 65.5 30t134.5 18q61 0 117 -19.5t91 -64t35 -122.5q0 -61 -27 -107t-67.5 -78.5t-82.5 -53t-73 -31.5z" />
    <glyph glyph-name="uni1ECA" unicode="&#x1eca;" horiz-adv-x="513" 
d="M106 1320h250v-1320h-250v1320zM230 -303q-45 0 -76 31.5t-31 74.5t31 75t76 32q43 0 74.5 -32t31.5 -75q0 -44 -31.5 -75t-74.5 -31z" />
    <glyph glyph-name="uni1ECB" unicode="&#x1ecb;" horiz-adv-x="499" 
d="M106 0v821h253v-821h-253zM236 1033q-63 0 -106.5 44t-43.5 105t44 106t106 45q41 0 75 -20.5t55 -54.5t21 -76q0 -61 -44.5 -105t-106.5 -44zM236 -305q-45 0 -76 31.5t-31 74.5t31 75t76 32q43 0 74.5 -31.5t31.5 -75.5t-31.5 -75t-74.5 -31z" />
    <glyph glyph-name="uni1ECC" unicode="&#x1ecc;" horiz-adv-x="1469" 
d="M302 661q0 -126 52.5 -228t144.5 -161.5t213 -59.5t213.5 59.5t144.5 161.5t52 228t-52 227.5t-144.5 161.5t-213.5 60t-213 -60t-144.5 -161.5t-52.5 -227.5zM42 661q0 144 50.5 268.5t141.5 217.5t213.5 145t264.5 52q144 0 266 -52t212.5 -145t140.5 -217.5t50 -268.5
q0 -145 -49 -269.5t-139 -218t-212 -145.5t-269 -52q-149 0 -271.5 52t-212 145.5t-138 218t-48.5 269.5zM712 -356q-45 0 -76 31.5t-31 74.5t31 75t76 32q43 0 74.5 -32t31.5 -75q0 -44 -31.5 -75t-74.5 -31z" />
    <glyph glyph-name="uni1ECD" unicode="&#x1ecd;" horiz-adv-x="1021" 
d="M495 -24q-131 0 -233.5 56t-160.5 153.5t-58 222.5t58 223.5t160.5 156t233.5 57.5q132 0 233 -57.5t158 -156t57 -223.5t-57 -222.5t-158 -153.5t-233 -56zM495 187q63 0 109.5 28.5t72 79t25.5 114.5t-25.5 115t-72 80.5t-109.5 29.5t-109.5 -29.5t-72.5 -80.5
t-26 -115t26 -114.5t72.5 -79t109.5 -28.5zM493 -455q-45 0 -76 31.5t-31 74.5t31 75t76 32q43 0 74.5 -31.5t31.5 -75.5t-31.5 -75t-74.5 -31z" />
    <glyph glyph-name="uni1ECE" unicode="&#x1ece;" horiz-adv-x="1469" 
d="M302 661q0 -126 52.5 -228t144.5 -161.5t213 -59.5t213.5 59.5t144.5 161.5t52 228t-52 227.5t-144.5 161.5t-213.5 60t-213 -60t-144.5 -161.5t-52.5 -227.5zM42 661q0 144 50.5 268.5t141.5 217.5t213.5 145t264.5 52q144 0 266 -52t212.5 -145t140.5 -217.5t50 -268.5
q0 -145 -49 -269.5t-139 -218t-212 -145.5t-269 -52q-149 0 -271.5 52t-212 145.5t-138 218t-48.5 269.5zM683 1392l-65 88q23 6 60 22t66.5 42.5t29.5 60.5q0 37 -17 54t-44 21.5t-58 4.5q-43 0 -89 -14.5t-76 -28.5v118q18 11 65.5 27.5t134.5 16.5q61 0 117 -17t91 -56.5
t35 -107.5q0 -52 -27 -91t-67.5 -66.5t-82.5 -45.5t-73 -28z" />
    <glyph glyph-name="uni1ECF" unicode="&#x1ecf;" horiz-adv-x="1021" 
d="M495 -24q-131 0 -233.5 56t-160.5 153.5t-58 222.5t58 223.5t160.5 156t233.5 57.5q132 0 233 -57.5t158 -156t57 -223.5t-57 -222.5t-158 -153.5t-233 -56zM495 187q63 0 109.5 28.5t72 79t25.5 114.5t-25.5 115t-72 80.5t-109.5 29.5t-109.5 -29.5t-72.5 -80.5
t-26 -115t26 -114.5t72.5 -79t109.5 -28.5zM464 867l-65 100q23 7 60 26.5t66.5 50.5t29.5 73q0 41 -17 59.5t-44 24t-58 5.5q-43 0 -89 -15.5t-76 -31.5v136q18 12 65.5 30t134.5 18q61 0 117 -19.5t91 -64t35 -122.5q0 -61 -27 -107t-67.5 -78.5t-82.5 -53t-73 -31.5z" />
    <glyph glyph-name="uni1ED0" unicode="&#x1ed0;" horiz-adv-x="1469" 
d="M302 661q0 -126 52.5 -228t144.5 -161.5t213 -59.5t213.5 59.5t144.5 161.5t52 228t-52 227.5t-144.5 161.5t-213.5 60t-213 -60t-144.5 -161.5t-52.5 -227.5zM42 661q0 144 50.5 268.5t141.5 217.5t213.5 145t264.5 52q144 0 266 -52t212.5 -145t140.5 -217.5t50 -268.5
q0 -145 -49 -269.5t-139 -218t-212 -145.5t-269 -52q-149 0 -271.5 52t-212 145.5t-138 218t-48.5 269.5zM950 1394l-237 173l-236 -172l-96 128l332 243l333 -244zM953 1677l-79 107l317 269l127 -159z" />
    <glyph glyph-name="uni1ED1" unicode="&#x1ed1;" horiz-adv-x="1021" 
d="M495 -24q-131 0 -233.5 56t-160.5 153.5t-58 222.5t58 223.5t160.5 156t233.5 57.5q132 0 233 -57.5t158 -156t57 -223.5t-57 -222.5t-158 -153.5t-233 -56zM495 187q63 0 109.5 28.5t72 79t25.5 114.5t-25.5 115t-72 80.5t-109.5 29.5t-109.5 -29.5t-72.5 -80.5
t-26 -115t26 -114.5t72.5 -79t109.5 -28.5zM730 895l-237 173l-236 -172l-96 128l332 243l333 -244zM733 1178l-79 107l317 269l127 -159z" />
    <glyph glyph-name="uni1ED2" unicode="&#x1ed2;" horiz-adv-x="1469" 
d="M302 661q0 -126 52.5 -228t144.5 -161.5t213 -59.5t213.5 59.5t144.5 161.5t52 228t-52 227.5t-144.5 161.5t-213.5 60t-213 -60t-144.5 -161.5t-52.5 -227.5zM42 661q0 144 50.5 268.5t141.5 217.5t213.5 145t264.5 52q144 0 266 -52t212.5 -145t140.5 -217.5t50 -268.5
q0 -145 -49 -269.5t-139 -218t-212 -145.5t-269 -52q-149 0 -271.5 52t-212 145.5t-138 218t-48.5 269.5zM952 1397l-237 173l-236 -172l-96 128l332 243l333 -244zM1111 1657l-365 216l126 160l318 -269z" />
    <glyph glyph-name="uni1ED3" unicode="&#x1ed3;" horiz-adv-x="1021" 
d="M495 -24q-131 0 -233.5 56t-160.5 153.5t-58 222.5t58 223.5t160.5 156t233.5 57.5q132 0 233 -57.5t158 -156t57 -223.5t-57 -222.5t-158 -153.5t-233 -56zM495 187q63 0 109.5 28.5t72 79t25.5 114.5t-25.5 115t-72 80.5t-109.5 29.5t-109.5 -29.5t-72.5 -80.5
t-26 -115t26 -114.5t72.5 -79t109.5 -28.5zM732 898l-237 173l-236 -172l-96 128l332 243l333 -244zM891 1158l-365 216l126 160l318 -269z" />
    <glyph glyph-name="uni1ED4" unicode="&#x1ed4;" horiz-adv-x="1469" 
d="M302 661q0 -126 52.5 -228t144.5 -161.5t213 -59.5t213.5 59.5t144.5 161.5t52 228t-52 227.5t-144.5 161.5t-213.5 60t-213 -60t-144.5 -161.5t-52.5 -227.5zM42 661q0 144 50.5 268.5t141.5 217.5t213.5 145t264.5 52q144 0 266 -52t212.5 -145t140.5 -217.5t50 -268.5
q0 -145 -49 -269.5t-139 -218t-212 -145.5t-269 -52q-149 0 -271.5 52t-212 145.5t-138 218t-48.5 269.5zM908 1688l-65 101q23 6 60 25.5t66.5 50.5t29.5 73q0 41 -17 60t-44 24t-58 5q-43 0 -89 -15.5t-76 -30.5v135q18 12 65.5 30t134.5 18q61 0 117 -19.5t91 -64
t35 -122.5q0 -61 -27 -107t-67.5 -78.5t-82.5 -53t-73 -31.5zM951 1394l-237 173l-236 -172l-96 128l332 243l333 -244z" />
    <glyph glyph-name="uni1ED5" unicode="&#x1ed5;" horiz-adv-x="1021" 
d="M495 -24q-131 0 -233.5 56t-160.5 153.5t-58 222.5t58 223.5t160.5 156t233.5 57.5q132 0 233 -57.5t158 -156t57 -223.5t-57 -222.5t-158 -153.5t-233 -56zM495 187q63 0 109.5 28.5t72 79t25.5 114.5t-25.5 115t-72 80.5t-109.5 29.5t-109.5 -29.5t-72.5 -80.5
t-26 -115t26 -114.5t72.5 -79t109.5 -28.5zM689 1189l-65 101q23 6 60 25.5t66.5 50.5t29.5 73q0 41 -17 60t-44 24t-58 5q-43 0 -89 -15.5t-76 -30.5v135q18 12 65.5 30t134.5 18q61 0 117 -19.5t91 -64t35 -122.5q0 -61 -27 -107t-67.5 -78.5t-82.5 -53t-73 -31.5z
M732 895l-237 173l-236 -172l-96 128l332 243l333 -244z" />
    <glyph glyph-name="uni1ED6" unicode="&#x1ed6;" horiz-adv-x="1469" 
d="M302 661q0 -126 52.5 -228t144.5 -161.5t213 -59.5t213.5 59.5t144.5 161.5t52 228t-52 227.5t-144.5 161.5t-213.5 60t-213 -60t-144.5 -161.5t-52.5 -227.5zM42 661q0 144 50.5 268.5t141.5 217.5t213.5 145t264.5 52q144 0 266 -52t212.5 -145t140.5 -217.5t50 -268.5
q0 -145 -49 -269.5t-139 -218t-212 -145.5t-269 -52q-149 0 -271.5 52t-212 145.5t-138 218t-48.5 269.5zM366 1799q10 54 36 111.5t69 97.5t103 40q62 0 107.5 -19t85.5 -37.5t85 -18.5q31 0 50.5 25.5t25.5 49.5h148q-10 -54 -36 -111.5t-69 -97.5t-103 -40q-62 0 -108 19
t-86 37t-83 18q-30 0 -50 -25t-27 -49h-148zM947 1394l-237 173l-236 -172l-96 128l332 243l333 -244z" />
    <glyph glyph-name="uni1ED7" unicode="&#x1ed7;" horiz-adv-x="1021" 
d="M495 -24q-131 0 -233.5 56t-160.5 153.5t-58 222.5t58 223.5t160.5 156t233.5 57.5q132 0 233 -57.5t158 -156t57 -223.5t-57 -222.5t-158 -153.5t-233 -56zM495 187q63 0 109.5 28.5t72 79t25.5 114.5t-25.5 115t-72 80.5t-109.5 29.5t-109.5 -29.5t-72.5 -80.5
t-26 -115t26 -114.5t72.5 -79t109.5 -28.5zM147 1300q10 54 36 111.5t69 97.5t103 40q62 0 107.5 -19t85.5 -37.5t85 -18.5q31 0 50.5 25.5t25.5 49.5h148q-10 -54 -36 -111.5t-69 -97.5t-103 -40q-62 0 -108 19t-86 37t-83 18q-30 0 -50 -25t-27 -49h-148zM728 895
l-237 173l-236 -172l-96 128l332 243l333 -244z" />
    <glyph glyph-name="uni1ED8" unicode="&#x1ed8;" horiz-adv-x="1469" 
d="M302 661q0 -126 52.5 -228t144.5 -161.5t213 -59.5t213.5 59.5t144.5 161.5t52 228t-52 227.5t-144.5 161.5t-213.5 60t-213 -60t-144.5 -161.5t-52.5 -227.5zM42 661q0 144 50.5 268.5t141.5 217.5t213.5 145t264.5 52q144 0 266 -52t212.5 -145t140.5 -217.5t50 -268.5
q0 -145 -49 -269.5t-139 -218t-212 -145.5t-269 -52q-149 0 -271.5 52t-212 145.5t-138 218t-48.5 269.5zM712 -356q-45 0 -76 31.5t-31 74.5t31 75t76 32q43 0 74.5 -32t31.5 -75q0 -44 -31.5 -75t-74.5 -31zM476 1400l-97 128l333 243l332 -244l-96 -128l-236 173z" />
    <glyph glyph-name="uni1ED9" unicode="&#x1ed9;" horiz-adv-x="1021" 
d="M495 -24q-131 0 -233.5 56t-160.5 153.5t-58 222.5t58 223.5t160.5 156t233.5 57.5q132 0 233 -57.5t158 -156t57 -223.5t-57 -222.5t-158 -153.5t-233 -56zM495 187q63 0 109.5 28.5t72 79t25.5 114.5t-25.5 115t-72 80.5t-109.5 29.5t-109.5 -29.5t-72.5 -80.5
t-26 -115t26 -114.5t72.5 -79t109.5 -28.5zM493 -455q-45 0 -76 31.5t-31 74.5t31 75t76 32q43 0 74.5 -31.5t31.5 -75.5t-31.5 -75t-74.5 -31zM730 899l-237 173l-236 -172l-96 128l332 243l333 -244z" />
    <glyph glyph-name="uni1EDA" unicode="&#x1eda;" horiz-adv-x="1469" 
d="M302 661q0 -126 52.5 -228t144.5 -161.5t213 -59.5t213.5 59.5t144.5 161.5t52 228t-52 227.5t-144.5 161.5t-213.5 60t-213 -60t-144.5 -161.5t-52.5 -227.5zM42 661q0 144 50.5 268.5t141.5 217.5t213.5 145t264.5 52q144 0 266 -52t212.5 -145t140.5 -217.5t50 -268.5
q0 -145 -49 -269.5t-139 -218t-212 -145.5t-269 -52q-149 0 -271.5 52t-212 145.5t-138 218t-48.5 269.5zM1218 1042q-33 0 -58.5 8t-48.5 21v128q15 -13 37 -21.5t52 -8.5q53 0 81 39.5t28 88.5q0 43 -6 69t-18 54h165q8 -14 19.5 -48t11.5 -93q0 -67 -36.5 -121t-96.5 -85
t-130 -31zM585 1420l-78 107l316 269l127 -159z" />
    <glyph glyph-name="uni1EDB" unicode="&#x1edb;" horiz-adv-x="1021" 
d="M495 -24q-131 0 -233.5 56t-160.5 153.5t-58 222.5t58 223.5t160.5 156t233.5 57.5q132 0 233 -57.5t158 -156t57 -223.5t-57 -222.5t-158 -153.5t-233 -56zM495 187q63 0 109.5 28.5t72 79t25.5 114.5t-25.5 115t-72 80.5t-109.5 29.5t-109.5 -29.5t-72.5 -80.5
t-26 -115t26 -114.5t72.5 -79t109.5 -28.5zM825 629q-33 0 -58.5 8t-48.5 21v128q15 -13 37 -21.5t52 -8.5q53 0 81 39.5t28 88.5q0 43 -6 69t-18 54h165q8 -13 19.5 -47.5t11.5 -92.5q0 -68 -36.5 -122t-96.5 -85t-130 -31zM366 921l-78 107l316 269l127 -159z" />
    <glyph glyph-name="uni1EDC" unicode="&#x1edc;" horiz-adv-x="1469" 
d="M302 661q0 -126 52.5 -228t144.5 -161.5t213 -59.5t213.5 59.5t144.5 161.5t52 228t-52 227.5t-144.5 161.5t-213.5 60t-213 -60t-144.5 -161.5t-52.5 -227.5zM42 661q0 144 50.5 268.5t141.5 217.5t213.5 145t264.5 52q144 0 266 -52t212.5 -145t140.5 -217.5t50 -268.5
q0 -145 -49 -269.5t-139 -218t-212 -145.5t-269 -52q-149 0 -271.5 52t-212 145.5t-138 218t-48.5 269.5zM1218 1042q-33 0 -58.5 8t-48.5 21v128q15 -13 37 -21.5t52 -8.5q53 0 81 39.5t28 88.5q0 43 -6 69t-18 54h165q8 -14 19.5 -48t11.5 -93q0 -67 -36.5 -121t-96.5 -85
t-130 -31zM871 1452l-365 217l127 159l318 -269z" />
    <glyph glyph-name="uni1EDD" unicode="&#x1edd;" horiz-adv-x="1021" 
d="M495 -24q-131 0 -233.5 56t-160.5 153.5t-58 222.5t58 223.5t160.5 156t233.5 57.5q132 0 233 -57.5t158 -156t57 -223.5t-57 -222.5t-158 -153.5t-233 -56zM495 187q63 0 109.5 28.5t72 79t25.5 114.5t-25.5 115t-72 80.5t-109.5 29.5t-109.5 -29.5t-72.5 -80.5
t-26 -115t26 -114.5t72.5 -79t109.5 -28.5zM825 629q-33 0 -58.5 8t-48.5 21v128q15 -13 37 -21.5t52 -8.5q53 0 81 39.5t28 88.5q0 43 -6 69t-18 54h165q8 -13 19.5 -47.5t11.5 -92.5q0 -68 -36.5 -122t-96.5 -85t-130 -31zM652 953l-365 217l127 159l318 -269z" />
    <glyph glyph-name="uni1EDE" unicode="&#x1ede;" horiz-adv-x="1469" 
d="M302 661q0 -126 52.5 -228t144.5 -161.5t213 -59.5t213.5 59.5t144.5 161.5t52 228t-52 227.5t-144.5 161.5t-213.5 60t-213 -60t-144.5 -161.5t-52.5 -227.5zM42 661q0 144 50.5 268.5t141.5 217.5t213.5 145t264.5 52q144 0 266 -52t212.5 -145t140.5 -217.5t50 -268.5
q0 -145 -49 -269.5t-139 -218t-212 -145.5t-269 -52q-149 0 -271.5 52t-212 145.5t-138 218t-48.5 269.5zM1218 1042q-33 0 -58.5 8t-48.5 21v128q15 -13 37 -21.5t52 -8.5q53 0 81 39.5t28 88.5q0 43 -6 69t-18 54h165q8 -14 19.5 -48t11.5 -93q0 -67 -36.5 -121t-96.5 -85
t-130 -31zM683 1366l-65 100q23 7 60 26.5t66.5 50.5t29.5 73q0 41 -17 59.5t-44 24t-58 5.5q-43 0 -89 -15.5t-76 -31.5v136q18 12 65.5 30t134.5 18q61 0 117 -19.5t91 -64t35 -122.5q0 -61 -27 -107t-67.5 -78.5t-82.5 -53t-73 -31.5z" />
    <glyph glyph-name="uni1EDF" unicode="&#x1edf;" horiz-adv-x="1021" 
d="M495 -24q-131 0 -233.5 56t-160.5 153.5t-58 222.5t58 223.5t160.5 156t233.5 57.5q132 0 233 -57.5t158 -156t57 -223.5t-57 -222.5t-158 -153.5t-233 -56zM495 187q63 0 109.5 28.5t72 79t25.5 114.5t-25.5 115t-72 80.5t-109.5 29.5t-109.5 -29.5t-72.5 -80.5
t-26 -115t26 -114.5t72.5 -79t109.5 -28.5zM825 629q-33 0 -58.5 8t-48.5 21v128q15 -13 37 -21.5t52 -8.5q53 0 81 39.5t28 88.5q0 43 -6 69t-18 54h165q8 -13 19.5 -47.5t11.5 -92.5q0 -68 -36.5 -122t-96.5 -85t-130 -31zM464 867l-65 100q23 7 60 26.5t66.5 50.5
t29.5 73q0 41 -17 59.5t-44 24t-58 5.5q-43 0 -89 -15.5t-76 -31.5v136q18 12 65.5 30t134.5 18q61 0 117 -19.5t91 -64t35 -122.5q0 -61 -27 -107t-67.5 -78.5t-82.5 -53t-73 -31.5z" />
    <glyph glyph-name="uni1EE0" unicode="&#x1ee0;" horiz-adv-x="1469" 
d="M302 661q0 -126 52.5 -228t144.5 -161.5t213 -59.5t213.5 59.5t144.5 161.5t52 228t-52 227.5t-144.5 161.5t-213.5 60t-213 -60t-144.5 -161.5t-52.5 -227.5zM42 661q0 144 50.5 268.5t141.5 217.5t213.5 145t264.5 52q144 0 266 -52t212.5 -145t140.5 -217.5t50 -268.5
q0 -145 -49 -269.5t-139 -218t-212 -145.5t-269 -52q-149 0 -271.5 52t-212 145.5t-138 218t-48.5 269.5zM1218 1042q-33 0 -58.5 8t-48.5 21v128q15 -13 37 -21.5t52 -8.5q53 0 81 39.5t28 88.5q0 43 -6 69t-18 54h165q8 -14 19.5 -48t11.5 -93q0 -67 -36.5 -121t-96.5 -85
t-130 -31zM373 1488q10 54 36 111.5t69 97.5t102 40q63 0 108.5 -19t85.5 -37.5t85 -18.5q31 0 50.5 25.5t25.5 49.5h148q-10 -54 -36.5 -111.5t-69.5 -97.5t-102 -40q-62 0 -108 19t-86 37t-83 18q-30 0 -50 -25t-27 -49h-148z" />
    <glyph glyph-name="uni1EE1" unicode="&#x1ee1;" horiz-adv-x="1021" 
d="M495 -24q-131 0 -233.5 56t-160.5 153.5t-58 222.5t58 223.5t160.5 156t233.5 57.5q132 0 233 -57.5t158 -156t57 -223.5t-57 -222.5t-158 -153.5t-233 -56zM495 187q63 0 109.5 28.5t72 79t25.5 114.5t-25.5 115t-72 80.5t-109.5 29.5t-109.5 -29.5t-72.5 -80.5
t-26 -115t26 -114.5t72.5 -79t109.5 -28.5zM825 629q-33 0 -58.5 8t-48.5 21v128q15 -13 37 -21.5t52 -8.5q53 0 81 39.5t28 88.5q0 43 -6 69t-18 54h165q8 -13 19.5 -47.5t11.5 -92.5q0 -68 -36.5 -122t-96.5 -85t-130 -31zM153 989q10 54 36 111.5t69 97.5t102 40
q63 0 108.5 -19t85.5 -37.5t85 -18.5q31 0 50.5 25.5t25.5 49.5h148q-10 -54 -36.5 -111.5t-69.5 -97.5t-102 -40q-62 0 -108 19t-86 37t-83 18q-30 0 -50 -25t-27 -49h-148z" />
    <glyph glyph-name="uni1EE2" unicode="&#x1ee2;" horiz-adv-x="1469" 
d="M302 661q0 -126 52.5 -228t144.5 -161.5t213 -59.5t213.5 59.5t144.5 161.5t52 228t-52 227.5t-144.5 161.5t-213.5 60t-213 -60t-144.5 -161.5t-52.5 -227.5zM42 661q0 144 50.5 268.5t141.5 217.5t213.5 145t264.5 52q144 0 266 -52t212.5 -145t140.5 -217.5t50 -268.5
q0 -145 -49 -269.5t-139 -218t-212 -145.5t-269 -52q-149 0 -271.5 52t-212 145.5t-138 218t-48.5 269.5zM1218 1042q-33 0 -58.5 8t-48.5 21v128q15 -13 37 -21.5t52 -8.5q53 0 81 39.5t28 88.5q0 43 -6 69t-18 54h165q8 -14 19.5 -48t11.5 -93q0 -67 -36.5 -121t-96.5 -85
t-130 -31zM712 -358q-45 0 -76 31.5t-31 74.5t31 75t76 32q43 0 74.5 -31.5t31.5 -75.5t-31.5 -75t-74.5 -31z" />
    <glyph glyph-name="uni1EE3" unicode="&#x1ee3;" horiz-adv-x="1021" 
d="M495 -24q-131 0 -233.5 56t-160.5 153.5t-58 222.5t58 223.5t160.5 156t233.5 57.5q132 0 233 -57.5t158 -156t57 -223.5t-57 -222.5t-158 -153.5t-233 -56zM495 187q63 0 109.5 28.5t72 79t25.5 114.5t-25.5 115t-72 80.5t-109.5 29.5t-109.5 -29.5t-72.5 -80.5
t-26 -115t26 -114.5t72.5 -79t109.5 -28.5zM825 629q-33 0 -58.5 8t-48.5 21v128q15 -13 37 -21.5t52 -8.5q53 0 81 39.5t28 88.5q0 43 -6 69t-18 54h165q8 -13 19.5 -47.5t11.5 -92.5q0 -68 -36.5 -122t-96.5 -85t-130 -31zM493 -455q-45 0 -76 31.5t-31 74.5t31 75t76 32
q43 0 74.5 -31.5t31.5 -75.5t-31.5 -75t-74.5 -31z" />
    <glyph glyph-name="uni1EE4" unicode="&#x1ee4;" horiz-adv-x="1262" 
d="M880 1320h250v-814q0 -163 -64.5 -282t-181 -183.5t-274.5 -64.5q-159 0 -276.5 64.5t-182 183.5t-64.5 282v814h249v-801q0 -100 34.5 -170.5t96.5 -107t143 -36.5q80 0 141 36.5t95 107t34 170.5v801zM610 -303q-45 0 -76 31.5t-31 74.5t31 75t76 32q43 0 74.5 -32
t31.5 -75q0 -44 -31.5 -75t-74.5 -31z" />
    <glyph glyph-name="uni1EE5" unicode="&#x1ee5;" horiz-adv-x="1068" 
d="M332 428q0 -110 44 -175.5t142 -65.5q99 0 143 65.5t44 175.5v393h250v-422q0 -127 -51 -222.5t-148.5 -148t-237.5 -52.5q-139 0 -236.5 52.5t-148.5 148t-51 222.5v422h250v-393zM518 -305q-45 0 -76 31.5t-31 74.5t31 75t76 32q43 0 74.5 -31.5t31.5 -75.5t-31.5 -75
t-74.5 -31z" />
    <glyph glyph-name="uni1EE6" unicode="&#x1ee6;" horiz-adv-x="1262" 
d="M880 1320h250v-814q0 -163 -64.5 -282t-181 -183.5t-274.5 -64.5q-159 0 -276.5 64.5t-182 183.5t-64.5 282v814h249v-801q0 -100 34.5 -170.5t96.5 -107t143 -36.5q80 0 141 36.5t95 107t34 170.5v801zM581 1392l-65 88q23 6 60 22t66.5 42.5t29.5 60.5q0 37 -17 54
t-44 21.5t-58 4.5q-43 0 -89 -14.5t-76 -28.5v118q18 11 65.5 27.5t134.5 16.5q61 0 117 -17t91 -56.5t35 -107.5q0 -52 -27 -91t-67.5 -66.5t-82.5 -45.5t-73 -28z" />
    <glyph glyph-name="uni1EE7" unicode="&#x1ee7;" horiz-adv-x="1068" 
d="M332 428q0 -110 44 -175.5t142 -65.5q99 0 143 65.5t44 175.5v393h250v-422q0 -127 -51 -222.5t-148.5 -148t-237.5 -52.5q-139 0 -236.5 52.5t-148.5 148t-51 222.5v422h250v-393zM489 867l-65 100q23 7 60 26.5t66.5 50.5t29.5 73q0 41 -17 59.5t-44 24t-58 5.5
q-43 0 -89 -15.5t-76 -31.5v136q18 12 65.5 30t134.5 18q61 0 117 -19.5t91 -64t35 -122.5q0 -61 -27 -107t-67.5 -78.5t-82.5 -53t-73 -31.5z" />
    <glyph glyph-name="uni1EE8" unicode="&#x1ee8;" horiz-adv-x="1496" 
d="M880 1320h250v-814q0 -163 -64.5 -282t-181 -183.5t-274.5 -64.5q-159 0 -276.5 64.5t-182 183.5t-64.5 282v814h249v-801q0 -100 34.5 -170.5t96.5 -107t143 -36.5q80 0 141 36.5t95 107t34 170.5v801zM1237 1163q-33 0 -58.5 8t-48.5 21v128q15 -13 37 -21.5t52 -8.5
q53 0 81 39.5t28 88.5q0 43 -6 69t-18 54h165q8 -13 19.5 -47.5t11.5 -92.5q0 -68 -36.5 -122t-96.5 -85t-130 -31zM482 1420l-78 107l316 269l127 -159z" />
    <glyph glyph-name="uni1EE9" unicode="&#x1ee9;" horiz-adv-x="1321" 
d="M332 428q0 -110 44 -175.5t142 -65.5q99 0 143 65.5t44 175.5v393h250v-422q0 -127 -51 -222.5t-148.5 -148t-237.5 -52.5q-139 0 -236.5 52.5t-148.5 148t-51 222.5v422h250v-393zM1062 664q-33 0 -58.5 8t-48.5 21v128q15 -13 37 -21.5t52 -8.5q53 0 81 39.5t28 88.5
q0 43 -6 69t-18 54h165q8 -13 19.5 -47.5t11.5 -92.5q0 -68 -36.5 -122t-96.5 -85t-130 -31zM391 921l-78 107l316 269l127 -159z" />
    <glyph glyph-name="uni1EEA" unicode="&#x1eea;" horiz-adv-x="1496" 
d="M880 1320h250v-814q0 -163 -64.5 -282t-181 -183.5t-274.5 -64.5q-159 0 -276.5 64.5t-182 183.5t-64.5 282v814h249v-801q0 -100 34.5 -170.5t96.5 -107t143 -36.5q80 0 141 36.5t95 107t34 170.5v801zM1237 1163q-33 0 -58.5 8t-48.5 21v128q15 -13 37 -21.5t52 -8.5
q53 0 81 39.5t28 88.5q0 43 -6 69t-18 54h165q8 -13 19.5 -47.5t11.5 -92.5q0 -68 -36.5 -122t-96.5 -85t-130 -31zM769 1452l-365 217l127 159l318 -269z" />
    <glyph glyph-name="uni1EEB" unicode="&#x1eeb;" horiz-adv-x="1321" 
d="M332 428q0 -110 44 -175.5t142 -65.5q99 0 143 65.5t44 175.5v393h250v-422q0 -127 -51 -222.5t-148.5 -148t-237.5 -52.5q-139 0 -236.5 52.5t-148.5 148t-51 222.5v422h250v-393zM1062 664q-33 0 -58.5 8t-48.5 21v128q15 -13 37 -21.5t52 -8.5q53 0 81 39.5t28 88.5
q0 43 -6 69t-18 54h165q8 -13 19.5 -47.5t11.5 -92.5q0 -68 -36.5 -122t-96.5 -85t-130 -31zM677 953l-365 217l127 159l318 -269z" />
    <glyph glyph-name="uni1EEC" unicode="&#x1eec;" horiz-adv-x="1496" 
d="M880 1320h250v-814q0 -163 -64.5 -282t-181 -183.5t-274.5 -64.5q-159 0 -276.5 64.5t-182 183.5t-64.5 282v814h249v-801q0 -100 34.5 -170.5t96.5 -107t143 -36.5q80 0 141 36.5t95 107t34 170.5v801zM1237 1163q-33 0 -58.5 8t-48.5 21v128q15 -13 37 -21.5t52 -8.5
q53 0 81 39.5t28 88.5q0 43 -6 69t-18 54h165q8 -13 19.5 -47.5t11.5 -92.5q0 -68 -36.5 -122t-96.5 -85t-130 -31zM581 1366l-65 100q23 7 60 26.5t66.5 50.5t29.5 73q0 41 -17 59.5t-44 24t-58 5.5q-43 0 -89 -15.5t-76 -31.5v136q18 12 65.5 30t134.5 18q61 0 117 -19.5
t91 -64t35 -122.5q0 -61 -27 -107t-67.5 -78.5t-82.5 -53t-73 -31.5z" />
    <glyph glyph-name="uni1EED" unicode="&#x1eed;" horiz-adv-x="1321" 
d="M332 428q0 -110 44 -175.5t142 -65.5q99 0 143 65.5t44 175.5v393h250v-422q0 -127 -51 -222.5t-148.5 -148t-237.5 -52.5q-139 0 -236.5 52.5t-148.5 148t-51 222.5v422h250v-393zM1062 664q-33 0 -58.5 8t-48.5 21v128q15 -13 37 -21.5t52 -8.5q53 0 81 39.5t28 88.5
q0 43 -6 69t-18 54h165q8 -13 19.5 -47.5t11.5 -92.5q0 -68 -36.5 -122t-96.5 -85t-130 -31zM489 867l-65 100q23 7 60 26.5t66.5 50.5t29.5 73q0 41 -17 59.5t-44 24t-58 5.5q-43 0 -89 -15.5t-76 -31.5v136q18 12 65.5 30t134.5 18q61 0 117 -19.5t91 -64t35 -122.5
q0 -61 -27 -107t-67.5 -78.5t-82.5 -53t-73 -31.5z" />
    <glyph glyph-name="uni1EEE" unicode="&#x1eee;" horiz-adv-x="1496" 
d="M880 1320h250v-814q0 -163 -64.5 -282t-181 -183.5t-274.5 -64.5q-159 0 -276.5 64.5t-182 183.5t-64.5 282v814h249v-801q0 -100 34.5 -170.5t96.5 -107t143 -36.5q80 0 141 36.5t95 107t34 170.5v801zM1237 1163q-33 0 -58.5 8t-48.5 21v128q15 -13 37 -21.5t52 -8.5
q53 0 81 39.5t28 88.5q0 43 -6 69t-18 54h165q8 -13 19.5 -47.5t11.5 -92.5q0 -68 -36.5 -122t-96.5 -85t-130 -31zM270 1488q10 54 36 111.5t69 97.5t102 40q63 0 108.5 -19t85.5 -37.5t85 -18.5q31 0 50.5 25.5t25.5 49.5h148q-10 -54 -36.5 -111.5t-69.5 -97.5t-102 -40
q-62 0 -108 19t-86 37t-83 18q-30 0 -50 -25t-27 -49h-148z" />
    <glyph glyph-name="uni1EEF" unicode="&#x1eef;" horiz-adv-x="1321" 
d="M332 428q0 -110 44 -175.5t142 -65.5q99 0 143 65.5t44 175.5v393h250v-422q0 -127 -51 -222.5t-148.5 -148t-237.5 -52.5q-139 0 -236.5 52.5t-148.5 148t-51 222.5v422h250v-393zM1062 664q-33 0 -58.5 8t-48.5 21v128q15 -13 37 -21.5t52 -8.5q53 0 81 39.5t28 88.5
q0 43 -6 69t-18 54h165q8 -13 19.5 -47.5t11.5 -92.5q0 -68 -36.5 -122t-96.5 -85t-130 -31zM179 989q10 54 36 111.5t69 97.5t102 40q63 0 108.5 -19t85.5 -37.5t85 -18.5q31 0 50.5 25.5t25.5 49.5h148q-10 -54 -36.5 -111.5t-69.5 -97.5t-102 -40q-62 0 -108 19t-86 37
t-83 18q-30 0 -50 -25t-27 -49h-148z" />
    <glyph glyph-name="uni1EF0" unicode="&#x1ef0;" horiz-adv-x="1496" 
d="M880 1320h250v-814q0 -163 -64.5 -282t-181 -183.5t-274.5 -64.5q-159 0 -276.5 64.5t-182 183.5t-64.5 282v814h249v-801q0 -100 34.5 -170.5t96.5 -107t143 -36.5q80 0 141 36.5t95 107t34 170.5v801zM1237 1163q-33 0 -58.5 8t-48.5 21v128q15 -13 37 -21.5t52 -8.5
q53 0 81 39.5t28 88.5q0 43 -6 69t-18 54h165q8 -13 19.5 -47.5t11.5 -92.5q0 -68 -36.5 -122t-96.5 -85t-130 -31zM610 -305q-45 0 -76 31.5t-31 74.5t31 75t76 32q43 0 74.5 -31.5t31.5 -75.5t-31.5 -75t-74.5 -31z" />
    <glyph glyph-name="uni1EF1" unicode="&#x1ef1;" horiz-adv-x="1321" 
d="M332 428q0 -110 44 -175.5t142 -65.5q99 0 143 65.5t44 175.5v393h250v-422q0 -127 -51 -222.5t-148.5 -148t-237.5 -52.5q-139 0 -236.5 52.5t-148.5 148t-51 222.5v422h250v-393zM1062 664q-33 0 -58.5 8t-48.5 21v128q15 -13 37 -21.5t52 -8.5q53 0 81 39.5t28 88.5
q0 43 -6 69t-18 54h165q8 -13 19.5 -47.5t11.5 -92.5q0 -68 -36.5 -122t-96.5 -85t-130 -31zM518 -305q-45 0 -76 31.5t-31 74.5t31 75t76 32q43 0 74.5 -31.5t31.5 -75.5t-31.5 -75t-74.5 -31z" />
    <glyph glyph-name="Ygrave" unicode="&#x1ef2;" horiz-adv-x="1164" 
d="M429 475l-451 845h303l272 -558l273 558h301l-448 -845v-475h-250v475zM616 1376l-365 217l127 159l318 -269z" />
    <glyph glyph-name="ygrave" unicode="&#x1ef3;" horiz-adv-x="989" 
d="M478 223l243 598h251l-561 -1237h-255l189 416l-341 821h254zM638 953l-365 217l127 159l318 -269z" />
    <glyph glyph-name="uni1EF4" unicode="&#x1ef4;" horiz-adv-x="1164" 
d="M429 475l-451 845h303l272 -558l273 558h301l-448 -845v-475h-250v475zM554 -303q-45 0 -76 31.5t-31 74.5t31 75t76 32q43 0 74.5 -32t31.5 -75q0 -44 -31.5 -75t-74.5 -31z" />
    <glyph glyph-name="uni1EF5" unicode="&#x1ef5;" horiz-adv-x="989" 
d="M478 223l243 598h251l-561 -1237h-255l189 416l-341 821h254zM749 -305q-45 0 -76 31.5t-31 74.5t31 75t76 32q43 0 74.5 -31.5t31.5 -75.5t-31.5 -75t-74.5 -31z" />
    <glyph glyph-name="uni1EF6" unicode="&#x1ef6;" horiz-adv-x="1164" 
d="M429 475l-451 845h303l272 -558l273 558h301l-448 -845v-475h-250v475zM524 1392l-65 88q23 6 60 22t66.5 42.5t29.5 60.5q0 37 -17 54t-44 21.5t-58 4.5q-43 0 -89 -14.5t-76 -28.5v118q18 11 65.5 27.5t134.5 16.5q61 0 117 -17t91 -56.5t35 -107.5q0 -52 -27 -91
t-67.5 -66.5t-82.5 -45.5t-73 -28z" />
    <glyph glyph-name="uni1EF7" unicode="&#x1ef7;" horiz-adv-x="989" 
d="M478 223l243 598h251l-561 -1237h-255l189 416l-341 821h254zM450 867l-65 100q23 7 60 26.5t66.5 50.5t29.5 73q0 41 -17 59.5t-44 24t-58 5.5q-43 0 -89 -15.5t-76 -31.5v136q18 12 65.5 30t134.5 18q61 0 117 -19.5t91 -64t35 -122.5q0 -61 -27 -107t-67.5 -78.5
t-82.5 -53t-73 -31.5z" />
    <glyph glyph-name="uni1EF8" unicode="&#x1ef8;" horiz-adv-x="1164" 
d="M429 475l-451 845h303l272 -558l273 558h301l-448 -845v-475h-250v475zM198 1410q10 54 36 111.5t69 97.5t103 40q62 0 107.5 -19t85.5 -37.5t85 -18.5q31 0 50.5 25.5t25.5 49.5h148q-10 -53 -36 -111t-69 -98t-103 -40q-62 0 -108 19t-86 37.5t-83 18.5
q-30 0 -50 -25.5t-27 -49.5h-148z" />
    <glyph glyph-name="uni1EF9" unicode="&#x1ef9;" horiz-adv-x="989" 
d="M478 223l243 598h251l-561 -1237h-255l189 416l-341 821h254zM140 989q10 54 36 111.5t69 97.5t102 40q63 0 108.5 -19t85.5 -37.5t85 -18.5q31 0 50.5 25.5t25.5 49.5h148q-10 -54 -36.5 -111.5t-69.5 -97.5t-102 -40q-62 0 -108 19t-86 37t-83 18q-30 0 -50 -25
t-27 -49h-148z" />
    <glyph glyph-name="endash" unicode="&#x2013;" horiz-adv-x="884" 
d="M5 347v217h843v-217h-843z" />
    <glyph glyph-name="emdash" unicode="&#x2014;" horiz-adv-x="1687" 
d="M-6 347v217h1667v-217h-1667z" />
    <glyph glyph-name="quoteleft" unicode="&#x2018;" horiz-adv-x="471" 
d="M246 797q-74 0 -123 51.5t-49 149.5q0 87 33 154t85.5 115t107.5 74l65 -62q-24 -10 -60.5 -39t-65 -67.5t-29.5 -80.5q10 12 32.5 18.5t46.5 6.5q48 0 88 -36t40 -109q0 -80 -49 -127.5t-122 -47.5z" />
    <glyph glyph-name="quoteright" unicode="&#x2019;" horiz-adv-x="471" 
d="M149 791l-64 62q24 10 60.5 39t65 67.5t29.5 79.5q-9 -10 -32 -17t-47 -7q-48 0 -88 36.5t-40 108.5q0 81 49 128t122 47q74 0 123 -51.5t49 -150.5q0 -86 -33.5 -153.5t-85 -114.5t-108.5 -74z" />
    <glyph glyph-name="quotesinglbase" unicode="&#x201a;" horiz-adv-x="486" 
d="M253 306q70 0 119.5 -49t49.5 -139q0 -83 -34 -161t-90.5 -140t-122.5 -98l-75 81q33 17 71 46t69.5 66.5t43.5 79.5q-20 -11 -54 -11q-57 0 -100.5 44t-43.5 114q0 47 22.5 85t60.5 60t84 22z" />
    <glyph glyph-name="quotedblleft" unicode="&#x201c;" horiz-adv-x="991" 
d="M728 797q-74 0 -123 51.5t-49 149.5q0 87 33 154t85.5 115t107.5 74l65 -62q-24 -10 -60.5 -39t-65 -67.5t-29.5 -80.5q10 12 32.5 18.5t46.5 6.5q48 0 88 -36t40 -109q0 -80 -49 -127.5t-122 -47.5zM294 797q-74 0 -123 51.5t-49 149.5q0 87 33 154t85.5 115t107.5 74
l65 -62q-24 -10 -60.5 -39t-65 -67.5t-29.5 -80.5q10 12 32.5 18.5t46.5 6.5q48 0 88 -36t40 -109q0 -80 -49 -127.5t-122 -47.5z" />
    <glyph glyph-name="quotedblright" unicode="&#x201d;" horiz-adv-x="991" 
d="M627 786l-64 61q24 11 60 39.5t65 67.5t29 80q-8 -11 -31 -17.5t-47 -6.5q-48 0 -88.5 36t-40.5 108q0 81 49.5 128t122.5 47t122.5 -51.5t49.5 -149.5q0 -87 -33.5 -154.5t-85 -114.5t-108.5 -73zM194 786l-65 61q24 11 60.5 39.5t65 67.5t29.5 80q-9 -11 -32 -17.5
t-47 -6.5q-48 0 -88 36t-40 108q0 81 49 128t122 47q74 0 123 -51.5t49 -149.5q0 -87 -33 -154.5t-85 -114.5t-108 -73z" />
    <glyph glyph-name="quotedblbase" unicode="&#x201e;" horiz-adv-x="918" 
d="M668 306q70 0 119.5 -49t49.5 -139q0 -83 -34 -161t-90.5 -140t-122.5 -98l-75 81q33 17 71 46t69.5 66.5t43.5 79.5q-20 -11 -54 -11q-57 0 -100.5 44t-43.5 114q0 47 22.5 85t60.5 60t84 22zM253 306q70 0 119.5 -49t49.5 -139q0 -83 -34 -161t-90.5 -140t-122.5 -98
l-75 81q33 17 71 46t69.5 66.5t43.5 79.5q-20 -11 -54 -11q-57 0 -100.5 44t-43.5 114q0 47 22.5 85t60.5 60t84 22z" />
    <glyph glyph-name="dagger" unicode="&#x2020;" horiz-adv-x="853" 
d="M293 -251v1668h227v-1668h-227zM89 809v217h631v-217h-631z" />
    <glyph glyph-name="daggerdbl" unicode="&#x2021;" horiz-adv-x="867" 
d="M318 -251v1668h227v-1668h-227zM116 368v217h631v-217h-631zM118 809v217h631v-217h-631z" />
    <glyph glyph-name="bullet" unicode="&#x2022;" horiz-adv-x="1085" 
d="M526 849q77 0 140 -37.5t100.5 -100.5t37.5 -141q0 -76 -37.5 -139t-100.5 -100t-140 -37t-139.5 37.5t-99.5 100t-37 138.5q0 77 37 140.5t99.5 101t139.5 37.5z" />
    <glyph glyph-name="ellipsis" unicode="&#x2026;" horiz-adv-x="1600" 
d="M262 -24q-67 0 -115 48t-48 115q0 69 48 117t115 48q69 0 116.5 -48t47.5 -117q0 -67 -47.5 -115t-116.5 -48zM801 -24q-67 0 -115 48t-48 115q0 69 48 117t115 48q69 0 116.5 -48t47.5 -117q0 -67 -47.5 -115t-116.5 -48zM1338 -24q-67 0 -115 48t-48 115q0 69 48 117
t115 48q69 0 116.5 -48t47.5 -117q0 -67 -47.5 -115t-116.5 -48z" />
    <glyph glyph-name="perthousand" unicode="&#x2030;" horiz-adv-x="2092" 
d="M1552 1254l80 -109l-1550 -979l-79 109zM110 1029q0 83 41.5 150t115 106.5t168.5 39.5q94 0 167 -39.5t114.5 -106.5t41.5 -150q0 -81 -40.5 -148t-113.5 -107.5t-169 -40.5q-97 0 -170.5 40.5t-114 107.5t-40.5 148zM286 1029q0 -68 41 -109t107 -41q64 0 105 40.5
t41 109.5q0 67 -41 109.5t-105 42.5q-65 0 -106.5 -42.5t-41.5 -109.5zM662 291q0 82 41.5 149t115 107t168.5 40t168 -40t114.5 -107t41.5 -149q0 -81 -41 -148.5t-114 -107.5t-169 -40q-97 0 -170 40t-114 107.5t-41 148.5zM839 291q0 -68 40.5 -109t107.5 -41
q63 0 104 40.5t41 109.5q0 67 -41 109t-104 42q-65 0 -106.5 -42t-41.5 -109zM1390 291q0 82 41.5 149t115 107t168.5 40q94 0 167 -40t114.5 -107t41.5 -149q0 -81 -40.5 -148.5t-113.5 -107.5t-169 -40q-97 0 -170.5 40t-114 107.5t-40.5 148.5zM1566 291q0 -68 41 -109
t107 -41q64 0 105 40.5t41 109.5q0 67 -41 109t-105 42q-65 0 -106.5 -42t-41.5 -109z" />
    <glyph glyph-name="guilsinglleft" unicode="&#x2039;" horiz-adv-x="605" 
d="M485 154l-124 -99l-306 390l306 389l124 -97l-229 -292z" />
    <glyph glyph-name="guilsinglright" unicode="&#x203a;" horiz-adv-x="604" 
d="M205 55l-123 99l228 291l-228 292l123 97l306 -389z" />
    <glyph glyph-name="fraction" unicode="&#x2044;" horiz-adv-x="435" 
d="M514 1320h153l-768 -1320h-153z" />
    <glyph glyph-name="uni2074" unicode="&#x2074;" horiz-adv-x="456" 
d="M335 1321v-328h61v-88h-61v-111h-99v111h-219v80l205 336h113zM236 993v194h-1l-117 -194h118z" />
    <glyph glyph-name="colonmonetary" unicode="&#x20a1;" horiz-adv-x="1142" 
d="M1015 1376h163l-660 -1568h-162zM776 1382h163l-659 -1568h-163zM1020 1037q-25 19 -92 47.5t-198 28.5q-90 0 -168 -32t-136 -91.5t-90.5 -142.5t-32.5 -186q0 -137 55 -239.5t152 -158t220 -55.5q129 0 196 27.5t94 46.5v-253q-39 -20 -119.5 -36.5t-170.5 -16.5
q-222 0 -376 91t-233 246t-79 348t85.5 347.5t240 245t362.5 90.5q96 0 169 -13t121 -41v-253z" />
    <glyph glyph-name="franc" unicode="&#x20a3;" horiz-adv-x="941" 
d="M-19 395h642v-160h-642v160zM98 1320h734v-221h-484v-327h449v-220h-449v-552h-250v1320z" />
    <glyph glyph-name="lira" unicode="&#x20a4;" horiz-adv-x="1218" 
d="M270 620q-10 17 -25 50.5t-30 78t-25 95t-10 101.5q0 111 48.5 202.5t144.5 145t241 53.5q131 0 221 -47t142 -114t67 -130l-206 -104q-8 42 -34 86.5t-71 75.5t-110 31q-95 0 -146.5 -55.5t-51.5 -153.5q0 -39 10 -86t24.5 -93t28.5 -82.5t22 -53.5q32 -78 44 -133
t12 -107q0 -43 -11 -81t-15 -47q26 -3 53.5 -16t57.5 -28t64.5 -27t73.5 -12q43 0 70.5 21t42.5 47t17 42l203 -75q-13 -49 -51.5 -102t-101 -89.5t-151.5 -36.5q-74 0 -130.5 17t-105 39t-97.5 39t-108 17q-33 0 -58.5 -16.5t-41 -37t-19.5 -34.5h-183q2 72 38.5 132.5
t94.5 97t124 36.5q10 16 17 42.5t7 63.5q0 49 -23.5 113t-62.5 135zM90 744h740v-111h-740v111zM90 538h740v-111h-740v111z" />
    <glyph glyph-name="uni20A6" unicode="&#x20a6;" horiz-adv-x="1412" 
d="M94 0v1320h344l592 -1084l-17 -4v1088h249v-1320h-346l-590 1089l17 -3v-1086h-249zM-17 578v164h1396v-164h-1396z" />
    <glyph glyph-name="peseta" unicode="&#x20a7;" horiz-adv-x="1079" 
d="M99 0v1320h439q125 0 226.5 -43t161.5 -131.5t60 -225.5q0 -136 -60 -229t-161.5 -140.5t-226.5 -47.5h-190v-503h-249zM348 704h121q70 0 126.5 20.5t90.5 66.5t34 123q0 78 -34 122.5t-90.5 64t-126.5 19.5h-121v-416zM-12 855v114h1088v-114h-1088z" />
    <glyph glyph-name="uni20A9" unicode="&#x20a9;" horiz-adv-x="1760" 
d="M317 0l-292 1320h286l175 -992h-3l262 992h199l263 -992h-4l176 992h286l-294 -1320h-304l-245 998h46l-246 -998h-305zM11 578v164h1660v-164h-1660z" />
    <glyph glyph-name="dong" unicode="&#x20ab;" horiz-adv-x="1090" 
d="M448 -24q-117 0 -205.5 56.5t-138 155t-49.5 222.5t49.5 222.5t138 155.5t205.5 57q83 0 147.5 -27t103.5 -64t46 -66v688h255v-1376h-252v143q-16 -35 -59 -74t-105 -66t-136 -27zM520 178q64 0 115 29.5t80.5 82t29.5 120.5t-29.5 120.5t-80.5 82.5t-115 30
q-59 0 -108 -29.5t-78.5 -82t-29.5 -121.5t29.5 -121.5t78.5 -81.5t108 -29zM156 -246v164h627v-164h-627zM460 1028v164h627v-164h-627z" />
    <glyph glyph-name="Euro" unicode="&#x20ac;" horiz-adv-x="1308" 
d="M19 863h995v-142h-995v142zM19 596h995v-142h-995v142zM835 223q104 0 185 29.5t119 58.5l107 -213q-45 -40 -158 -81t-269 -41q-146 0 -272.5 51.5t-223 144t-150.5 217t-54 269.5t54 270.5t150 218.5t223 145t273 52q156 0 269 -41t158 -81l-107 -213q-38 29 -119 58.5
t-185 29.5q-105 0 -187.5 -34t-140.5 -94.5t-88 -139.5t-30 -168q0 -90 30 -169.5t88 -140t140.5 -94.5t187.5 -34z" />
    <glyph glyph-name="uni20AD" unicode="&#x20ad;" horiz-adv-x="1102" 
d="M80 0v1320h250v-565l407 565h283l-468 -644l516 -676h-299l-439 590v-590h-250zM-12 578v164h1057v-164h-1057z" />
    <glyph glyph-name="uni20B1" unicode="&#x20b1;" horiz-adv-x="1079" 
d="M99 1320h439q125 0 228.5 -55.5t166 -164t62.5 -269.5q0 -160 -62.5 -273.5t-166 -173t-228.5 -59.5h-190v-325h-249v1320zM348 525h121q70 0 129 31t95 97t36 172t-36 171t-95 94.5t-129 29.5h-121v-595zM3 671v114h1070v-114h-1070zM3 861v113h1070v-113h-1070z" />
    </font>
</defs>
</svg>
